<svg xmlns="http://www.w3.org/2000/svg" viewBox="0 0 316.3 47"><style>.st0{fill:#9D7C37;} .st1{fill:#A7A9AC;} .st2{fill:#8C7965;} .st3{fill:#4F4C4D;}</style><g id="Layer_1"><path class="st0" d="M29.8 12.3c-5.4 2.9-10.2 6.6-14.1 10.5 3.9 3.8 8.4 7.4 14.1 10.5l26.9-10.5-26.9-10.5"/><path class="st1" d="M14 21C7.9 14.6 3.8 7.4 1.7 1.3L29.1 12c-5 2-10.2 5.1-15.1 9"/><path class="st2" d="M14 24.6C7.9 31 3.8 38.3 1.7 44.3L29 33.6c-4.9-2-10.1-5-15-9"/></g><g id="Layer_2"><path class="st3" d="M197.1 35.3V34h2.7V12.2h-2.7v-1.3h15.2V9.8h1.7v5.9h-1.7v-3.1h-8.8v9.5h7v-2.8h1.7v7.3h-1.7v-2.9h-7v10h9.2v-3.3h1.7v4.9h-17.3M311.3 12.3v23.4h-1.5l-14.3-19.5V34h2.8v1.3h-7.4V34h2.8V13.7l-1-1.4h-2.6v-1.4h6.1L309.5 29V12.3h-2.8v-1.4h7.4v1.4h-2.8M274.3 35.8c-6.8 0-12.2-5.8-12.2-12.7 0-7 5.3-12.7 12.2-12.7 6.7 0 12.1 5.8 12.1 12.7 0 6.9-5.4 12.7-12.1 12.7m0-23.4c-4.9 0-8.1 4.5-8.1 10.8 0 6.3 3.3 10.8 8.1 10.8 4.7 0 8-4.6 8-10.8 0-6.3-3.3-10.8-8-10.8zM182 35.3V34h2.8V15.7l-9.1 20-9.5-20.4V34h2.8v1.3h-7.5V34h2.8V12.2h-2.8v-1.3h6.6l8.5 18.3 8.5-18.3h6.2v1.3h-2.8V34h2.8v1.3H182M220.9 35.3V34h2.8V12.2h-2.8v-1.3h9.2v1.3h-2.7v21.5h8.6v-3.3h1.7v4.9h-16.8M242.3 35.3V34h2.7V12.2h-2.7v-1.3h9.2v1.3h-2.8v21.5h8.7v-3.3h1.7v4.9h-16.8M144.8 12.2l-7.1 11.7V34h2.8v1.3h-9.3V34h2.8v-9.9l-7.7-11.9h-2.1v-1.3h9.6v1.3h-3.1l6.2 9.6 5.8-9.6h-3.4v-1.3h7.4v1.3h-1.9M86.9 22.5c2.6.3 6.6 1.9 6.6 6.5 0 3.9-3.1 6.4-7.6 6.4H74.1V34h2.8V12.2h-2.8v-1.4h11.2c3.9 0 7 2.1 7 6.1.1 3.3-2.8 5.1-5.4 5.6m-3-9.9h-3.3v9.2h3.1c2.3 0 4.8-1.4 4.8-4.7 0-3.2-2.1-4.5-4.6-4.5zm.1 10.9h-3.4v10.2H84c3.1 0 5.7-1.7 5.7-4.9 0-3.4-2.4-5.3-5.7-5.3zM119 12.3v23.4h-1.6l-14.2-19.5V34h2.8v1.3h-7.5V34h2.9V13.7l-1-1.4h-2.6v-1.4h6.1L117.2 29V12.3h-2.9v-1.4h7.5v1.4H119"/></g></svg>