<?xml version="1.0" encoding="UTF-8" standalone="no"?>
<!-- Created with Inkscape (http://www.inkscape.org/) -->

<svg
   xmlns:dc="http://purl.org/dc/elements/1.1/"
   xmlns:cc="http://creativecommons.org/ns#"
   xmlns:rdf="http://www.w3.org/1999/02/22-rdf-syntax-ns#"
   xmlns:svg="http://www.w3.org/2000/svg"
   xmlns="http://www.w3.org/2000/svg"
   xmlns:sodipodi="http://sodipodi.sourceforge.net/DTD/sodipodi-0.dtd"
   xmlns:inkscape="http://www.inkscape.org/namespaces/inkscape"
   width="492.00003"
   height="177.87959"
   viewBox="0 0 492.00002 177.8796"
   id="svg5394"
   version="1.1"
   inkscape:version="0.91 r13725"
   sodipodi:docname="capital one.svg">
  <defs
     id="defs5396">
    <clipPath
       id="clipPath4679"
       clipPathUnits="userSpaceOnUse">
      <path
         inkscape:connector-curvature="0"
         id="path4681"
         d="m 12,717.035 187.601,0 0,60.034 -187.601,0 0,-60.034 z" />
    </clipPath>
    <clipPath
       id="clipPath4663"
       clipPathUnits="userSpaceOnUse">
      <path
         inkscape:connector-curvature="0"
         id="path4665"
         d="m 20,723.789 176.692,0 0,48.281 -176.692,0 0,-48.281 z" />
    </clipPath>
    <clipPath
       id="clipPath4643"
       clipPathUnits="userSpaceOnUse">
      <path
         inkscape:connector-curvature="0"
         id="path4645"
         d="m 12,717.035 187.601,0 0,60.034 -187.601,0 0,-60.034 z" />
    </clipPath>
    <clipPath
       id="clipPath4623"
       clipPathUnits="userSpaceOnUse">
      <path
         inkscape:connector-curvature="0"
         id="path4625"
         d="m 20,723.789 176.692,0 0,48.281 -176.692,0 0,-48.281 z" />
    </clipPath>
    <clipPath
       id="clipPath4567"
       clipPathUnits="userSpaceOnUse">
      <path
         inkscape:connector-curvature="0"
         id="path4569"
         d="m 12,717.035 187.601,0 0,60.034 -187.601,0 0,-60.034 z" />
    </clipPath>
    <clipPath
       id="clipPath4551"
       clipPathUnits="userSpaceOnUse">
      <path
         inkscape:connector-curvature="0"
         id="path4553"
         d="M 0,0 612,0 612,792 0,792 0,0 Z" />
    </clipPath>
  </defs>
  <sodipodi:namedview
     id="base"
     pagecolor="#ffffff"
     bordercolor="#666666"
     borderopacity="1.0"
     inkscape:pageopacity="0.0"
     inkscape:pageshadow="2"
     inkscape:zoom="1.8469388"
     inkscape:cx="245"
     inkscape:cy="87.9398"
     inkscape:document-units="px"
     inkscape:current-layer="layer1"
     showgrid="false"
     fit-margin-top="0"
     fit-margin-left="0"
     fit-margin-right="0"
     fit-margin-bottom="0"
     units="px"
     inkscape:window-width="1280"
     inkscape:window-height="744"
     inkscape:window-x="-4"
     inkscape:window-y="-4"
     inkscape:window-maximized="1" />
  <metadata
     id="metadata5399">
    <rdf:RDF>
      <cc:Work
         rdf:about="">
        <dc:format>image/svg+xml</dc:format>
        <dc:type
           rdf:resource="http://purl.org/dc/dcmitype/StillImage" />
        <dc:title></dc:title>
      </cc:Work>
    </rdf:RDF>
  </metadata>
  <g
     inkscape:label="Layer 1"
     inkscape:groupmode="layer"
     id="layer1"
     transform="translate(-22.831581,-363.86163)">
    <path
       inkscape:connector-curvature="0"
       id="path4637"
       style="fill:#d22f2f;fill-opacity:1;fill-rule:nonzero;stroke:none"
       d="m 493.33237,381.20745 c -32.891,-36.27697 -244.51606,-3.64543 -334.51012,16.01307 l -2.09731,0.45406 c -0.43243,0.0778 -0.71784,0.49297 -0.64865,0.92108 0.0778,0.43676 0.48865,0.72217 0.92541,0.64866 l 2.08001,-0.40649 c 74.56045,-13.27576 229.61436,-31.68019 262.98105,1.40109 10.17952,10.09303 7.74923,23.10068 -4.05192,38.43915 6.36544,4.09083 10.89736,10.51682 12.93846,18.56443 46.07595,-30.65532 77.0383,-59.87063 62.38307,-76.03505 M 356.38452,492.07082 c -0.0208,0.0173 -0.0432,0.0311 -0.065,0.0477 -20.86499,14.76766 -45.57865,30.28343 -72.16908,46.56893 l -1.05082,0.60974 c -0.35459,0.2553 -0.4454,0.74378 -0.18577,1.10703 0.24631,0.35892 0.73946,0.44541 1.09838,0.19027 l 0.8865,-0.46703 c 22.55148,-11.77088 48.45002,-25.73853 74.51288,-40.07375 0.14253,-0.0734 0.28091,-0.15568 0.41946,-0.22902 -1.43568,-2.34812 -2.60758,-4.92544 -3.44651,-7.75356" />
    <g
       id="g5670"
       style="fill:#004879;fill-opacity:1"
       transform="translate(1.0000173,-1.0001277)">
      <g
         style="fill:#004879;fill-opacity:1"
         transform="matrix(4.3243504,0,0,-4.3243504,-63.655427,3704.564)"
         id="g4639">
        <g
           style="fill:#004879;fill-opacity:1"
           clip-path="url(#clipPath4643)"
           id="g4641">
          <g
             style="fill:#004879;fill-opacity:1"
             transform="translate(97.4864,745.0146)"
             id="g4647">
            <path
               inkscape:connector-curvature="0"
               id="path4649"
               style="fill:#004879;fill-opacity:1;fill-rule:nonzero;stroke:none"
               d="m 0,0 c -0.175,5.037 3.772,10.188 9.504,10.188 3.834,0 6.343,-2.555 6.484,-6.468 C 16.171,-1.592 12.485,-6.469 6.484,-6.469 2.649,-6.469 0.14,-3.919 0,0 m 2.494,-0.158 c 0.098,-2.952 1.965,-5.369 4.401,-5.369 4.72,0 6.73,5.795 6.59,9.668 -0.1,2.959 -2.016,5.371 -4.448,5.371 -4.061,0 -6.682,-5.771 -6.543,-9.67" />
          </g>
          <g
             style="fill:#004879;fill-opacity:1"
             transform="translate(48.167,749.4442)"
             id="g4651">
            <path
               inkscape:connector-curvature="0"
               id="path4653"
               style="fill:#004879;fill-opacity:1;fill-rule:nonzero;stroke:none"
               d="m 0,0 c -0.021,-0.463 -0.1,-0.868 -0.224,-1.576 l -0.844,-4.732 c -0.072,-0.42 0.084,-0.75 0.474,-0.976 l -0.026,-0.185 -4.827,0.007 -0.044,1.204 C -6.194,-6.683 -7.042,-7.04 -7.81,-7.25 c -0.765,-0.196 -1.384,-0.283 -2.313,-0.283 -1.56,0 -2.453,0.162 -3.069,0.702 -0.626,0.558 -0.929,0.927 -0.9,1.694 0.024,0.442 0.253,1.008 0.584,1.405 0.334,0.402 0.789,0.665 1.285,0.897 0.498,0.238 1.084,0.409 1.937,0.544 0.854,0.139 2.043,0.277 3.635,0.41 0.837,0.069 1.347,0.263 1.587,0.358 0.332,0.13 0.463,0.273 0.512,0.543 0.089,0.487 -0.067,0.764 -0.712,0.893 -1.74,0.342 -4.999,-0.221 -6.679,-0.642 l 0.913,2.463 c 2.216,0.324 4.293,0.531 6.478,0.531 C -1.077,2.265 0.035,1.273 0,0 m -4.983,-3.099 c -0.205,-0.077 -0.47,-0.154 -0.798,-0.222 -0.327,-0.074 -0.925,-0.181 -1.793,-0.318 -0.598,-0.093 -1.012,-0.219 -1.249,-0.388 -0.226,-0.168 -0.359,-0.367 -0.398,-0.611 -0.046,-0.26 0.039,-0.467 0.264,-0.63 0.229,-0.16 0.613,-0.242 1.155,-0.242 0.406,0 0.805,0.065 1.191,0.188 0.39,0.128 0.719,0.302 0.973,0.517 0.185,0.16 0.318,0.365 0.418,0.61 0.057,0.161 0.14,0.524 0.237,1.096" />
          </g>
          <g
             style="fill:#004879;fill-opacity:1"
             transform="translate(64.0913,753.6204)"
             id="g4655">
            <path
               inkscape:connector-curvature="0"
               id="path4657"
               style="fill:#004879;fill-opacity:1;fill-rule:nonzero;stroke:none"
               d="M 0,0 C 0.138,0.777 1.365,1.408 2.735,1.408 4.108,1.408 5.11,0.777 4.978,0 4.833,-0.778 3.609,-1.407 2.234,-1.407 0.857,-1.407 -0.139,-0.778 0,0 m -1.932,-11.645 1.676,9.455 4.622,0 -1.675,-9.455 -4.623,0 z" />
          </g>
        </g>
      </g>
      <g
         style="fill:#004879;fill-opacity:1"
         transform="matrix(4.3243504,0,0,-4.3243504,-63.655427,3704.564)"
         id="g4659">
        <g
           style="fill:#004879;fill-opacity:1"
           clip-path="url(#clipPath4663)"
           id="g4661">
          <g
             style="fill:#004879;fill-opacity:1"
             transform="translate(89.854,749.426)"
             id="g4667">
            <path
               inkscape:connector-curvature="0"
               id="path4669"
               style="fill:#004879;fill-opacity:1;fill-rule:nonzero;stroke:none"
               d="m 0,0 c -0.019,-0.464 -0.101,-0.873 -0.228,-1.574 l -0.838,-4.738 c -0.072,-0.418 0.083,-0.746 0.471,-0.979 l -0.029,-0.164 -4.825,-0.009 -0.037,1.205 c -0.706,-0.427 -1.559,-0.782 -2.321,-0.989 -0.768,-0.202 -1.387,-0.285 -2.322,-0.285 -1.558,0 -2.444,0.156 -3.063,0.7 -0.629,0.56 -0.932,0.927 -0.898,1.692 0.017,0.444 0.248,1.015 0.581,1.405 0.334,0.407 0.79,0.665 1.288,0.899 0.498,0.234 1.087,0.407 1.929,0.549 0.859,0.133 2.051,0.277 3.643,0.41 0.829,0.069 1.339,0.258 1.577,0.349 0.337,0.131 0.47,0.276 0.519,0.548 0.086,0.477 -0.067,0.762 -0.708,0.892 -1.748,0.345 -4.998,-0.222 -6.679,-0.639 l 0.909,2.462 C -8.807,2.059 -6.74,2.266 -4.552,2.266 -1.079,2.266 0.028,1.271 0,0 m -4.982,-3.104 c -0.207,-0.07 -0.476,-0.147 -0.802,-0.222 -0.324,-0.077 -0.922,-0.173 -1.796,-0.316 -0.594,-0.094 -1.016,-0.219 -1.244,-0.389 -0.222,-0.162 -0.354,-0.364 -0.401,-0.608 -0.048,-0.261 0.047,-0.472 0.264,-0.629 0.234,-0.161 0.62,-0.239 1.163,-0.239 0.403,0 0.797,0.06 1.186,0.182 0.394,0.132 0.721,0.3 0.977,0.517 0.177,0.161 0.315,0.37 0.411,0.615 0.06,0.158 0.14,0.522 0.242,1.089" />
          </g>
          <g
             style="fill:#004879;fill-opacity:1"
             transform="translate(33.4436,745.3742)"
             id="g4671">
            <path
               inkscape:connector-curvature="0"
               id="path4673"
               style="fill:#004879;fill-opacity:1;fill-rule:nonzero;stroke:none"
               d="m 0,0 c -1.504,-0.298 -2.351,-0.413 -3.839,-0.413 -2.208,0 -3.962,1.096 -3.867,3.106 0.068,1.338 1.654,4.163 5.683,4.163 1.267,0 2.259,-0.224 3.593,-0.984 L 2.155,9.156 C 0.342,9.841 -0.859,9.944 -2.415,9.927 -7.694,9.87 -12.769,7.469 -13.397,2.587 c -0.64,-4.96 5.419,-6.208 8.109,-6.196 1.553,0.004 3.168,0.068 4.675,0.224 L 0,0 Z" />
          </g>
        </g>
      </g>
      <g
         style="fill:#004879;fill-opacity:1"
         transform="matrix(4.3243504,0,0,-4.3243504,243.39161,454.87614)"
         id="g4683">
        <path
           inkscape:connector-curvature="0"
           id="path4685"
           style="fill:#004879;fill-opacity:1;fill-rule:nonzero;stroke:none"
           d="M 0,0 0.332,1.925 5.167,2.977 4.652,0 7.019,0 6.57,-1.905 4.273,-1.899 2.878,-9.503 c 0,0 -4.654,0.03 -4.671,0 l 1.39,7.585 -1.758,0 L -1.804,0 0,0 Z" />
      </g>
      <g
         style="fill:#004879;fill-opacity:1"
         transform="matrix(4.3243504,0,0,-4.3243504,345.19505,495.97259)"
         id="g4687">
        <path
           inkscape:connector-curvature="0"
           id="path4689"
           style="fill:#004879;fill-opacity:1;fill-rule:nonzero;stroke:none"
           d="M 0,0 -4.708,-0.007 -2.34,13.185 2.246,13.056 0,0 Z" />
      </g>
      <g
         style="fill:#004879;fill-opacity:1"
         transform="matrix(4.3243504,0,0,-4.3243504,142.31511,510.11841)"
         id="g4691">
        <path
           inkscape:connector-curvature="0"
           id="path4693"
           style="fill:#004879;fill-opacity:1;fill-rule:nonzero;stroke:none"
           d="m 0,0 2.25,12.673 4.058,0 -0.314,-1.618 c 0.353,0.483 0.915,0.88 1.692,1.203 0.783,0.32 1.664,0.558 2.622,0.558 1.059,0 1.712,-0.057 2.505,-0.467 0.789,-0.414 1.338,-1.013 1.638,-1.795 C 14.755,9.785 14.818,8.92 14.654,7.98 14.379,6.418 13.617,5.186 12.369,4.281 11.13,3.377 10.016,3.139 8.423,3.133 7.859,3.133 7.388,3.192 6.996,3.287 6.613,3.387 6.308,3.509 6.075,3.657 5.854,3.806 5.618,4.013 5.314,4.344 L 4.558,0 0,0 Z M 8.416,10.504 C 7.81,10.504 7.262,10.321 6.774,9.953 6.292,9.585 5.985,9.049 5.86,8.334 5.715,7.509 5.8,6.917 6.127,6.55 6.457,6.187 6.932,6.005 7.556,6.005 c 0.42,0 0.856,0.075 1.176,0.233 0.396,0.209 0.669,0.43 0.905,0.778 0.255,0.367 0.422,0.774 0.508,1.248 0.132,0.746 0.021,1.306 -0.326,1.674 -0.336,0.379 -0.8,0.566 -1.403,0.566" />
      </g>
      <g
         style="fill:#004879;fill-opacity:1"
         transform="matrix(4.3243504,0,0,-4.3243504,506.937,494.88548)"
         id="g4695">
        <path
           inkscape:connector-curvature="0"
           id="path4697"
           style="fill:#004879;fill-opacity:1;fill-rule:nonzero;stroke:none"
           d="m 0,0 0.366,-0.248 c -0.924,-1.883 -2.809,-3.399 -5.021,-3.399 -1.809,0 -3.292,1.204 -3.37,3.466 -0.146,4.052 3.651,7.818 6.76,7.818 1.334,0 2.571,-0.583 2.626,-2.019 C 1.475,2.395 -3.05,1.409 -6.032,1.342 -6.129,1.006 -6.165,0.667 -6.147,0.152 c 0.048,-1.336 0.858,-2.461 2.529,-2.461 1.444,0 2.888,1.163 3.618,2.309 m -0.406,5.82 c -0.026,0.763 -0.409,1.275 -1.196,1.275 -1.896,0 -3.912,-3.714 -4.26,-5.211 3.111,0 5.532,1.852 5.456,3.936" />
      </g>
      <g
         style="fill:#004879;fill-opacity:1"
         transform="matrix(4.3243504,0,0,-4.3243504,426.75057,469.25634)"
         id="g4699">
        <path
           inkscape:connector-curvature="0"
           id="path4701"
           style="fill:#004879;fill-opacity:1;fill-rule:nonzero;stroke:none"
           d="m 0,0 c 0.321,0.043 0.838,0.099 1.061,0.099 0.34,0 0.66,-0.064 0.676,-0.401 0.006,-0.2 -0.355,-1.635 -0.431,-1.968 L 0.585,-5.449 C 0.295,-6.75 -0.021,-8.112 -0.301,-9.188 l 1.852,0 1.041,5.036 c 3.177,3.308 4.399,4.387 5.149,4.387 0.337,0 0.57,-0.177 0.586,-0.581 C 8.346,-0.928 7.985,-2.25 7.859,-2.629 L 6.797,-6.302 c -0.242,-0.826 -0.42,-1.57 -0.404,-2.102 0.033,-0.807 0.52,-1.165 1.244,-1.165 1.354,0 2.335,1.411 3.195,2.797 l -0.252,0.454 c -0.347,-0.557 -1.15,-1.773 -1.783,-1.773 -0.201,0 -0.389,0.133 -0.396,0.469 -0.019,0.43 0.163,1.071 0.287,1.497 l 1.18,4.303 c 0.316,1.185 0.469,1.948 0.461,2.354 -0.03,0.803 -0.499,1.179 -1.218,1.179 -1.218,0 -2.837,-0.89 -6.262,-4.833 l -0.05,0 0.432,1.924 C 3.465,-0.146 3.694,0.952 3.917,1.711 2.732,1.284 1.034,0.806 -0.016,0.603 L 0,0 Z" />
      </g>
    </g>
  </g>
</svg>
