<svg id="svg30260" xmlns="http://www.w3.org/2000/svg" viewBox="0 0 307.5 51.8"><style>.st0{fill:#084168;} .st1{fill:none;stroke:#084168;stroke-width:0.877;}</style><g id="layer1"><path id="path30096_1_" class="st0" d="M158.24 48.603V14.803h12.7v-11.5h-40.2v11.5h12.8v33.8"/><path id="path30080" class="st0" d="M24.04 49.603c-16.3-.7-22.5-10.8-22.5-24.6 0-14.7 8.7-24.7 22-24.1 13.2.6 20.8 8.1 22.3 19.5h-13.8c-.7-4-4.9-7.4-8.6-7.4-6.3 0-7.8 6.5-7.8 12.6 0 6 2.1 12.4 8.2 12.4 3.9 0 7.9-2.8 8.3-7.1l13.7.1c0 11.6-10.6 19.1-21.8 18.6"/><path id="path30076" class="st0" d="M47.44 48.203l.4-45h35.8l-.1 10.2h-21.7v7.2l18.3-.1v10.1l-18.4.1.1 7.4h21.7v10.5l-36.1-.4z"/><path id="path30092" class="st0" d="M113.94 48.403l-13.8-23.8-.1 24-13.5-.2.3-45.1 13.3-.1 15.6 24.2-.3-24.2 13.8.1v45.3l-15.3-.2z"/><path id="path30112" class="st0" d="M172.54 48.403l.4-45h35.8l-.1 10.2h-21.7l.1 7.2 18.3-.1v10.1l-18.4.1.1 7.4h21.7v10.5l-36.2-.4z"/><path id="path30116" class="st0" d="M240.24 48.803l-15.9-23.8-.2 23.8h-13.1v-45.3h14.5l14.6 24.9v-24.9h13.4v45.3h-13.3z"/><path id="path30064" class="st0" d="M291.94 38.803h-21.7l-.1-7.4 18.4-.1v-10l-18.3.1v-7.2h21.7l.1-10.2h-35.8l-.4 45 36.3.4"/><path id="path30164" class="st1" d="M304.84 8.903c0 2.7-2.2 4.8-4.8 4.8-2.7 0-4.8-2.2-4.8-4.8s2.2-4.8 4.8-4.8c2.7 0 4.8 2.1 4.8 4.8z"/><path id="path30160" class="st0" d="M297.54 12.003v-6.4h2.8c.6 0 1 .1 1.3.2s.5.3.7.6c.2.3.3.6.3 1 0 .5-.1.8-.4 1.1-.3.3-.7.5-1.4.6.2.1.4.2.5.3.2.2.5.5.7.9l1.1 1.7h-1.1l-.8-1.3c-.2-.4-.5-.7-.6-.9l-.4-.4c-.1-.1-.3-.1-.4-.2h-1.5v2.8h-.8zm.8-3.6h1.8c.4 0 .7 0 .9-.1.2-.1.4-.2.5-.4.1-.2.2-.4.2-.6 0-.3-.1-.5-.3-.7-.2-.2-.6-.3-1-.3h-2v2.1"/></g></svg>