<svg xmlns="http://www.w3.org/2000/svg" width="581.99548" height="263.11243"><g fill="#e51636"><path d="M557.99 150.776c-3.167 0-5.74-2.73-5.74-6.087 0-3.368 2.573-6.08 5.74-6.08 3.172 0 5.744 2.712 5.744 6.08 0 3.355-2.572 6.086-5.745 6.086m0-13.644c-3.935 0-7.137 3.37-7.137 7.557 0 4.175 3.202 7.574 7.136 7.574 3.944 0 7.154-3.4 7.154-7.575 0-4.19-3.21-7.558-7.155-7.558"/><path d="M556.79 145.89h.452l.45.022c.315.023.562.05.713.13.27.102.487.304.582.57.073.184.115.497.115.96.023.474.068.84.143 1.084h1.99l-.073-.218c-.02-.076-.047-.148-.047-.232 0-.072-.022-.14-.022-.226v-.694c0-.82-.216-1.396-.7-1.752-.26-.223-.643-.36-1.14-.47.552-.052 1.016-.24 1.39-.527.385-.286.565-.776.565-1.428 0-.873-.36-1.494-1.074-1.873-.41-.223-.926-.372-1.58-.41-.1 0-.647 0-1.63-.012h-2.23v7.84h2.095v-2.765zm1.954-1.704c-.265.193-.66.295-1.15.295h-.805v-2.29h.502c.525 0 .922.047 1.216.16.43.184.64.468.64.9 0 .443-.124.74-.404.936M276.69 178.387c4.737 0 5.863 4.74 5.64 7.394-.938 10.957-15.762 19.868-19.517 20.31 2.01-22.652 8.646-27.444 13.877-27.703m-147.718 2.418c-2.993 4.56-6.77 9.59-11.404 15.174.248-2.295.493-4.474.76-6.574 3.72-29.86 9.22-39.886 16.376-38.62 2.33.492 3.284 3.02 3.343 5.068.525 6.495-2.222 14.492-9.075 24.95m405.13 27.836c-3.624-5.474-6.95-11.343-9.82-17.29-4.802 6.816-10.137 13.67-15.625 20.19 7.658-.195 16.428-.98 25.445-2.9m-7.412-44.48c2.994-5.684 4.88-10.634 5.123-14.313.27-2.187-.098-5.966-3.19-5.966-5.348 0-5.348 8.632-1.933 20.28m-94.14 36.046c13.02-15.19 19.678-37.97 18.142-47.31-.335-1.957-1.072-3.46-3-3.223-6.08.78-20.26 28.31-15.143 50.533m-75.087 19.797c-5.126-1.657-9.385-4.568-11.884-7.698-.187.153-.358.287-.547.423-.02.238-.07.485-.138.72-.135 19.09 6.365 36.742 13.572 35.894 7.593-1.33 4.01-17.7-1.004-29.34m-11.41-23.293c14.795-14.73 26.316-35.71 26.24-46.944 0-2.162-.48-4.066-2.518-4.066-4.627 0-19.725 15.49-23.72 51.01m-43.17 14.58c-5.945.544-7.255 14.115-19.12 14.767-8.098.45-11.81-9.686-11.81-9.686s22.918-10.597 22.75-33.484c-.37-6.56-3.63-17.062-15.755-17.062-5.237 0-11.035 3.39-14.475 7.128 1.17-6.19 2.272-14.14 2.79-24.945.34-7.03-4.57-7.71-6.473-7.604-1.414.072-5.53 1.157-6.088 7.517-1.875 21.212-2.16 24.362-3.856 37.856-3.11 24.784-20.33 33.403-31.544 32.75-4.77-.282-12.236-2.874-12.236-15.98 0-14.062 8.802-24.47 13.475-23.832 3.29.446 4.987 3.923 2.07 8.912-2.363 4.136-4.836 9.893 1.256 12.26 7.234 2.512 12.584-8.14 12.78-18.008 0-7.69-4.75-16.668-16.4-17.25-12.26-.613-26.905 16.34-26.905 39.132 0 1.9.13 3.678.37 5.37-.886 5.152-5.22 10.433-9.537 10.433-4.69 0-8.645-7.05-8.15-16.044.524-9.278 3.317-15.454 4.495-19.148 2.424-7.673-.45-9.222-3.863-9.887-2.682-.51-6.942.197-9.185 7.826-2.037 6.923-4.688 16.38-6.996 23.338-1.435 4.324-3.266 9.258-5.678 12.632-2.12 2.413-4.412 4.002-6.558 4.002-7.576.072-1.157-15.51-1.157-26.193-.074-3.022-2.343-8.534-9.888-7.006 8.353-12.644 12.578-23.46 12.314-34.514-.505-12.135-9.012-15.66-15.435-15.533-17.205.37-26.205 20.312-29.473 66.94-15.503 15.464-34.388 24.8-52.4 23.264-25.474-2.176-38.604-28.547-36.903-60.168 2.393-44.368 35.544-97.896 67.146-94.608 11.077 1.16 18.716 11.49 17.537 33.878-1.376 25.955-19.08 63.806-37.775 62.695-8.63-.512-11.326-9.848-10.668-18.106 1.424-17.88 10.013-22.786 10.587-30.036.335-4.263-3.798-6.125-6.828-5.11-5.203 1.756-15.566 15.382-16.83 34.764-1.543 23.68 13.225 31.07 21.98 31.586 25.9 1.538 51.176-36.73 53.304-76.93 1.367-26.018-9.353-42.817-29.648-45.124C44.646 57.606 3.19 112.285 1.072 169.56c-1.273 34.244 14.374 70.09 50.866 72.816 17.433 1.184 35.676-6.076 51.636-19.1-.03 2.917 0 5.513-.008 7.463.145 4.796 1.772 8.936 6.765 8.776 4.765-.175 6.02-3.815 5.908-8.18-.06-2.535-.043-4.995.013-7.387 1.044-20.856 10.892-23.873 14.878-23.128 5.497 1.222 1.116 6.5 1.664 21.467.388 10.724 8.69 13.584 12.503 13.584 9.017 0 16.847-6.882 21.434-17.133l.16-.12c3.982 10.506 10.738 14.27 16.132 14.27 6.326 0 12.315-4.886 16.058-10.307 5.12 6.758 12.653 9.735 18.275 10.01 11.4.548 21.085-4.944 28.36-12.315-.846 5.8-1.868 13.597-1.868 14.867 0 3.445 1.527 5.88 4.748 6.257 5.303.615 9.174-3.13 10.83-21.513 0 0 7.493 18.146 24.13 18.146 16.675 0 23.887-16.872 23.887-22.02 0-1.493-.533-5.104-4.558-4.725m-160.267-97.094c0-5.387-13.95-15.59-23.8-16.546.115 2.91.093 5.9-.07 9.01-.386 7.345-1.44 14.76-3.072 22.037 18.103-13.267 26.942-9.622 26.942-14.5m428.28 123.9c-9.818-.533-19.995-8.14-29.05-18.992-15.994 3.854-32.387 4.616-43.815 4.524-9.483 10.305-18.557 18.89-25.042 23.77 0 0-8.738 6.975-12.98 1.052-2.48-3.976-1.217-8.26 5.6-12.813 4.255-2.858 9.603-7.46 15.39-13.14-9.78-2.82-7.373-13.56 2.187-12.323.695.096 3.863.57 8.75.942 9.48-10.435 19.115-22.45 26.547-33.455-3.502-9.654-5.545-18.826-5.545-26.02 0-9.44 5.1-20.13 15.482-20.13 10.05 0 15.193 8.85 15.193 17.995 0 7.78-4.493 18.305-11.346 29.655 3.927 8.856 9.007 18.05 14.717 25.914 6.156-2.12 12.22-4.907 17.92-8.5 7.68-4.86 14.288 4.5 6.223 10.496-4.848 3.215-10.215 5.827-15.836 7.945 5.915 6.037 12.15 10.096 18.145 10.644 10.263.925 10.685 13.564-2.543 12.433M470.734 209.99c-1.202 4.99-7.396 19.384-23.19 19.76h-.346c-7.326.12-14.495-3.62-19.775-10.502-7.426 4.96-14.58 7.35-19.72 6.53-11.14-1.787-14.475-11.093-15.43-17.163-6.384 7.99-14.873 11.788-23.036 12.574 2.912 6.02 4.385 13.255 4.385 19.91 0 10.39-5.694 21.012-16 21.012-14.404 0-23.037-21.423-24.16-42.283-2.463.966-6.527 1.73-8.414-2.44-2.28-5.01 3.37-9.636 8.14-12.494.834-41.57 18.012-70.977 36.587-70.977 6.245 0 13.767 4.02 13.767 16.1 0 12.656-7.092 28.866-18.528 43.336-1.555 1.964-5.17 5.806-9.19 9.747 16.236 12.17 26.083-.944 30.14-8.997.966-2.157 1.776-4.288 2.393-6.16 2.303-6.94 1.642-5.318 3.81-12.197 3.095-9.803 8.113-9.374 10.383-8.99 8.087 1.424 3.242 10.91 1.263 19.252l-.09.203c-3.04 14.216-1.628 25.5 6.757 27.245 2.678.42 7.297-1.238 12.022-4.795-11.054-30.31 5.826-66.193 23.296-69.65 5.834-1.155 13.504 1.11 15.436 12.033 2.006 11.462-2.022 27.432-10.397 42.637-1.89 3.45-7.344 11.21-13.805 17.106.038.057.066.113.062.122 4.896 6.807 11.09 6.642 11.09 6.642 9.174-.055 11.94-7.497 13.07-10.576 1.296-3.533 3.96-4.703 6.778-3.756 3.066 1.04 3.288 4.372 2.702 6.77m-65.072-63.12c-3.893 0-7.047 3.323-7.047 7.454 0 4.113 3.154 7.45 7.047 7.45 3.886 0 7.026-3.337 7.026-7.45 0-4.13-3.14-7.454-7.026-7.454m79.29 46.813c8.982 0 12.465-3.715 12.465-7.535 0-4.905-5.555-7.27-12.457-7.2-7.06.076-12.08 2.844-12.08 7.265 0 3.603 3.09 7.47 12.072 7.47m-171.004.03c9.01 0 12.524-3.735 12.524-7.565 0-4.93-5.58-7.297-12.524-7.228-7.088.08-12.12 2.86-12.12 7.293 0 3.624 3.11 7.5 12.12 7.5m-133.693-39.397c-4.097 0-7.41 3.507-7.41 7.85 0 4.324 3.313 7.83 7.41 7.83 4.082 0 7.403-3.506 7.403-7.83 0-4.343-3.32-7.85-7.403-7.85M25.325 45.138c-3.365 4.193-2.32 11.003 3.788 16.524 6.104 5.538 14.582 7.332 17.96 3.144 3.376-4.19.366-12.787-5.736-18.31-6.106-5.535-12.62-5.546-16.012-1.36m24.16-29.96c-6.56 3.188-8.892 12.68-4.06 23.843C50.244 50.184 60.1 58.09 66.66 54.92c6.567-3.19 7.355-16.276 2.528-27.445C64.36 16.324 56.048 12 49.486 15.177m49.98-13.853c-8.72-2.02-17.65 5.496-20.67 20.255-3.037 14.75 1.19 30.26 9.912 32.26 8.714 2.01 18.647-10.234 21.667-24.99 3.03-14.755-2.185-25.53-10.908-27.526m62.977 23.993c-6.657-9.48-21.066-10.06-35.624 1.402-14.557 11.464-22.86 29.917-16.203 39.422 6.657 9.482 25.748 6.412 40.317-5.055 14.55-11.466 18.163-26.266 11.51-35.77M92.238 98.81c-.164 7.702-9.033 17.102-13.268 9.862-2.31-5.542 3.495-15.627 8.868-15.798 4.332 0 4.435 4.096 4.4 5.935"/></g></svg>