<svg id="Layer_1" xmlns="http://www.w3.org/2000/svg" viewBox="0 0 389.3 75.4"><style>.st0{fill:#4767ab}.st1{fill:none}</style><path class="st0" d="M30.5 11.8c-4.6 0-5.9 2-5.9 6.5v7.4h12.2l-1.2 12h-11v36.5H9.9V37.8H0v-12h9.9v-7.2C9.9 6.4 14.8 0 28.4 0c3 0 6.4.2 8.6.5v11.3h-6.5zm7.3 36.7c0-13.5 6.4-23.7 19.9-23.7 7.3 0 11.8 3.8 14 8.5v-7.4h14.1v48.5H71.6v-7.3c-2 4.7-6.6 8.4-14 8.4-13.4 0-19.9-10.2-19.9-23.7v-3.3zm14.7 3.2c0 7.2 2.6 12 9.5 12 6 0 9.1-4.4 9.1-11.3v-4.9c0-6.9-3.1-11.3-9.1-11.3-6.8 0-9.5 4.8-9.5 12v3.5zm63.7-26.9c5.7 0 11.1 1.2 14.1 3.3L127 38.4c-2.2-1.1-5.9-2.2-9.8-2.2-7.9 0-11.4 4.6-11.4 12.4v2.9c0 7.8 3.5 12.4 11.4 12.4 3.9 0 7.5-1.1 9.8-2.2l3.3 10.4c-3 2-8.4 3.3-14.1 3.3-17.2-.1-25-9.4-25-24.3v-2.2c0-14.9 7.8-24.1 25-24.1zm16 27.1v-4.3c0-13.8 7.8-22.8 23.8-22.8 15.1 0 21.7 9.2 21.7 22.6v7.7h-30.9c.3 6.6 3.3 9.6 11.4 9.6 5.5 0 11.3-1.1 15.6-3l2.6 10.1c-3.9 2-11.8 3.6-18.8 3.6-18.5 0-25.4-9.3-25.4-23.5zm14.7-6.4h17.7v-1.2c0-5.3-2.1-9.5-8.6-9.5-6.6 0-9.1 4.2-9.1 10.7zm85.2 6c0 13.5-6.5 23.7-20 23.7-7.3 0-12.4-3.7-14.5-8.4v7.3h-13.9V1.4L198.4.1v32.4c2.1-4.3 6.8-7.7 13.7-7.7 13.4 0 20 10.2 20 23.7v3zm-14.6-3.3c0-6.8-2.6-11.9-9.7-11.9-6 0-9.3 4.3-9.3 11.2v5.1c0 6.9 3.3 11.2 9.3 11.2 7 0 9.7-5.1 9.7-11.9v-3.7zm19.5 3v-2.4c0-14 7.9-24 24.1-24 16.2 0 24.1 10.1 24.1 24v2.4c0 14-7.9 24-24.1 24-16.1.1-24.1-10-24.1-24zm33.6-3.4c0-6.4-2.6-11.5-9.5-11.5-6.8 0-9.5 5.1-9.5 11.5v4.5c0 6.4 2.6 11.5 9.5 11.5 6.8 0 9.5-5.1 9.5-11.5v-4.5zm19.6 3.4v-2.4c0-14 7.9-24 24.1-24 16.2 0 24.1 10.1 24.1 24v2.4c0 14-7.9 24-24.1 24-16.2.1-24.1-10-24.1-24zm33.6-3.4c0-6.4-2.6-11.5-9.5-11.5s-9.5 5.1-9.5 11.5v4.5c0 6.4 2.6 11.5 9.5 11.5s9.5-5.1 9.5-11.5v-4.5zm34.9 1.1l14.5-23.1h15.6l-15.2 23.9 15.8 24.6h-15.6l-15.1-23.7v23.7H344V1.4L358.7.1v48.8z"/><path class="st1" d="M-48.5-48.4h486.3v171.1H-48.5z"/></svg>