<svg xmlns="http://www.w3.org/2000/svg" xmlns:xlink="http://www.w3.org/1999/xlink" viewBox="0 0 316.33 147.58"><defs><style>.cls-1{fill:none;}.cls-2{clip-path:url(#clip-path);}.cls-3{fill-rule:evenodd;}</style><clipPath id="clip-path"><rect class="cls-1" x="173.45" y="82.92" width="62.5" height="62.5"/></clipPath></defs><title>fb-family</title><g id="Layer_4" data-name="Layer 4"><path d="M27.33,11.3c-3.62,0-4.64,1.57-4.64,5.11v5.82h9.6l-.94,9.44H22.69V60.41H11.12V31.76H3.33V22.32h7.79V16.66C11.12,7.06,15,2,25.68,2a56.06,56.06,0,0,1,6.77.39V11.3Zm5.74,28.88c0-10.62,5-18.65,15.66-18.65,5.74,0,9.29,3,11,6.69V22.4h11.1V60.56H59.67V54.82c-1.57,3.7-5.19,6.61-11,6.61C38.11,61.43,33,53.4,33,42.78v-2.6ZM44.64,42.7c0,5.67,2,9.44,7.48,9.44,4.72,0,7.16-3.46,7.16-8.89V39.4c0-5.43-2.44-8.89-7.16-8.89-5.35,0-7.48,3.78-7.48,9.44ZM94.77,21.53c4.49,0,8.73.94,11.1,2.6l-2.6,8.11a18.32,18.32,0,0,0-7.71-1.73c-6.22,0-9,3.62-9,9.76v2.28c0,6.14,2.75,9.76,9,9.76a18.62,18.62,0,0,0,7.71-1.73l2.6,8.18c-2.36,1.57-6.61,2.6-11.1,2.6C81.23,61.27,75.1,54,75.1,42.23V40.5C75.1,28.77,81.23,21.53,94.77,21.53Zm12.59,21.32V39.48c0-10.86,6.14-17.94,18.73-17.94,11.88,0,17.08,7.24,17.08,17.78v6.06H118.85c.24,5.19,2.6,7.55,9,7.55a31.9,31.9,0,0,0,12.28-2.36l2,7.95c-3.07,1.57-9.29,2.83-14.79,2.83-14.56,0-20-7.32-20-18.49Zm11.57-5h13.93v-.94c0-4.17-1.65-7.48-6.77-7.48s-7.16,3.3-7.16,8.42Zm67,4.72c0,10.62-5.11,18.65-15.74,18.65-5.74,0-9.76-2.91-11.41-6.61v5.74H147.88V3.12l11.57-1v25.5c1.65-3.38,5.35-6.06,10.78-6.06,10.54,0,15.74,8,15.74,18.65Zm-11.49-2.6c0-5.35-2-9.36-7.63-9.36-4.72,0-7.32,3.38-7.32,8.81v4c0,5.43,2.6,8.81,7.32,8.81,5.51,0,7.63-4,7.63-9.36Zm15.34,2.36V40.42c0-11,6.22-18.89,19-18.89s19,7.95,19,18.89v1.89c0,11-6.22,18.89-19,18.89s-19-7.87-19-18.89Zm26.44-2.68c0-5-2-9-7.48-9s-7.48,4-7.48,9v3.54c0,5,2,9,7.48,9s7.48-4,7.48-9Zm15.42,2.68V40.42c0-11,6.22-18.89,19-18.89s19,7.95,19,18.89v1.89c0,11-6.22,18.89-19,18.89S231.69,53.32,231.69,42.31Zm26.44-2.68c0-5-2-9-7.48-9s-7.48,4-7.48,9v3.54c0,5,2,9,7.48,9s7.48-4,7.48-9Zm27.46.87L297,22.32h12.28l-12,18.81,12.43,19.36H297.47L285.59,41.84V60.49H274V3.12l11.57-1V40.5Z"/></g><g id="Layer_2" data-name="Layer 2"><path d="M61.63,82.92H6a3.45,3.45,0,0,0-3.45,3.45V142A3.45,3.45,0,0,0,6,145.41H36v-24.2H27.82v-9.43H36v-7c0-8.07,4.93-12.47,12.13-12.47a66.77,66.77,0,0,1,7.28.37v8.44h-5c-3.92,0-4.67,1.86-4.67,4.59v6H55l-1.22,9.43H45.71v24.2H61.63A3.45,3.45,0,0,0,65.08,142V86.37A3.45,3.45,0,0,0,61.63,82.92Z"/></g><g id="Layer_3" data-name="Layer 3"><path d="M120.67,136.21H108.55a28.32,28.32,0,0,1-8.43-1A21.49,21.49,0,0,1,87.23,125a20.84,20.84,0,0,1-2.46-15C86.47,101.93,91.28,96.4,99,93.5a26,26,0,0,1,9.23-1.38h24.91a26.45,26.45,0,0,1,9.23,1.38,21.59,21.59,0,0,1,13.13,12.66,20.5,20.5,0,0,1,1.2,11.61,21.47,21.47,0,0,1-13.22,16.6,23.11,23.11,0,0,1-9.07,1.78c-4.58,0-9.19,0-13.78,0Zm0-14.68c4.28,0,8.57,0,12.85,0a16.62,16.62,0,0,0,3.37-.33,7.24,7.24,0,0,0-1.14-14.27,19.78,19.78,0,0,0-2.21-.1H107.91a12.14,12.14,0,0,0-4,.52,7.2,7.2,0,0,0-1,13.26,10.13,10.13,0,0,0,4.81.93C112,121.53,116.35,121.53,120.65,121.53Z"/></g><g id="Layer_5" data-name="Layer 5"><g class="cls-2"><path d="M204.7,88.55c8.34,0,9.33,0,12.63.18a17.29,17.29,0,0,1,5.8,1.08,10.35,10.35,0,0,1,5.93,5.93,17.29,17.29,0,0,1,1.08,5.8c.15,3.3.18,4.28.18,12.63s0,9.33-.18,12.63a17.29,17.29,0,0,1-1.08,5.8,10.35,10.35,0,0,1-5.93,5.93,17.29,17.29,0,0,1-5.8,1.08c-3.29.15-4.28.18-12.63.18s-9.33,0-12.63-.18a17.29,17.29,0,0,1-5.8-1.08,10.35,10.35,0,0,1-5.93-5.93,17.29,17.29,0,0,1-1.08-5.8c-.15-3.29-.18-4.28-.18-12.63s0-9.33.18-12.63a17.29,17.29,0,0,1,1.08-5.8,10.35,10.35,0,0,1,5.93-5.93,17.29,17.29,0,0,1,5.8-1.08c3.3-.15,4.28-.18,12.63-.18m0-5.63c-8.49,0-9.55,0-12.88.19a22.94,22.94,0,0,0-7.59,1.45,16,16,0,0,0-9.14,9.14,22.93,22.93,0,0,0-1.45,7.59c-.15,3.33-.19,4.4-.19,12.88s0,9.55.19,12.88a22.93,22.93,0,0,0,1.45,7.59,16,16,0,0,0,9.14,9.14,22.94,22.94,0,0,0,7.59,1.45c3.33.15,4.4.19,12.88.19s9.55,0,12.88-.19a22.94,22.94,0,0,0,7.59-1.45,16,16,0,0,0,9.14-9.14,22.93,22.93,0,0,0,1.45-7.59c.15-3.33.19-4.4.19-12.88s0-9.55-.19-12.88a22.93,22.93,0,0,0-1.45-7.59,16,16,0,0,0-9.14-9.14,22.94,22.94,0,0,0-7.59-1.45c-3.33-.15-4.4-.19-12.88-.19"/><path d="M204.7,98.12a16,16,0,1,0,16,16,16,16,0,0,0-16-16m0,26.46a10.42,10.42,0,1,1,10.42-10.42,10.42,10.42,0,0,1-10.42,10.42"/><path d="M225.13,97.49a3.75,3.75,0,1,1-3.75-3.75,3.75,3.75,0,0,1,3.75,3.75"/></g></g><g id="Layer_6" data-name="Layer 6"><path class="cls-3" d="M283.29,82.31a31,31,0,0,0-26.59,47.07L251.1,146l17.19-5.5a31,31,0,1,0,15-58.22Zm0,56.88a25.7,25.7,0,0,1-14.22-4.27l-9.93,3.18,3.23-9.6a25.83,25.83,0,1,1,20.92,10.69Zm14.55-18.79c-.78-.43-4.6-2.49-5.32-2.78s-1.24-.44-1.8.33-2.14,2.5-2.62,3-.95.56-1.73.13a21.64,21.64,0,0,1-6.22-4.17,23.93,23.93,0,0,1-4.2-5.65c-.43-.81,0-1.22.41-1.6s.83-.9,1.24-1.34a5.42,5.42,0,0,0,.84-1.29,1.46,1.46,0,0,0,0-1.39c-.18-.4-1.62-4.36-2.22-6s-1.27-1.37-1.73-1.39-1-.1-1.52-.12a2.91,2.91,0,0,0-2.15.91,8.89,8.89,0,0,0-3,6.51c-.15,3.9,2.55,7.77,2.93,8.31s5.15,9,13.09,12.47,8,2.42,9.43,2.34,4.76-1.74,5.49-3.57a6.62,6.62,0,0,0,.6-3.75C299.14,121,298.62,120.82,297.85,120.4Z"/></g></svg>