<svg id="logo-landscape-icon" xmlns="http://www.w3.org/2000/svg" xmlns:xlink="http://www.w3.org/1999/xlink" viewBox="0 0 347.16 176.25"><defs><style>.cls-1{fill:url(#linear-gradient);}</style><linearGradient id="linear-gradient" x1="47" y1="87.89" x2="300.19" y2="87.89" gradientTransform="matrix(1, 0, 0, -1, 0, 176)" gradientUnits="userSpaceOnUse"><stop offset="0" stop-color="#1799f7"/><stop offset="1" stop-color="#8963ea"/></linearGradient></defs><title>flyio</title><path class="cls-1" d="M300.16,68.9v50.62c0,19.89-12.86,29.3-29.42,29.3-8.22,0-17.75-3.69-20.49-6a2.66,2.66,0,0,1-.6-3.1l4.17-10a2.35,2.35,0,0,1,3.13-1.11l.09,0c2.62,1.55,7.15,4.41,13.34,4.41,6.79,0,11.67-2.62,11.67-11V119.2c-.1.08-.19,0-.27-.21a21.4,21.4,0,0,1-11.64,3.55c-16.08,0-21.08-10.6-21.08-26.2V68.9a2.54,2.54,0,0,1,2.46-2.62h13a2.57,2.57,0,0,1,2.62,2.52s0,.07,0,.1V96.06c0,6.19,1.79,9.53,7.38,9.53,3.59,0,5.73-1.65,6.76-4.21.18-12.83.74-27.83.74-27.83V68.9c0-2.26,1.67-2.62,3-2.62h12.51a2.57,2.57,0,0,1,2.62,2.52s0,.07,0,.1Zm-99.38,52h-13a2.53,2.53,0,0,1-2.38-2.62V82.18h-8.26a2.57,2.57,0,0,1-2.62-2.52s0-.07,0-.1V68.48a2.5,2.5,0,0,1,2.37-2.62h8.51v-3.1c0-17.63,11.2-26.44,25.25-26.44,10.6,0,15.6,3.45,19.65,7.62l1.7-3.8c.83-1.79,1.91-2.62,3.57-2.62H241a2.82,2.82,0,0,1,2.62,2.62v78.14A2.73,2.73,0,0,1,241,120.9H228.18a2.73,2.73,0,0,1-2.62-2.62V61.58c-1.55-3-5-8.1-11.91-8.1-4.76,0-10.12,1.79-10.12,9.53v2.86h9.05a2.57,2.57,0,0,1,2.62,2.52s0,.07,0,.1V79.56a2.64,2.64,0,0,1-2.62,2.62h-9.05v36.09A2.75,2.75,0,0,1,200.78,120.9ZM96.74,139a4,4,0,0,1,.54.16,3.68,3.68,0,0,1,.47.31h0l.15.14.26.24c.39.35.77.71,1.15,1.07q1.06,1,2.07,2.08c.73.77,1.45,1.57,2.13,2.39q.66.8,1.28,1.63c.4.53.78,1.07,1.13,1.63s.62,1,.9,1.53a15,15,0,0,1,.65,1.41,9.39,9.39,0,0,1,.67,2.6v1.68a10.11,10.11,0,0,1-.69,2.89,9.4,9.4,0,0,1-1,1.79,9.58,9.58,0,0,1-1.06,1.28,9.72,9.72,0,0,1-1,.88,10.37,10.37,0,0,1-.87.61c-.24.15-.49.3-.75.43A13.21,13.21,0,0,1,98,165.17l-.78.06h-.86a15.85,15.85,0,0,1-1.77-.11,13.86,13.86,0,0,1-2.88-.65,11.75,11.75,0,0,1-2.3-1.07,10.25,10.25,0,0,1-2.11-1.7,9.39,9.39,0,0,1-1.89-2.93,10.09,10.09,0,0,1-.68-2.75,4.49,4.49,0,0,0-.06-.89,2.8,2.8,0,0,1,0-.71,7.87,7.87,0,0,1,.19-1.29,10.43,10.43,0,0,1,.42-1.37,14.11,14.11,0,0,1,.59-1.33c.27-.52.56-1,.87-1.54a18,18,0,0,1,1.06-1.57c.57-.79,1.18-1.54,1.81-2.29s1.35-1.53,2.06-2.27,1.27-1.3,1.93-1.93l.83-.78.65-.58h0a2.62,2.62,0,0,1,1-.47Zm.89-128,1.37.05h.59l3.6.29,5,.69.36.08,4.82,1.18,1.36.4,1.54.52,1.88.7,1.46.61,2.26,1.06,1.27.64,2.57,1.49.78.47,3.5,2.53.85.74,2.41,2.18,2.07,2.2.57.63,2.43,3.19.36.57,1.87,3.13.53,1,.92,2.38,1.1,2.71.36,1,1.17,4.22.91,5.71.16,1.78.15,2.55v3.84l-.14,1.13-.8,4.55-.12.55-1.85,5.72-1.72,4.12L139,79.92l-3.92,6.77-2,3-2.44,3.62-1.76,2.39-3.47,4.6-2.36,2.94-3.49,4.21-2.44,2.82-3.79,4.22L111,117.08l-7,7.29-.16.16L100,128.2l-2.08,2-.13.12-.16.15-.21.15-.15.07-.41.14H95.77l-.53-.33-.07-.06-.07-.06-.28-.26L94,129.4l-.06-.06-6.91-6.8-2.14-2.2-5.47-5.82L78.16,113l-6.59-7.64-1.84-2.26-5.81-7.5-.58-.76L58.93,88.4l-1.2-1.91-3.16-5.4-.92-1.67-2.77-5.79-.44-1.13-1.59-4.43-.55-1.88-.45-1.83-.38-2-.3-2.23-.11-1.34L47,56.25v-.43l.06-1.37.57-5.55.13-.72L49,42.65v-.1l.21-.62.88-2.56.27-.64,1.48-3.13,1-1.82,1.38-2.26,1.37-2,1-1.25,1.12-1.34,1.23-1.35,1-1,2.64-2.31,2-1.6,2.25-1.57L68.49,18,72,16.21l5-2.06.25-.1,4.45-1.28,1.74-.38,2.4-.49,1.63-.24L90,11.35l1.67-.15L95,11h2.63Zm-2.85,7.88c-.5.05-1,.12-1.5.22a16.14,16.14,0,0,0-2.19.58,17,17,0,0,0-2.25,1q-.72.37-1.41.81a23.94,23.94,0,0,0-7.91,8.9c-.32.58-.62,1.18-.9,1.79s-.65,1.45-.94,2.19q-.57,1.45-1,2.93c-.38,1.21-.72,2.44-1,3.68-.36,1.56-.66,3.13-.9,4.72-.3,2-.51,4-.64,6.07Q74,53.71,74,55.65c0,1.49,0,3,.09,4.46a66.83,66.83,0,0,0,1.63,10.3A119.2,119.2,0,0,0,79.38,83c1.82,5.2,3.92,10.3,6.17,15.32,2.79,6.21,5.85,12.29,9.1,18.27l.25.45V18.87h-.12Zm12.85.25A47.37,47.37,0,0,1,114.29,21a40.81,40.81,0,0,1,8.79,4.44,34.45,34.45,0,0,1,13.11,16.33,40.69,40.69,0,0,1,2.55,11.32q.13,1.52.16,3a28.26,28.26,0,0,1-.06,2.91,31.55,31.55,0,0,1-1.2,6.24,48.28,48.28,0,0,1-1.73,4.91A64.18,64.18,0,0,1,133.17,76a113,113,0,0,1-7.51,12.25c-3.37,4.85-7,9.5-10.83,14q-6,7.07-12.45,13.71l-.55.57c3-5.68,5.92-11.46,8.55-17.34q2.2-4.91,4.16-9.93c1.43-3.67,2.74-7.39,3.88-11.17.85-2.82,1.61-5.68,2.23-8.56a68.74,68.74,0,0,0,1.2-7.55c.11-1.1.19-2.19.23-3.3s0-2,0-3q0-1.93-.14-3.86a65.47,65.47,0,0,0-2.63-15.3q-.49-1.6-1.1-3.16-.47-1.19-1-2.35a29.45,29.45,0,0,0-8.35-11q-.6-.47-1.23-.89Z"/></svg>