<svg xmlns="http://www.w3.org/2000/svg" id="svg2" x="0px" y="0px" viewBox="0 0 519 271.1"><style>.st0{fill:#F6821F;} .st1{fill:#FFFFFF;}</style><g id="g11"><path id="path107" d="M123.976-.05H395.1v271.126H123.977V-.05z" class="st0"/><path id="path109" d="M373.6 257.826c0-4.375 3.5-7.625 7.75-7.625 4.126 0 7.75 3.25 7.75 7.626s-3.5 7.625-7.75 7.625-7.75-3.25-7.75-7.624m7.626 6.375c3.5 0 6.125-2.75 6.125-6.374s-2.75-6.375-6.124-6.375c-3.5 0-6.25 2.75-6.25 6.376.125 3.625 2.875 6.375 6.25 6.375m-1.5-2h-1.375v-8.75h3.376c2.125 0 3.125.75 3.125 2.5 0 1.626-1 2.25-2.25 2.376l2.5 3.875h-1.624l-2.375-3.874h-1.374v3.875zm1.5-4.874c1.125 0 2.125-.125 2.125-1.375 0-1.124-1-1.25-1.874-1.25h-1.75v2.75h1.5v-.124z" class="st1"/><path id="path111" d="M205.6 136.45c-2.374 5.126-.25 7.876 1.75 9.876l41.5 41.5c2 2 4.75 4.125 9.876 1.625l4.625 4.626c-18.5 15.375-40 9.625-56-6.25-15.874-15.875-21.75-37.5-6.25-56l4.5 4.625zm56.626 49.376c2.375-5.125.375-7.875-1.75-9.875l-41.5-41.5c-2-2-4.75-4.124-9.875-1.624l-4.624-4.625c18.5-15.374 40-9.624 56 6.25 15.875 15.876 21.75 37.5 6.25 56l-4.5-4.624z" class="st1"/><path id="path113" d="M350.476 99.45c-1.125-1.124-2.5-1.124-3.875-.374-3.624 1.875-4.124 1.375-7-1.625l-42-41.874c-3-3-3.5-3.375-1.624-7 .75-1.375.75-2.75-.375-3.875-2.374-2.374-5.124.126-5.374.5l-21.25 21 17.25 31.876-.125.125-33.124-16-20.25 20.25c-1 1-3.375 3.376-.875 5.876 1.876 1.875 4.25-.125 5.25-1 1.5-1.25 2.75-.625 4.626-.125 1.625.376 3.25 1.25 4.875 2l66.25 32.876 2.376-2.375-32.375-59.874 37.126 37.125c3 3 3.5 3.376 1.625 7-.75 1.376-.75 2.75.376 3.876 2.25 2.25 5.125-.125 5.375-.5l22.626-22.625c.25-.124 2.75-2.874.5-5.25" class="st1"/><path id="path115" d="M287.85 141.7l-13.75-13.75-17.624-8.75-.125.126 27 27c8.75 11.25.5 13.25 4 16.75 2.5 2.5 5.626-1 6.5-1.875l9.126-9.124c.875-.875 4.25-4 1.875-6.5-3.75-3.375-5.75 4.875-17-3.875" class="st1"/><path id="path117" d="M244.35 225.45c7.5-7.75 19.25-8.874 31.376 2.25 11.125 10.126 9.75 23.876 2.25 31.376l-2.625-2.625c2.376-3.124 0-5.75-1.75-7.5l-19.124-19.124c-1.75-1.75-4.375-4.125-7.5-1.75l-2.625-2.625z" class="st1"/><path id="path119" d="M261.226 208.7l11.875-11.874 33.626 33.625-11.875 11.876c-.124.125-1.75 1.625-3.124.25-.625-.625-.625-1.5-.25-2.25 1.125-2.125.75-2.25-.875-4L266.977 212.7c-1.625-1.624-1.875-2-4-.874-.75.375-1.625.375-2.25-.25-1.125-1.125.25-2.625.5-2.875m13.875-13.874l10-10 9.126 9.125c.25.25 1 1.126-.375 2.5-.75.75-1.374.5-2.374.126-4.875-2.5-9.375-2.375-13.875.875l-2.5-2.624zm31 31c3.25-4.125 3.5-9.375 1.126-14.125-.375-1-.875-2 0-2.75 1.5-1.374 2.625 0 2.875.25l9 9-10.374 10.376-2.625-2.75zm-16-16c1.376-2.375.5-5-.75-7.125-.5-1-1-2 0-2.874 1.376-1.375 2.75.5 3.126.875l9.75 9.75c.375.376 2.25 1.75.75 3.126-.875 1-1.875.5-2.875 0-2.124-1.25-4.75-2.25-7.124-.75l-2.875-3z" class="st1"/><path id="path121" d="M302.476 167.45c4.25-4.25 7.25-6.374 10.625-7.25 5.376-1.374 9.626.376 13.376 4.126s5.375 8.125 4.125 13.375c-.874 3.376-3 6.25-7.25 10.626l-2.624-2.625c2.125-3.124.5-5.124-1.75-7.374l-6.75-6.75c-2-2-4.25-3.5-7-1.375l-2.75-2.75zm-8 18.126c-1.625-1.625-1.875-2-4-.875-.75.376-1.625.376-2.25-.25-1.25-1.25.125-2.874.25-3l11.875-11.874 28.626 28.625c1.625 1.626 1.875 2 4 .876.75-.375 1.625-.375 2.25.25 1.25 1.25-.125 2.875-.25 3l-12.75 12.625c-.125.126-1.375 1.25-2.75-.124-.625-.625-.75-1.375-.375-2.125 1.126-2.124.5-2-1.124-3.75l-23.5-23.374z" class="st1"/><path id="path123" d="M330.976 142.826c-1.375 2.875-.125 4.375 1 5.5l23.25 23.25c1.125 1.125 2.625 2.25 5.5 1l2.625 2.625c-10.374 8.626-22.5 5.5-31.5-3.5s-12.25-21.124-3.5-31.5l2.626 2.626zm31.875 27.75c1.376-2.875.126-4.375-1-5.5l-23.25-23.25c-1.124-1.125-2.624-2.25-5.5-1l-2.624-2.625c10.375-8.75 22.5-5.5 31.5 3.5s12.25 21.126 3.5 31.5l-2.625-2.624z" class="st1"/><path id="path125" d="M156.476 102.576L166.85 92.2l26.876 26.876c1.625 1.625 1.75 1.875 3.75.875.75-.374 1.5-.374 2.125.25 1.25 1.25-.124 2.75-.25 2.876l-12 12c-.124.125-1.624 1.5-2.874.25-.625-.625-.625-1.375-.25-2.125 1-2 .75-2.124-.875-3.75l-26.874-26.874zm28.125-8.5c.126.125 1.126 1.375-.124 2.625-1.125 1.126-2.5.25-3.5-.5-2.625-1.874-6-4-9.75-3.374l-2.5-2.5 6.125-6.125 9.75 9.876zm-36.124 16.5l6.125-6.125 2.5 2.5c-.624 3.75 1.626 7.126 3.376 9.75.75 1 1.75 2.376.5 3.5-1.25 1.25-2.5.376-2.625.126l-9.874-9.75z" class="st1"/><path id="path127" d="M215.726 97.2c1.5 1.5 1.75 1.876 3.75.876.75-.375 1.5-.375 2.125.25 1.25 1.25-.124 2.75-.25 2.875l-12 12c-.124.126-1.624 1.5-2.874.25-.625-.624-.625-1.374-.25-2.124 1-2 .75-2.125-.875-3.75L183.227 85.45c-1.625-1.5-1.75-1.874-3.75-.874-.75.375-1.5.375-2.125-.25-1.25-1.25.126-2.75.25-2.875l12-12c.126-.124 1.626-1.5 2.876-.25.625.626.625 1.376.25 2.126-1 2-.75 2.125.875 3.75L215.727 97.2zm-4.5-15.75l-3.75 3.75-2.5-2.5 3.75-3.75-9.625-9.624c-1.5-1.625-1.75-1.875-3.75-.875-.75.376-1.5.376-2.124-.25-1.25-1.25.125-2.75.25-2.874l12-12c.125-.125 1.625-1.5 2.875-.25.626.625.626 1.375.25 2.125-1 2-.75 2.126.876 3.75L231.6 81.077c1.5 1.5 1.75 1.875 3.75.875.75-.374 1.5-.374 2.126.25 1.25 1.25-.125 2.75-.25 2.876l-12 12c-.125.125-1.625 1.5-2.875.25-.624-.625-.624-1.375-.25-2.125 1-2 .75-2.124-.874-3.75l-10-10z" class="st1"/><path id="path129" d="M209.6 49.45l11.126-11.124L252.35 69.95l-11.124 11.126c-.125.125-1.625 1.5-2.875.25-.624-.625-.624-1.375-.25-2.125 1-2 .75-2.124-.874-3.75L215.1 53.327c-1.5-1.625-1.75-1.875-3.75-.875-.75.376-1.5.376-2.124-.25-1.125-1 .125-2.5.375-2.75m13-13l9.376-9.374L240.6 35.7c.25.25 1 1-.25 2.376-.75.75-1.374.5-2.25.125-4.5-2.374-8.75-2.25-13.124.876L222.6 36.45zm29.25 29.126c3-3.875 3.25-8.75 1-13.375-.374-.874-.75-1.874 0-2.624 1.376-1.375 2.5 0 2.626.25l8.5 8.5-9.75 9.75-2.375-2.5zm-15.124-15c1.25-2.25.5-4.75-.75-6.625-.5-.874-.875-1.874 0-2.75 1.25-1.25 2.625.376 3 .75l9.125 9.126c.376.375 2.126 1.625.75 3-.874.875-1.874.5-2.75 0-2-1.25-4.5-2.125-6.624-.75l-2.75-2.75z" class="st1"/><path id="path131" d="M233.726 216.2c-1.125-1.124-2.5-1.124-3.875-.374-3.624 1.875-4.124 1.375-7-1.625l-41.874-42c-3-3-3.5-3.374-1.625-7 .75-1.374.75-2.75-.374-3.874-2.375-2.25-5.125.125-5.375.5l-22.624 22.625c-.375.376-2.75 3.126-.5 5.376 1.125 1.125 2.625 1.125 3.875.375 3.626-1.874 4.126-1.374 7 1.626l18.126 18.125-7 7 4.625 4.626 7-7 19.126 19.125c3 3 3.5 3.376 1.625 7-.75 1.376-.75 2.75.376 3.876 2.375 2.25 5.125-.125 5.5-.5l22.625-22.625c.25-.124 2.75-3 .376-5.25" class="st1"/><path id="path133" d="M203.6 246.326c-1.124-1.125-2.5-1.125-3.874-.375-3.625 1.876-4.125 1.376-7-1.624L150.6 202.45c-3-3-3.5-3.374-1.624-7 .75-1.374.75-2.75-.375-3.874-2.374-2.25-5.124.125-5.374.5l-19.25 19.125v9.25h.125c3.626-1.874 4.126-1.374 7 1.626l42 41.875c3 3 3.5 3.376 1.626 7v.126h9.25l19.25-19.375c.125-.25 2.625-3 .375-5.374" class="st1"/><path id="path135" d="M261.35 270.076c-.124.375-.374.625-.5 1h5.25l9.876-9.875-33.625-33.624-11.5 11.5c-.874.875-1.874 2.125-.75 3.375 1.126 1.126 2.126.376 3.376-.124 1.125-.625 2.25.75 2.875 1.375l23.626 23.626c.625.5 2 1.625 1.375 2.75" class="st1"/><path id="path137" d="M352.1 123.076l-2.624-2.625-6.5 6.5 10.5 10.5c.125.126 1.5 1.126 2.75-.124s.375-2.625-.5-3.75c-2-2.875-4.375-6.5-3.625-10.5" class="st1"/><path id="path139" d="M377.476 111.7c1.125.876 2.5 1.75 3.75.5 1.375-1.374.375-2.624.125-2.75l-10.5-10.5-6.5 6.5 2.626 2.626c4.125-.75 7.75 1.625 10.5 3.625" class="st1"/><path id="path141" d="M395.1 136.95c-2 1.126-2.25.75-4-.874l-28.624-28.625-11 11 28.625 28.626c1.626 1.625 2 1.875.876 4-.375.75-.375 1.625.25 2.25 1.25 1.25 2.875-.125 3-.25l10.75-10.75.125-5.375z" class="st1"/><path id="path143" d="M348.85 20.45c-1.624 1.626-.874 3.5.126 5.25 2.375 3.75 3.875 8.376 1.5 12.626l5 5c4.25-2.5 8.875-.875 12.625 1.5 1.75 1 3.5 1.75 5.25.125 2.5-2.5-.874-5-1.5-5.624l-17.25-17.25c-.874-.875-3.374-4.125-5.75-1.625" class="st1"/><path id="path145" d="M298.976 36.2c-.375.25-2.75 3.126-.5 5.376 1.125 1.125 2.5 1.125 3.875.375 3.626-1.874 4.126-1.374 7 1.626l42 41.875c3 3 3.5 3.376 1.626 7-.75 1.376-.75 2.75.375 3.876 2.376 2.375 5.126-.125 5.5-.5L379.977 74.7 320.1 14.827 298.977 36.2z" class="st1"/><path id="path147" d="M395.1 46.2l-9.25-9.25c-.374-.374-2.5-3-5-.374-1.374 1.375-.624 3.25 0 5 4.25 8.5 3.75 17.875-2 25.125l4.626 4.626L395.1 59.7V46.2z" class="st1"/><path id="path149" d="M357.6 9.95l-10-10h-12.5l-11.5 11.5 4.626 4.626c8.125-5.875 16.125-6.125 24.75-1.625 1.625.75 2.75 1.25 4.125-.124 2.376-2.375 1-4 .5-4.375" class="st1"/></g></svg>