<svg id="Layer_1" data-name="Layer 1" xmlns="http://www.w3.org/2000/svg" viewBox="0 0 180 60"><defs><style>.cls-1{fill:#b32317;}.cls-2{fill:#ffc425;}.cls-3{fill:#ce8b3c;}.cls-4{fill:#005695;}.cls-5{fill:#79496a;}.cls-6{fill:#50c7e8;}.cls-7{fill:#817c00;}.cls-8{fill:#939598;}.cls-9{fill:#eb9ac2;}.cls-10{fill:#d6d442;}.cls-11{fill:#cb148d;}</style></defs><title>ingramcommons</title><path class="cls-1" d="M37.26,24.84A19.91,19.91,0,0,0,22.62,18C11.74,18,2.78,27.33,2.78,38A19,19,0,0,0,8.62,51.51c3.64,3.47,8.85,6,14,6S34,54.81,37.26,50.87v3.82a22.68,22.68,0,0,1-14.52,5.44C10.59,60.13,0,50,0,37.8,0,25.42,10.41,15.35,22.79,15.35A21.64,21.64,0,0,1,37.26,21Z"/><polygon class="cls-2" points="42.94 14.48 50.86 32.8 58.82 14.48 63.24 37.54 60.75 37.54 57.95 22.79 57.89 22.79 50.86 38.44 43.86 22.79 43.8 22.79 41 37.54 38.51 37.54 42.94 14.48"/><path class="cls-3" d="M36.62,37.84A11.37,11.37,0,1,1,25.25,26.53,11.31,11.31,0,0,1,36.62,37.84m-20.31,0a8.94,8.94,0,1,0,8.94-9,9,9,0,0,0-8.94,9"/><polygon class="cls-4" points="101.63 23.45 101.52 23.45 86.3 61 71.14 23.45 71.03 23.45 63.56 59.55 60.9 59.55 70.28 14.48 86.3 54.17 102.39 14.48 111.76 59.55 109.1 59.55 101.63 23.45"/><path class="cls-5" d="M176,23.11C174,20,171.21,18,167.1,18a8.2,8.2,0,0,0-8.22,8.33c0,4.57,4.34,6.48,7.87,8.16l8.33,4.34c3.3,2.08,5,4.74,5,8.68,0,7.23-6.6,12.67-13.65,12.67-6.07,0-10.82-3.76-12.84-9.37l2.43-1.1c1.85,4.63,5.26,7.87,10.53,7.87,5.73,0,10.76-4.51,10.76-10.3,0-4.92-5-7-8.79-8.85l-7.87-4.17a8.74,8.74,0,0,1-4.51-7.81c0-6.48,4.63-11.05,11.17-11.05a12.22,12.22,0,0,1,10.64,6.13Z"/><polygon class="cls-6" points="133.49 25.83 150.5 43.66 150.5 26.76 152.93 26.76 152.93 49.55 135.92 31.76 135.92 48.57 133.49 48.57 133.49 25.83"/><path class="cls-7" d="M130.89,25.79a11.37,11.37,0,1,1-11.37-11.31,11.31,11.31,0,0,1,11.37,11.31m-20.31,0a8.94,8.94,0,1,0,8.94-9,9,9,0,0,0-8.94,9"/><polygon class="cls-8" points="7.96 10 6.9 10 6.9 1.51 4.61 1.51 4.61 0.53 10.27 0.53 10.27 1.51 7.96 1.51 7.96 10"/><polygon class="cls-8" points="17.17 4.37 17.17 0.53 18.23 0.53 18.23 10.01 17.17 10.01 17.17 5.35 12.32 5.35 12.32 10.01 11.27 10.01 11.27 0.53 12.32 0.53 12.32 4.37 17.17 4.37"/><polygon class="cls-8" points="20.18 0.53 25.09 0.53 25.09 1.51 21.23 1.51 21.23 4.32 24.98 4.32 24.98 5.3 21.23 5.3 21.23 9.02 25.09 9.02 25.09 10 20.18 10 20.18 0.53"/><polygon class="cls-9" points="31.99 -0.01 35.44 7.94 38.89 -0.01 40.82 10.01 39.73 10.01 38.52 3.59 38.49 3.59 35.44 10.39 32.39 3.59 32.37 3.59 31.15 10.01 30.07 10.01 31.99 -0.01"/><path class="cls-9" d="M45.78,2.54l-1.62,3.8h3.21Zm-2,4.78L42.59,10H41.43L45.81.07,50.07,10H48.9L47.78,7.31Z"/><path class="cls-9" d="M52.08,4.91h.33c1.19,0,2.4-.23,2.4-1.7s-1.14-1.71-2.41-1.71h-.31Zm0,5.09H51V.53h1.37c1.8,0,3.47.48,3.47,2.61a2.48,2.48,0,0,1-2.38,2.61l3,4.25h-1.3L52.34,5.84h-.26Z"/><polygon class="cls-9" points="60 10 58.94 10 58.94 1.51 56.65 1.51 56.65 0.53 62.31 0.53 62.31 1.51 60 1.51 60 10"/><polygon class="cls-9" points="69.21 4.37 69.21 0.53 70.27 0.53 70.27 10.01 69.21 10.01 69.21 5.35 64.36 5.35 64.36 10.01 63.31 10.01 63.31 0.53 64.36 0.53 64.36 4.37 69.21 4.37"/><path class="cls-9" d="M75.6,2.54,74,6.33h3.21Zm-2,4.78L72.4,10H71.25L75.62.07,79.88,10H78.71L77.6,7.31Z"/><path class="cls-10" d="M85.84,4.91h.33c1.19,0,2.4-.23,2.4-1.7s-1.14-1.71-2.41-1.71h-.32Zm0,5.09H84.78V.53h1.37c1.8,0,3.47.48,3.47,2.61a2.48,2.48,0,0,1-2.38,2.61l3,4.25H89L86.1,5.84h-.26Z"/><rect class="cls-10" x="91.4" y="0.53" width="1.06" height="9.48"/><polygon class="cls-10" points="97.17 7.75 99.88 0.53 101.02 0.53 97.17 10.57 93.33 0.53 94.47 0.53 97.17 7.75"/><polygon class="cls-10" points="101.9 0.53 106.82 0.53 106.82 1.51 102.96 1.51 102.96 4.32 106.7 4.32 106.7 5.3 102.96 5.3 102.96 9.02 106.82 9.02 106.82 10 101.9 10 101.9 0.53"/><path class="cls-10" d="M109.37,4.91h.33c1.19,0,2.4-.23,2.4-1.7S111,1.51,109.68,1.51h-.32Zm0,5.09h-1.06V.53h1.37c1.8,0,3.47.48,3.47,2.61a2.48,2.48,0,0,1-2.38,2.61l3,4.25h-1.3l-2.87-4.16h-.26Z"/><path class="cls-10" d="M119,2.37a1.74,1.74,0,0,0-1.63-1,1.5,1.5,0,0,0-1.57,1.47c0,.82.84,1.19,1.48,1.48l.63.28c1.23.54,2.28,1.16,2.28,2.66a3,3,0,0,1-5.93.48l1-.29a2,2,0,0,0,1.9,1.76,1.91,1.91,0,0,0,1.95-1.85c0-1.11-.87-1.48-1.75-1.88l-.58-.25c-1.11-.5-2.06-1.07-2.06-2.43A2.49,2.49,0,0,1,117.42.36a2.72,2.72,0,0,1,2.45,1.47Z"/><rect class="cls-11" x="125.65" y="0.53" width="1.05" height="9.48"/><polygon class="cls-11" points="128.65 0.12 136.04 7.87 136.04 0.53 137.1 0.53 137.1 10.43 129.71 2.7 129.71 10 128.65 10 128.65 0.12"/><path class="cls-11" d="M147.89,5.24a4.51,4.51,0,0,1-1,3.34,4.69,4.69,0,0,1-3.51,1.58,4.9,4.9,0,1,1,4.07-7.76l-.77.72a3.86,3.86,0,0,0-3.26-1.79,3.93,3.93,0,0,0-3.87,4A3.82,3.82,0,0,0,140.69,8a4,4,0,0,0,2.69,1.21,3.25,3.25,0,0,0,3.38-3h-2.82v-1Z"/><path class="cls-11" d="M150.38,4.91h.33c1.19,0,2.4-.23,2.4-1.7S152,1.51,150.69,1.51h-.31Zm0,5.09h-1.06V.53h1.37c1.8,0,3.47.48,3.47,2.61a2.48,2.48,0,0,1-2.38,2.61l3,4.25h-1.29l-2.87-4.16h-.26Z"/><path class="cls-11" d="M159.81,2.54l-1.62,3.8h3.21Zm-2,4.78L156.62,10h-1.16L159.84.07,164.1,10h-1.17l-1.12-2.69Z"/><polygon class="cls-11" points="166.63 -0.01 170.08 7.94 173.53 -0.01 175.46 10.01 174.38 10.01 173.16 3.59 173.13 3.59 170.08 10.39 167.04 3.59 167.01 3.59 165.79 10.01 164.71 10.01 166.63 -0.01"/></svg>