<svg xmlns="http://www.w3.org/2000/svg" viewBox="0 0 111.71 54.12"><defs><style>.cls-1{fill:#c01a39;}.cls-2{fill:#fff;}</style></defs><title>L3 ForceX</title><g id="svg3680"><g id="meatball"><path id="circle" class="cls-1" d="M27.91.8A26.26,26.26,0,1,0,54.17,27.06,26.23,26.23,0,0,0,27.91.8"/><path id="three" class="cls-2" d="M37.38,23.6h1.2C40,23.6,42,23.2,42,21.33,42,20,40.71,19.2,39,19.2c-2.27,0-3.47,1.07-3.47,3.07H30.58c.13-4.93,3.6-7.46,8.26-7.46,3.87,0,8.13,1.6,8.13,6.13C47,22.8,46,24.8,44,25.2h0a4.82,4.82,0,0,1,3.73,5.07c0,4.93-4.53,6.93-8.93,6.93-5.07,0-9.2-2.53-8.93-8.13H35c-.13,2.53,1.2,3.87,3.87,3.87,1.87,0,3.6-.8,3.6-2.67,0-2.53-1.73-3.07-3.87-3.07a2.63,2.63,0,0,0-1.2.13Z"/><path id="L1" class="cls-2" d="M11.25,6.8h8.53v30H37.65v10.4H11.12a25.6,25.6,0,0,1-3.73-3.87V10.8a27.42,27.42,0,0,1,3.87-4"/></g></g><g id="Layer_2" data-name="Layer 2"><path d="M62.77,21.53h7v1.85H65v2.31h4.19V27.4H65v4.13h-2.2Z"/><path d="M74.38,24.1a3.56,3.56,0,0,1,3.75,3.82,3.75,3.75,0,1,1-7.49,0A3.55,3.55,0,0,1,74.38,24.1Zm0,6.14c1.36,0,1.76-1.15,1.76-2.31s-.41-2.33-1.76-2.33-1.75,1.16-1.75,2.33S73,30.23,74.38,30.23Z"/><path d="M79.42,24.29h1.89v1.34h0a2.54,2.54,0,0,1,2.31-1.54,1.48,1.48,0,0,1,.43.07V26a3.62,3.62,0,0,0-.71-.07c-1.47,0-2,1-2,2.33v3.26h-2Z"/><path d="M89.79,26.84a1.33,1.33,0,0,0-1.47-1.25c-1.28,0-1.7,1.29-1.7,2.35s.41,2.28,1.65,2.28a1.51,1.51,0,0,0,1.58-1.47h1.92a3.24,3.24,0,0,1-3.49,3A3.52,3.52,0,0,1,84.64,28a3.58,3.58,0,0,1,3.7-3.92c1.71,0,3.29.9,3.4,2.75Z"/><path d="M94.54,28.4c.06,1.28.66,1.83,1.78,1.83a1.64,1.64,0,0,0,1.57-.94h1.75a3.24,3.24,0,0,1-3.39,2.44,3.54,3.54,0,0,1-3.7-3.81,3.63,3.63,0,0,1,3.7-3.82c2.47,0,3.67,2.07,3.52,4.3Zm3.24-1.26c-.18-1-.62-1.54-1.58-1.54a1.56,1.56,0,0,0-1.65,1.54Z"/><path d="M103.6,26.3l-3.22-4.76h2.55l2,3.19,2-3.19h2.41l-3.21,4.78,3.49,5.22H107l-2.19-3.46-2.23,3.46h-2.48Z"/></g></svg>