<svg id="Layer_1" xmlns="http://www.w3.org/2000/svg" xmlns:xlink="http://www.w3.org/1999/xlink" x="0px" y="0px" viewBox="0 0 244 41"><style>.st0{clip-path:url(#SVGID_2_);fill:#EA1F24;} .st1{clip-path:url(#SVGID_4_);fill:#EA1F24;} .st2{clip-path:url(#SVGID_6_);fill:#EA1F24;} .st3{fill:#EA1F24;}</style><defs><path id="SVGID_1_" d="M-11.3-5h255v52.8h-255z"/></defs><clipPath id="SVGID_2_"><use xlink:href="#SVGID_1_" overflow="visible"/></clipPath><path class="st0" d="M42 8l3.5-.7-2.9-.6 1.5-1.9-2.7.7.6-2.6-1.9 1.2-.9-3.4-.8 3.9-2.3-1.8.9 2.4-2.1-.4 1.8 2-3.1.6 3.1.7-1.3 1.4 1.9-.1-.8 2.6 2.2-2.2.6 3.5.7-3.5 1.6 1.8-.2-2.2 2.4.8L42 8zm-1.2-.9c0 .8-.7 1.5-1.5 1.5s-1.5-.7-1.5-1.5.7-1.5 1.5-1.5c.9 0 1.5.7 1.5 1.5"/><defs><path id="SVGID_3_" d="M-11.3-5h255v52.8h-255z"/></defs><clipPath id="SVGID_4_"><use xlink:href="#SVGID_3_" overflow="visible"/></clipPath><path class="st1" d="M243.4 15.8c0 .9-.8 1.7-1.7 1.7s-1.7-.8-1.7-1.7c0-.9.8-1.7 1.7-1.7s1.7.8 1.7 1.7m-1.7-2c-1.1 0-2 .9-2 2s.9 2 2 2 2-.9 2-2-.9-2-2-2M21.5 6.4l-2.9 9.9c-.3 1.1-.5 2.3-.6 3.4h-.2L14.3 6.4H4.8L.7 31.8h8.9L10.7 21c.1-1 .2-2 .2-3.1h.3c.1 1.1.3 2.1.6 3.2l3.3 10.7h5.4l3.7-11.4c.3-.8.4-1.7.6-2.5h.2l1.2 13.9h8.9L30.9 6.4h-9.4z"/><g><defs><path id="SVGID_5_" d="M-11.3-5h255v52.8h-255z"/></defs><clipPath id="SVGID_6_"><use xlink:href="#SVGID_5_" overflow="visible"/></clipPath><path class="st2" d="M43.8 20.2V14h-8.7v17.8h8.7v-5.9c1.1 4.1 4.8 6.3 9.5 6.3 1.5 0 3-.4 4.4-.8L58 24c-1 .7-2 1.4-3.4 1.4S52 24.3 52 22.8c0-1.6 1.1-2.7 2.7-2.7 1.2 0 2.3.7 3.2 1.5v-7.2c-1.7-.6-3.6-.9-5.4-.9-4.2 0-7.6 2.8-8.7 6.7m186.5-6.6l-3.1 7-.9 2.7h-.2l-.1-2.7-.9-7h-17.3l-.2 2.6h-.2c-.9-1.9-2.5-3-4.7-3-4.3 0-7.6 3.7-8.8 7.6-.5-4.6-4.3-7.3-9.5-7.3-3.9 0-7.6 1.8-9.8 4.8l.7-4.3-2.9.1.9-6h-8.7l-.9 6-1.8-.1v-.1h-8.5l-.1 2.1h-.2c-1-1.7-2.7-2.5-4.8-2.5-4.2 0-7.3 3.4-8.7 7.2l1.1-7c-2.9-.1-4.6.4-6.5 2.8h-.2l.6-2.4H126l-3 .1.9-6h-8.7l-.9 6-2.1-.1-.9 5.4c-.9-1.8-2.7-2.8-5.1-3.4l-2-.5c-.7-.2-1.8-.3-1.7-1.2.2-1 1.4-1.3 2.2-1.3 2 0 3.6.8 5 1.9l3.5-6.5c-2.2-1.5-4.8-2.2-7.7-2.2C100 6.3 94 9.7 93 15.7c-.6 4 2.1 6.1 5.6 6.7l1.8.3c.8.2 2 .3 1.8 1.4s-1.7 1.5-2.6 1.5c-2.1 0-3.9-1-5.4-2.3l-.5-.5c-.1-6.1-5-9.3-10.8-9.3-3.8 0-7.3 1.4-9.2 4.1v-4.1c-2.9-.1-4.5.4-6 2.8h-.2l.2-2.4H59v17.8h8.7v-6.9c0-2.2 1.1-3.6 3.4-3.6.4 0 .8.1 1.1.2-.1.5-.1 1-.1 1.5 0 5.9 5.2 9.1 10.8 9.1 2.6 0 5.1-.7 7-2 2.6 1.4 6.1 2.3 9.3 2.3 5.5 0 11.5-3 12.4-9 .2-1 .1-1.8 0-2.5l1.5-.1-1.8 11.1h8.7l1.8-11.1 2.9.2-1.7 11h8.7l1.1-6.9c.4-2.2 1.7-3.6 4-3.6 1 0 1.6.4 2.3.9 0 .2-.1.4-.1.6-.7 4.3 1.2 9.2 6.1 9.2 2.5 0 4-1.1 5.9-2.8h.2l-.6 2.4h8.5l1.7-11 1.9-.1-1.8 11.1h8.7l1.8-11.1 1.9.1c-.3.7-.5 1.5-.6 2.3-1 6.1 3.7 9 9.3 9 4.1 0 9.2-2 11-6.3h-8.4c-.3.8-1.1 1.5-2 1.5-1.8 0-1.8-1.6-1.6-3.1h12.3c0 3.9 2.1 7.5 6.3 7.5 2 0 4.5-1 5.7-3h.2l-.5 1.8c-.6 2.2-2.2 3.9-4.6 3.9-2.1 0-4.5-.8-5.9-2.2l-2.9 6 .8.3c2.4.9 4.7 1.4 7.4 1.4 6.2 0 12.4-2.8 13.5-9.8l2.5-15.8 4.8 15.1-6 9.1h9.1l15.4-25.2h-8.8v.4zM83.5 25.5c-1.3 0-2.4-1-2.4-2.5 0-1.4 1-2.6 2.4-2.6s2.4 1.2 2.4 2.6-1.1 2.5-2.4 2.5m68.8-2.8c-.2 1.4-1.1 2.7-2.7 2.7s-2.1-1.2-1.8-2.6c.2-1.3 1.3-2.5 2.6-2.5s2.1 1.1 1.9 2.4m33.6-2.1v.1h-4.3v-.1c.2-1.3 1-2.2 2-2.4h.5c.6 0 1.1.2 1.4.6.3.4.5 1.1.4 1.8m20.8 2c-.2 1.3-1.1 2.5-2.6 2.5s-2.3-1.1-2.1-2.5 1.4-2.6 2.8-2.6c1.5 0 2.1 1.2 1.9 2.6"/></g><g><path class="st3" d="M240.9 14.8h.9c.4 0 .6.2.6.5 0 .4-.2.5-.3.5.1 0 .3.1.3.4 0 .2 0 .4.1.5h-.4v-.3c0-.3-.1-.5-.4-.5h-.5v.8h-.3v-1.9zm.4.9h.5c.2 0 .3-.1.3-.3 0-.2-.2-.3-.3-.3h-.5v.6z"/></g></svg>