<svg id="Layer_1" data-name="Layer 1" xmlns="http://www.w3.org/2000/svg" viewBox="0 0 247 43"><defs><style>.cls-1,.cls-2{fill:#ea1f24;}.cls-1{fill-rule:evenodd;}</style></defs><title>Microstrategy</title><path class="cls-1" d="M43,9l3.51-.68-2.94-.65,1.54-1.86-2.68.71L43,3.91,41.11,5.13l-.86-3.44-.76,3.94L37.2,3.87,38,6.24l-2.15-.39,1.83,2-3.08.61,3.12.68-1.25,1.4,1.93-.14L37.45,13l2.15-2.18.61,3.51.68-3.51,1.65,1.76-.18-2.19,2.37.83Zm-1.2-.94a1.46,1.46,0,1,1-1.46-1.46A1.46,1.46,0,0,1,41.84,8.1"/><path class="cls-2" d="M242.25,15.93h.54c.36,0,.44.18.44.36s-.08.35-.44.36h-.54Zm.46,1c.13,0,.26,0,.35.11a.93.93,0,0,1,.14.52,4.22,4.22,0,0,0,.08.43h.35a3.35,3.35,0,0,1-.15-.7c0-.26-.08-.41-.36-.48h0a.56.56,0,0,0,.44-.57c0-.47-.4-.59-.8-.59h-.84V18h.33V16.94Z"/><path class="cls-2" d="M244.37,16.82a1.69,1.69,0,1,1-1.69-1.7,1.69,1.69,0,0,1,1.69,1.7m-1.69-2a2,2,0,1,0,2,2,2,2,0,0,0-2-2"/><path class="cls-2" d="M22.55,7.45l-2.86,9.94a28.49,28.49,0,0,0-.64,3.36h-.24L15.32,7.45H5.85L1.75,32.78h8.91L11.73,22c.1-1,.17-2,.23-3.06h.3a17.41,17.41,0,0,0,.57,3.16l3.29,10.72h5.38l3.66-11.35a21.72,21.72,0,0,0,.61-2.52h.17l1.24,13.88h8.9L31.92,7.45Z"/><path class="cls-2" d="M44.79,21.15V14.94H36.12V32.78h8.67V26.86c1.14,4.11,4.78,6.32,9.53,6.32a14.38,14.38,0,0,0,4.37-.84L59,25a5.76,5.76,0,0,1-3.36,1.38,2.61,2.61,0,1,1,.17-5.21A5,5,0,0,1,59,22.67V15.44a17.77,17.77,0,0,0-5.44-.91,9,9,0,0,0-8.82,6.61"/><path class="cls-2" d="M231.27,14.63l-3.09,7-.86,2.72h-.24L227,21.61l-.88-7H208.85l-.17,2.55h-.24a4.88,4.88,0,0,0-4.74-3c-4.32,0-7.55,3.72-8.77,7.63-.46-4.6-4.3-7.31-9.46-7.31a12.05,12.05,0,0,0-9.77,4.77l.68-4.26-2.91.13.95-6h-8.74l-.95,6-1.82-.12V15h-8.5l-.06,2.12h-.2a5.1,5.1,0,0,0-4.81-2.52c-4.21,0-7.33,3.42-8.67,7.17l1.11-7c-2.91-.07-4.57.44-6.49,2.79h-.2l.58-2.39H127l-3,.12.95-6h-8.73l-.95,6-2.1-.13-.86,5.42c-.88-1.78-2.74-2.82-5.13-3.38l-2-.47c-.68-.17-1.8-.3-1.65-1.24s1.39-1.34,2.2-1.34a8.24,8.24,0,0,1,5,1.91l3.51-6.48a13.35,13.35,0,0,0-7.68-2.22c-5.51,0-11.52,3.36-12.47,9.37-.63,4,2.06,6.08,5.55,6.72l1.8.34c.81.17,2,.27,1.82,1.41s-1.68,1.51-2.59,1.51a8.22,8.22,0,0,1-5.38-2.32s-.19-.18-.51-.51c-.14-6.08-5-9.28-10.81-9.28-3.83,0-7.26,1.41-9.18,4.11V14.54c-2.92-.07-4.5.44-6,2.79h-.2l.2-2.39H60.18V32.78h8.67V25.93c0-2.22,1.14-3.56,3.39-3.56a3.37,3.37,0,0,1,1.14.2,10.87,10.87,0,0,0-.12,1.52c0,5.91,5.24,9.1,10.82,9.1a12.62,12.62,0,0,0,7-2,20.52,20.52,0,0,0,9.28,2.27c5.48,0,11.46-3,12.42-9a7.3,7.3,0,0,0,0-2.54l1.5-.12-1.76,11.09h8.73L123,21.74l2.91.17-1.74,11h8.67l1.09-6.85a3.86,3.86,0,0,1,6.27-2.71c0,.2-.09.4-.12.6-.68,4.33,1.23,9.24,6.06,9.24,2.45,0,4-1.07,5.88-2.75h.2l-.64,2.35h8.5l1.74-11,1.86-.15-1.76,11.09h8.74l1.75-11.09,1.91.11a11.42,11.42,0,0,0-.64,2.34c-1,6.15,3.71,9,9.32,9,4.1,0,9.22-2,11-6.28h-8.44a2.16,2.16,0,0,1-2,1.48c-1.81,0-1.79-1.61-1.57-3.06H194.4c0,3.87,2.09,7.55,6.31,7.55a6.87,6.87,0,0,0,5.71-3h.24l-.46,1.81a4.79,4.79,0,0,1-4.59,3.93,8.73,8.73,0,0,1-5.9-2.18l-2.87,6,.83.3a19.49,19.49,0,0,0,7.43,1.41c6.21,0,12.37-2.82,13.48-9.78l2.51-15.84,4.78,15.11-6,9.14H225l15.41-25.2ZM84.47,26.48A2.4,2.4,0,0,1,82,24a2.43,2.43,0,1,1,4.84,0,2.4,2.4,0,0,1-2.42,2.45m68.84-2.75a2.85,2.85,0,0,1-2.74,2.69c-1.58,0-2.06-1.21-1.83-2.62a2.79,2.79,0,0,1,2.64-2.45,1.89,1.89,0,0,1,1.94,2.39m33.55-2.14,0,.1h-4.32l0-.14a2.66,2.66,0,0,1,2-2.38,2.34,2.34,0,0,1,.45,0,1.82,1.82,0,0,1,1.41.63,2.25,2.25,0,0,1,.46,1.83m20.87,2a2.66,2.66,0,0,1-2.58,2.49,2,2,0,0,1-2.05-2.52A2.94,2.94,0,0,1,205.88,21c1.44,0,2.05,1.24,1.84,2.59"/></svg>