<svg id="Layer_1" xmlns="http://www.w3.org/2000/svg" x="0px" y="0px" viewBox="0 0 66 33"><style>.st0{fill:#CCCCCC;}</style><path class="st0" d="M24.7 9.4v3H23v-3c0-.7-.4-1.1-.9-1.1s-1 .3-1 1.1v3h-1.7V6.7h1.7v.8c.3-.5.9-.9 1.5-.9.9 0 1.5.3 1.8 1 .5-.9 1.3-1 1.7-1 1.3 0 2.2.9 2.2 2.5v3.2h-1.7v-3c0-.7-.4-1.1-.9-1.1-.6 0-1 .4-1 1.2zM29.4 9.5c0-1.8 1.3-2.9 2.9-2.9 1.6 0 2.9 1.1 2.9 2.9 0 1.8-1.3 2.9-2.9 2.9-1.6 0-2.9-1.1-2.9-2.9zm4.1 0c0-.8-.6-1.3-1.3-1.3-.7 0-1.3.5-1.3 1.3s.6 1.3 1.3 1.3c.8 0 1.3-.5 1.3-1.3zM38.1 12.3h-1.7V6.7h1.7v1.4c.3-1 1-1.5 1.6-1.5.4 0 .7.1 1 .2l-.3 1.5c-.3-.1-.6-.2-.9-.2-1 0-1.4.8-1.4 2.2v2zM46.5 11.3c-.6.8-1.6 1.1-2.6 1.1-1.6 0-2.9-1.2-2.9-2.9 0-1.8 1.3-2.9 2.9-2.9 1.6 0 2.9 1.2 2.9 3v.5h-4.1c.1.6.8.9 1.4.9.5 0 .9-.2 1.2-.5l1.2.8zM45.2 9c-.1-.7-.7-1-1.2-1s-1.1.3-1.2 1h2.4zM16.2 21c1 0 1.9.4 2.4 1.2l-1.4 1c-.2-.4-.6-.6-1.1-.6-.7 0-1.4.5-1.4 1.3s.7 1.3 1.4 1.3c.4 0 .9-.2 1.1-.6l1.4 1c-.5.8-1.4 1.2-2.4 1.2-1.6 0-3-1.2-3-2.9s1.4-2.9 3-2.9zM19.4 23.9c0-1.8 1.3-2.9 2.9-2.9 1.6 0 2.9 1.1 2.9 2.9s-1.3 2.9-2.9 2.9c-1.6 0-2.9-1.1-2.9-2.9zm4.2 0c0-.8-.6-1.3-1.3-1.3-.7 0-1.3.5-1.3 1.3s.6 1.3 1.3 1.3c.7 0 1.3-.5 1.3-1.3zM31.6 23.8v3H30v-3c0-.7-.4-1.1-.9-1.1s-1 .3-1 1.1v3h-1.7v-5.6h1.7v.8c.3-.6.9-.9 1.5-.9.9 0 1.5.3 1.8 1 .5-.9 1.3-1 1.7-1 1.3 0 2.2.9 2.2 2.5v3.2h-1.7v-3c0-.7-.4-1.1-.9-1.1-.6-.1-1.1.3-1.1 1.1zM37.5 18.1c.6 0 1 .4 1 1s-.5 1-1 1-1-.4-1-1 .4-1 1-1zm.8 8.6h-1.7v-5.6h1.7v5.6zM41.5 26.7h-1.7v-5.6h1.7v.8c.3-.6 1-.9 1.6-.9 1.3 0 2.1.8 2.1 2.4v3.3h-1.7v-3c0-.7-.4-1.1-1-1.1s-1 .3-1 1.1v3zM49.2 28c1.3 0 1.6-.9 1.5-2-.3.5-1 .8-1.7.8-1.4 0-2.8-1.1-2.8-2.9 0-1.8 1.4-2.9 2.8-2.9.7 0 1.4.3 1.7.8v-.7h1.6V26c0 2.4-1.2 3.6-3.2 3.6-1.2 0-2.3-.7-2.8-1.7.4-.2.9-.5 1.3-.7.4.4 1.1.8 1.6.8zm.2-5.4c-.7 0-1.3.5-1.3 1.3s.6 1.4 1.3 1.4c.7 0 1.4-.6 1.4-1.4 0-.8-.7-1.3-1.4-1.3z"/></svg>