<svg id="Layer_1" xmlns="http://www.w3.org/2000/svg" x="0px" y="0px" viewBox="0 0 66 13.6"><style>.st0{fill:#CCCCCC;}</style><path class="st0" d="M8 6.8v2.5H6.7V6.7c0-.6-.4-.9-.8-.9s-.8.2-.8.9v2.5H3.7V4.6h1.4v.7c.2-.5.7-.8 1.2-.8.7 0 1.2.3 1.5.8.4-.7 1.1-.8 1.4-.8 1.1 0 1.8.7 1.8 2.1v2.6H9.6V6.8c0-.6-.4-.9-.8-.9-.4-.1-.8.2-.8.9zM11.9 6.9c0-1.5 1.1-2.4 2.4-2.4s2.4.9 2.4 2.4-1.1 2.4-2.4 2.4-2.4-.9-2.4-2.4zm3.5 0c0-.6-.5-1.1-1.1-1.1-.6 0-1 .4-1 1.1 0 .6.5 1.1 1 1.1.6 0 1.1-.4 1.1-1.1zM19.2 9.3h-1.4V4.6h1.4v1.1c.2-.9.8-1.2 1.3-1.2.3 0 .6.1.8.2L21 6c-.3-.1-.5-.1-.7-.1-.8 0-1.2.6-1.2 1.9v1.5zM26.2 8.4c-.5.7-1.3.9-2.1.9-1.3 0-2.4-1-2.4-2.4 0-1.5 1.1-2.4 2.4-2.4 1.3 0 2.4 1 2.4 2.5v.4h-3.4c.1.5.7.8 1.1.8.4 0 .8-.1 1-.4l1 .6zm-1.1-1.9c-.1-.6-.6-.8-1-.8s-.9.2-1 .8h2zM32.1 4.5c.8 0 1.6.4 2 1l-1.1.8c-.2-.3-.5-.5-.9-.5-.6 0-1.2.4-1.2 1.1S31.6 8 32.1 8c.4 0 .7-.2.9-.5l1.1.8c-.4.6-1.2 1-2 1-1.3 0-2.5-1-2.5-2.4 0-1.5 1.2-2.4 2.5-2.4zM34.8 6.9c0-1.5 1.1-2.4 2.4-2.4s2.4.9 2.4 2.4-1.1 2.4-2.4 2.4-2.4-.9-2.4-2.4zm3.5 0c0-.6-.5-1.1-1.1-1.1-.6 0-1 .4-1 1.1 0 .6.5 1.1 1 1.1.6 0 1.1-.4 1.1-1.1zM45 6.8v2.5h-1.4V6.7c0-.6-.4-.9-.8-.9s-.8.2-.8.9v2.5h-1.4V4.6H42v.7c.2-.5.7-.8 1.2-.8.7 0 1.2.3 1.5.8.5-.7 1.1-.8 1.4-.8 1.1 0 1.8.7 1.8 2.1v2.6h-1.4V6.8c0-.6-.4-.9-.8-.9-.3-.1-.7.2-.7.9zM49.9 2c.5 0 .8.3.8.8s-.4.8-.8.8-.9-.3-.9-.7.4-.9.9-.9zm.7 7.3h-1.4V4.6h1.4v4.7zM53.2 9.3h-1.4V4.6h1.4v.7c.2-.5.8-.8 1.3-.8 1 0 1.7.7 1.7 2v2.8h-1.4V6.8c0-.6-.3-.9-.8-.9s-.9.2-.9.9v2.5zM59.7 10.3c1.1 0 1.3-.7 1.3-1.7-.2.4-.8.7-1.4.7-1.2 0-2.3-.9-2.3-2.4s1.1-2.4 2.3-2.4c.6 0 1.2.3 1.4.7v-.6h1.3v4c0 2-1 3-2.6 3-1 0-1.9-.6-2.3-1.4.3-.2.8-.4 1.1-.5.2.3.7.6 1.2.6zm.1-4.5c-.6 0-1.1.4-1.1 1.1 0 .7.5 1.1 1.1 1.1.6 0 1.1-.5 1.1-1.1 0-.7-.5-1.1-1.1-1.1z"/></svg>