<svg id="Layer_1" xmlns="http://www.w3.org/2000/svg" viewBox="0 0 94.5 42.6"><style>.st0{fill:#B61F28;} .st1{fill:none;stroke:#A09E9E;stroke-width:1.5;}</style><g id="Layer_1_1_"><path class="st0" d="M35.8 33.3h-7.3l-5.4-10.5h-2.8v6.5h3v4.1H10.8v-4.1h3.3V13.4h-3.3V9.3h14.9c4.7 0 7.2 3.1 7.2 6.7 0 2.8-1.3 4.7-4.1 6l3.9 7.2h3.1v4.1zm-13-14.4c2.8 0 3.6-1.6 3.6-2.8 0-1-.6-2.7-2.9-2.7h-3.2v5.5h2.5z"/><path d="M61.9 13.3h-2.8V9.2H71v4.1h-2.8l4 12h.1l4-12h-2.6V9.2h10.1v4.1H81l-6.9 20.1h-4.8l-7.4-20.1z"/></g><path id="Layer_2" class="st1" d="M48.3 38.1V5.2"/></svg>