<svg id="Layer_1" data-name="Layer 1" xmlns="http://www.w3.org/2000/svg" viewBox="0 0 820.46 262.49"><defs><style>.cls-1{fill:#e22228;}</style></defs><title>Artboard 2</title><rect class="cls-1" x="528.97" y="56.81" width="46.9" height="28.94" rx="2.14" ry="2.14"/><path class="cls-1" d="M572.93,93.53H491.22a2.93,2.93,0,0,0-2.69,2.07L478,135.75h0l-.54,2.07L464.75,95.18A3.06,3.06,0,0,0,462,93.13H430.15a3.06,3.06,0,0,0-2.76,2.06l-11.95,40.19h0l-.61,2.06-.53-2.08h0l-5.06-19.87L404.19,95.6a2.91,2.91,0,0,0-2.67-2.08H337.29V58.95A2.24,2.24,0,0,0,334.46,57L294.13,69.62c-1.21.4-2.14,1-2.14,2.14V93.53H281.36a2.15,2.15,0,0,0-2.14,2.14v30.63a2.15,2.15,0,0,0,2.14,2.14H292V166c0,26.54,14.37,38.92,41.11,38.92,11,0,21.75-2.4,28.94-6.19V166.55a1.64,1.64,0,0,0-2.27-1.71,27,27,0,0,1-11.5,2.32c-7.18,0-11-3-11-11.18V128.45h23a2.15,2.15,0,0,0,2.14-2.14V100.44l30.24,100.79a3.07,3.07,0,0,0,2.76,2.05h33.43a3.14,3.14,0,0,0,2.8-2L446,156.59l7.28,23.35,6.65,21.3a3.11,3.11,0,0,0,2.78,2h33.63a3.08,3.08,0,0,0,2.77-2.05l30.69-101.08v101a2.15,2.15,0,0,0,2.14,2.14h41a2.15,2.15,0,0,0,2.14-2.14V95.67A2.15,2.15,0,0,0,572.93,93.53Z"/><rect class="cls-1" x="583.75" y="56.81" width="45.3" height="146.52" rx="2.14" ry="2.14"/><rect class="cls-1" x="636.88" y="56.81" width="46.9" height="28.94" rx="2.14" ry="2.14"/><rect class="cls-1" x="637.68" y="93.53" width="45.3" height="109.8" rx="2.14" ry="2.14"/><path class="cls-1" d="M748.7,90.93c-35.92,0-61.47,26.34-61.47,57.07v.4c0,30.73,25.34,56.68,61.07,56.68,35.92,0,61.47-26.34,61.47-57.08v-.4C809.77,116.87,784.42,90.93,748.7,90.93Zm17.56,57.47c0,10.38-7.38,19-17.56,19-10,0-18-8.58-18-19.36v-.4c0-10.38,7.38-19,17.56-19,10,0,18,8.58,18,19.36Z"/><path class="cls-1" d="M130.13,9.69A120.37,120.37,0,1,0,250.5,130.06,120.37,120.37,0,0,0,130.13,9.69Zm0,209a88.65,88.65,0,1,1,88.65-88.65A88.65,88.65,0,0,1,130.13,218.71Z"/><circle class="cls-1" cx="160.11" cy="100.08" r="25.03"/><circle class="cls-1" cx="160.11" cy="160.04" r="25.03"/><circle class="cls-1" cx="100.16" cy="160.04" r="25.03"/><circle class="cls-1" cx="100.16" cy="100.08" r="25.03"/></svg>