<svg xmlns="http://www.w3.org/2000/svg" viewBox="0 0 94.3 31.1"><title>vuse</title><path d="M48.2705.0547v1.1h.4a2.7448,2.7448,0,0,1,1.3.2c.5.5-.1.9-.7,1.7-.9,1.2-.3,1.9.2,1.5a16.9647,16.9647,0,0,1,1.4-1c.7-.3,1.2.6.4,1.6a9.8319,9.8319,0,0,0-1.2,1.5c-.5.7-.2,1.5.6.9,1-.8,1.4.4.3,1.5-1,1.1-1.6,1.8-1.3,2.7.1.3.2.7.3,1v.1h-.7c0-.1-.4-1-.7-1.9-.1-.3-.2-.5-.9-.7a1.0073,1.0073,0,0,1-.3-.1h-.3a.4464.4464,0,0,1-.3.4c-.4.3-.6.4-.8.3-.1,0-.2-.1-.2-.3h0c.2-.3.3-.7.5-1a4.2528,4.2528,0,0,0,.2-1.1h0c.1-.1.2-.2.3-.2.2.1.3.2.5.7a1.69,1.69,0,0,0,.2.5.2151.2151,0,0,0,.2.2,3.9327,3.9327,0,0,1,.6.2h.1v-.1c-.2-.7-.4-1.2-.4-1.2a2.84,2.84,0,0,0-1-1.5,7.5719,7.5719,0,0,0-1.8-.9c-1.4-.8-1.1-1.9-.4-1.9.3,0,1,.3,1.5.4.8.3.9-.7-.2-1.5-1.4-1-1.6-1.5-1.3-2,.2-.2.6-.2,1.1-.2h.4v-1.1h-9.1v1.1h.7c.8.1,1.3.4,1.9,2,.4,1.6,4.8,12.6,5.2,13.8h4.4c.4-1,4.7-12,5.3-13.7.6-1.6,1.3-1.9,2-1.9h.6v-1.1Zm-3.3,10.2c-.6-.2-.8-.4-.9-1v-.4a1.4385,1.4385,0,0,1,.2-.3c.4-.5.7-.5,1.3-.3a4.3311,4.3311,0,0,0,.5.1,4.2528,4.2528,0,0,1-.2,1.1,3.1281,3.1281,0,0,1-.5,1C45.3705,10.3547,45.0705,10.2547,44.97,10.2547Z"/><path d="M.2852,29.7971a1.493,1.493,0,0,0,1,.3.8168.8168,0,0,0,.9-.8c0-1.2-2-.7-2-2.3a1.2716,1.2716,0,0,1,1.4-1.2,1.594,1.594,0,0,1,1.2.4l-.2.4a1.493,1.493,0,0,0-1-.3.8755.8755,0,0,0-.9.8c0,1,2.1.8,2.1,2.2a1.322,1.322,0,0,1-1.5,1.3,2.01,2.01,0,0,1-1.3-.4Z"/><path d="M7.6213,26.5971a1.6763,1.6763,0,0,0-1.2-.3,1.8149,1.8149,0,0,0-1.8,1.9,1.88,1.88,0,0,0,1.8,1.9,2.8426,2.8426,0,0,0,1.2-.4l.2.4a3.2552,3.2552,0,0,1-1.4.4,2.2568,2.2568,0,0,1-2.4-2.4,2.369,2.369,0,0,1,2.4-2.4,2.2959,2.2959,0,0,1,1.4.4Z"/><path d="M9.491,25.8387h.6v2h2.5v-2h.6v4.6h-.6v-2.1h-2.5v2.1h-.6Z"/><path d="M15.117,28.0971a1.8026,1.8026,0,1,1,3.6,0,1.88,1.88,0,0,1-1.8,1.9A1.71,1.71,0,0,1,15.117,28.0971Zm-.6,0a2.3094,2.3094,0,0,0,2.4,2.4,2.4,2.4,0,1,0,0-4.8A2.3107,2.3107,0,0,0,14.517,28.0971Z"/><path d="M21.235,28.0971a1.8026,1.8026,0,1,1,3.6,0,1.88,1.88,0,0,1-1.8,1.9A1.71,1.71,0,0,1,21.235,28.0971Zm-.7,0a2.4,2.4,0,1,0,2.4-2.4A2.369,2.369,0,0,0,20.535,28.0971Z"/><path d="M26.798,30.4387v-4.6h.6v4.1h2v.5Z"/><path d="M32.933,28.0971a1.8026,1.8026,0,1,1,3.6,0,1.88,1.88,0,0,1-1.8,1.9A1.71,1.71,0,0,1,32.933,28.0971Zm-.7,0a2.3094,2.3094,0,0,0,2.4,2.4,2.369,2.369,0,0,0,2.4-2.4,2.3094,2.3094,0,0,0-2.4-2.4A2.369,2.369,0,0,0,32.233,28.0971Z"/><path d="M38.853,25.8387h2.5v.5h-1.9v1.6h1.8v.5h-1.8v2.1h-.6Z"/><path d="M45.1,25.8387h2.4v.5H45.7v1.6h1.8v.5H45.7v1.6h1.9v.5H45.2Z"/><path d="M49.425,25.8971l.5-.2,2.6,3.7h0v-3.6h.6v4.5l-.5.2-2.5-3.8h0v3.7h-.6Z"/><path d="M58.509,28.0971v2.1a4.4325,4.4325,0,0,1-1.5.3,2.2568,2.2568,0,0,1-2.4-2.4,2.369,2.369,0,0,1,2.4-2.4,3.1941,3.1941,0,0,1,1.4.3l-.2.5a2.1326,2.1326,0,0,0-1.2-.3,1.8149,1.8149,0,0,0-1.8,1.9,1.88,1.88,0,0,0,1.8,1.9,2.3882,2.3882,0,0,0,.9-.2v-1.8h.6Z"/><path d="M60.634,25.8387h.6v4.6h-.6Z"/><path d="M63.3,25.8971l.5-.2,2.6,3.7h0v-3.6H67v4.5l-.5.2-2.5-3.8h0v3.7h-.6Z"/><path d="M68.986,25.8387h2.4v.5h-1.8v1.6h1.8v.5h-1.8v1.6h1.9v.5h-2.4Z"/><path d="M73.207,25.8387h2.4v.5h-1.8v1.6h1.8v.5h-1.8v1.6h1.9v.5h-2.4Z"/><path d="M77.931,26.2387h.7a.8709.8709,0,0,1,1,.9c0,.7-.6.9-1.2.9h-.6Zm-.6,4.2h.6v-2h.4c.4,0,.6.3.9.6l1.1,1.5.5-.3-.9-1.2c-.2-.2-.5-.7-.8-.7h0a1.3094,1.3094,0,0,0,1.2-1.3c0-.8-.6-1.2-1.5-1.2h-1.4Z"/><path d="M82.323,25.8387h.6v4.6h-.6Z"/><path d="M84.991,25.8971l.5-.2,2.6,3.7h0v-3.6h.6v4.5l-.5.2-2.5-3.8h0v3.7h-.6Z"/><path d="M94.332,28.0971v2.1a4.4325,4.4325,0,0,1-1.5.3,2.2568,2.2568,0,0,1-2.4-2.4,2.369,2.369,0,0,1,2.4-2.4,3.194,3.194,0,0,1,1.4.3l-.2.5a2.1326,2.1326,0,0,0-1.2-.3,1.8149,1.8149,0,0,0-1.8,1.9,1.88,1.88,0,0,0,1.8,1.9,2.3881,2.3881,0,0,0,.9-.2v-1.8h.6Z"/></svg>