<svg xmlns="http://www.w3.org/2000/svg" viewBox="0 0 94.3 31.1"><title>vuse</title><path d="M48.3-.019v1.1h.4a2.745,2.745,0,0,1,1.3.2c.5.5-.1,1.119-.7,1.919-.9,1.2-.3,1.9.2,1.5a16.965,16.965,0,0,1,1.4-1c.7-.3,1.2.6.4,1.6a9.832,9.832,0,0,0-1.2,1.5c-.5.7-.2,1.5.6.9,1-.8,1.4.4.3,1.5-1,1.1-1.6,1.8-1.3,2.7.1.3.2.7.3,1V13h-.7c0-.1-.4-1-.7-1.9-.1-.3-.2-.5-.9-.7a1.007,1.007,0,0,1-.3-.1h-.3a.446.446,0,0,1-.3.4c-.4.3-.6.4-.8.3-.1,0-.2-.1-.2-.3h0c.2-.3.3-.7.5-1a4.253,4.253,0,0,0,.2-1.1h0c.1-.1.2-.2.3-.2.2.1.3.2.5.7a1.689,1.689,0,0,0,.2.5.215.215,0,0,0,.2.2,3.933,3.933,0,0,1,.6.2h.1V9.9c-.2-.7-.4-1.2-.4-1.2a2.84,2.84,0,0,0-1-1.5,7.572,7.572,0,0,0-1.8-.9c-1.4-.8-1.1-1.9-.4-1.9.3,0,1,.3,1.5.4.8.3.9-.7-.2-1.5-1.4-1-1.6-1.5-1.3-2,.2-.2.6-.2,1.1-.2h.4V0H37.2V1.1h.7c.8.1,1.3.4,1.9,2,.4,1.6,4.8,12.6,5.2,13.8h4.4c.4-1,4.7-12,5.3-13.7.6-1.6,1.3-2.119,2-2.119h.6v-1.1ZM45,10.4c-.6-.2-.8-.4-.9-1V9a1.438,1.438,0,0,1,.2-.3c.4-.5.7-.5,1.3-.3a4.331,4.331,0,0,0,.5.1,4.253,4.253,0,0,1-.2,1.1,3.128,3.128,0,0,1-.5,1C45.4,10.5,45.1,10.4,45,10.4Z"/><path d="M2.942,25.8l-.085.61a2.582,2.582,0,0,0-.908-.2,1.168,1.168,0,0,0-.459.084.7.7,0,0,0-.3.233.589.589,0,0,0-.108.353.567.567,0,0,0,.221.482,6.189,6.189,0,0,0,.78.456,3.137,3.137,0,0,1,.838.584,1.1,1.1,0,0,1,.28.785,1.437,1.437,0,0,1-.206.763,1.35,1.35,0,0,1-.583.518,1.99,1.99,0,0,1-.867.181,3.183,3.183,0,0,1-1.1-.191L.51,29.81a2.258,2.258,0,0,0,.95.255,1.3,1.3,0,0,0,.522-.1.748.748,0,0,0,.474-.724.647.647,0,0,0-.245-.548,4.759,4.759,0,0,0-.776-.44,2.937,2.937,0,0,1-.8-.53,1.051,1.051,0,0,1-.273-.774,1.23,1.23,0,0,1,.729-1.156,1.835,1.835,0,0,1,.8-.166A3.126,3.126,0,0,1,2.942,25.8Z"/><path d="M7.959,25.9l-.057.662a2.134,2.134,0,0,0-.5-.221,1.913,1.913,0,0,0-.511-.062,2.01,2.01,0,0,0-.735.13,1.678,1.678,0,0,0-.966.953,1.965,1.965,0,0,0-.135.739,1.921,1.921,0,0,0,.243.962,1.749,1.749,0,0,0,.67.674,1.9,1.9,0,0,0,.956.243,2.786,2.786,0,0,0,1.035-.217l.053.667a3.391,3.391,0,0,1-.516.129,3.466,3.466,0,0,1-.551.037A3.036,3.036,0,0,1,5.586,30.3a2.195,2.195,0,0,1-.934-.856,2.536,2.536,0,0,1-.337-1.331,2.456,2.456,0,0,1,.321-1.255A2.229,2.229,0,0,1,5.54,26a2.778,2.778,0,0,1,1.317-.308A2.677,2.677,0,0,1,7.959,25.9Z"/><path d="M13.014,25.716v4.842h-.691V28.335H9.98v2.223H9.289V25.716H9.98v2.031h2.343V25.716Z"/><path d="M16.8,25.627a2.4,2.4,0,0,1,1.264.32,2.07,2.07,0,0,1,.81.89,2.943,2.943,0,0,1,.277,1.3,3.173,3.173,0,0,1-.162,1.041,2.212,2.212,0,0,1-.468.8,2.029,2.029,0,0,1-.735.5,2.542,2.542,0,0,1-.964.174,2.393,2.393,0,0,1-1.262-.324,2.107,2.107,0,0,1-.813-.9,2.919,2.919,0,0,1-.278-1.293,3.091,3.091,0,0,1,.156-1,2.315,2.315,0,0,1,.454-.8,2.057,2.057,0,0,1,.739-.526A2.473,2.473,0,0,1,16.8,25.627Zm-.007.546a1.441,1.441,0,0,0-.828.246,1.577,1.577,0,0,0-.56.7,2.509,2.509,0,0,0-.2,1.019,2.644,2.644,0,0,0,.117.794,1.88,1.88,0,0,0,.333.637,1.442,1.442,0,0,0,1.155.544,1.444,1.444,0,0,0,.64-.142,1.5,1.5,0,0,0,.51-.408,1.864,1.864,0,0,0,.332-.614,2.528,2.528,0,0,0,.113-.782,2.729,2.729,0,0,0-.113-.816,1.847,1.847,0,0,0-.332-.63,1.465,1.465,0,0,0-.516-.4A1.544,1.544,0,0,0,16.79,26.173Z"/><path d="M22.657,25.627a2.4,2.4,0,0,1,1.264.32,2.07,2.07,0,0,1,.81.89,2.943,2.943,0,0,1,.277,1.3,3.173,3.173,0,0,1-.162,1.041,2.212,2.212,0,0,1-.468.8,2.029,2.029,0,0,1-.735.5,2.542,2.542,0,0,1-.964.174,2.393,2.393,0,0,1-1.262-.324,2.107,2.107,0,0,1-.813-.9,2.919,2.919,0,0,1-.278-1.293,3.091,3.091,0,0,1,.156-1,2.315,2.315,0,0,1,.454-.8,2.057,2.057,0,0,1,.739-.526A2.473,2.473,0,0,1,22.657,25.627Zm-.007.546a1.441,1.441,0,0,0-.828.246,1.577,1.577,0,0,0-.56.7,2.509,2.509,0,0,0-.2,1.019,2.644,2.644,0,0,0,.117.794,1.88,1.88,0,0,0,.333.637,1.442,1.442,0,0,0,1.155.544,1.444,1.444,0,0,0,.64-.142,1.5,1.5,0,0,0,.51-.408,1.864,1.864,0,0,0,.332-.614,2.528,2.528,0,0,0,.113-.782,2.729,2.729,0,0,0-.113-.816,1.847,1.847,0,0,0-.332-.63,1.465,1.465,0,0,0-.516-.4A1.544,1.544,0,0,0,22.65,26.173Z"/><path d="M27.152,25.716v4.253H29.2v.589H26.462V25.716Z"/><path d="M34.977,25.627a2.4,2.4,0,0,1,1.264.32,2.07,2.07,0,0,1,.81.89,2.943,2.943,0,0,1,.277,1.3,3.173,3.173,0,0,1-.162,1.041,2.212,2.212,0,0,1-.468.8,2.029,2.029,0,0,1-.735.5,2.542,2.542,0,0,1-.964.174,2.393,2.393,0,0,1-1.262-.324,2.107,2.107,0,0,1-.813-.9,2.919,2.919,0,0,1-.278-1.293,3.091,3.091,0,0,1,.156-1,2.315,2.315,0,0,1,.454-.8,2.057,2.057,0,0,1,.739-.526A2.473,2.473,0,0,1,34.977,25.627Zm-.007.546a1.441,1.441,0,0,0-.828.246,1.577,1.577,0,0,0-.56.7,2.509,2.509,0,0,0-.2,1.019,2.644,2.644,0,0,0,.117.794,1.88,1.88,0,0,0,.333.637,1.442,1.442,0,0,0,1.155.544,1.444,1.444,0,0,0,.64-.142,1.5,1.5,0,0,0,.51-.408,1.864,1.864,0,0,0,.332-.614,2.528,2.528,0,0,0,.113-.782,2.729,2.729,0,0,0-.113-.816,1.847,1.847,0,0,0-.332-.63,1.465,1.465,0,0,0-.516-.4A1.544,1.544,0,0,0,34.97,26.173Z"/><path d="M41.351,25.716v.595H39.472v1.443H41.28v.588H39.472v2.216h-.691V25.716Z"/><path d="M47.949,25.716v.595h-2v1.422H47.8v.6H45.946v1.641h2.06v.589h-2.75V25.716Z"/><path d="M53.43,25.716v4.842h-.894l-1.531-2.627q-.4-.7-.548-.994a4.19,4.19,0,0,1-.268-.668q.06.8.061,1.829v2.46h-.691V25.716H50.5l1.648,2.854a8,8,0,0,1,.67,1.386c-.03-.324-.048-.541-.053-.652,0-.189-.009-.376-.013-.56s-.006-.3-.007-.348,0-.164,0-.352V25.716Z"/><path d="M58.846,25.917l-.046.671a2.4,2.4,0,0,0-.582-.238,2.666,2.666,0,0,0-.651-.074,2.156,2.156,0,0,0-1.018.232,1.665,1.665,0,0,0-.686.654,1.866,1.866,0,0,0-.243.949,1.965,1.965,0,0,0,.246.987,1.675,1.675,0,0,0,.7.67A2.183,2.183,0,0,0,57.592,30a2.4,2.4,0,0,0,.655-.1V28.5H57.211v-.588h1.729V30.37a4.4,4.4,0,0,1-.693.172,4.483,4.483,0,0,1-.692.051,3.361,3.361,0,0,1-1.1-.17,2.4,2.4,0,0,1-.851-.5,2.118,2.118,0,0,1-.54-.787A2.753,2.753,0,0,1,54.88,28.1a2.376,2.376,0,0,1,.349-1.3,2.238,2.238,0,0,1,.95-.831,3.1,3.1,0,0,1,1.345-.283A3.66,3.66,0,0,1,58.846,25.917Z"/><path d="M61.357,25.716v4.842h-.691V25.716Z"/><path d="M67.005,25.716v4.842h-.894l-1.531-2.627q-.4-.7-.548-.994a4.19,4.19,0,0,1-.268-.668q.06.8.061,1.829v2.46h-.691V25.716h.942l1.648,2.854a8,8,0,0,1,.67,1.386c-.03-.324-.048-.541-.053-.652,0-.189-.009-.376-.013-.56s-.006-.3-.007-.348,0-.164,0-.352V25.716Z"/><path d="M71.426,25.716v.595h-2v1.422h1.857v.6H69.423v1.641h2.06v.589H68.732V25.716Z"/><path d="M75.73,25.716v.595h-2v1.422h1.857v.6H73.727v1.641h2.06v.589H73.036V25.716Z"/><path d="M77.34,25.716H78.5a5.9,5.9,0,0,1,.652.026,2.125,2.125,0,0,1,.441.1,1.13,1.13,0,0,1,.7.646,1.258,1.258,0,0,1,.1.5,1.068,1.068,0,0,1-.274.761,1.291,1.291,0,0,1-.75.374,1.107,1.107,0,0,1,.345.235,1.912,1.912,0,0,1,.259.431l.814,1.766H80L79.374,29.1a2.419,2.419,0,0,0-.248-.467.516.516,0,0,0-.26-.187,1.538,1.538,0,0,0-.437-.048h-.4v2.155H77.34Zm.691.595v1.5h.428q1.223,0,1.224-.755a.585.585,0,0,0-.32-.6,2.049,2.049,0,0,0-.833-.144Z"/><path d="M82.785,25.716v4.842h-.691V25.716Z"/><path d="M88.433,25.716v4.842H87.54l-1.531-2.627q-.4-.7-.548-.994a4.19,4.19,0,0,1-.268-.668q.06.8.061,1.829v2.46h-.691V25.716H85.5l1.648,2.854a8,8,0,0,1,.67,1.386c-.03-.324-.048-.541-.053-.652,0-.189-.009-.376-.013-.56s-.006-.3-.007-.348,0-.164,0-.352V25.716Z"/><path d="M93.849,25.917l-.046.671a2.4,2.4,0,0,0-.582-.238,2.666,2.666,0,0,0-.651-.074,2.156,2.156,0,0,0-1.018.232,1.665,1.665,0,0,0-.686.654,1.866,1.866,0,0,0-.243.949,1.965,1.965,0,0,0,.246.987,1.675,1.675,0,0,0,.7.67A2.183,2.183,0,0,0,92.6,30a2.4,2.4,0,0,0,.655-.1V28.5H92.213v-.588h1.729V30.37a4.4,4.4,0,0,1-.693.172,4.483,4.483,0,0,1-.692.051,3.361,3.361,0,0,1-1.1-.17,2.4,2.4,0,0,1-.851-.5,2.118,2.118,0,0,1-.54-.787,2.753,2.753,0,0,1-.183-1.031,2.376,2.376,0,0,1,.349-1.3,2.238,2.238,0,0,1,.95-.831,3.1,3.1,0,0,1,1.345-.283A3.66,3.66,0,0,1,93.849,25.917Z"/></svg>