<svg xmlns="http://www.w3.org/2000/svg" id="Layer_1" data-name="Layer 1" viewBox="0 0 278.99 587.21"><defs><style>.cls-1{fill:#394574;}.cls-2{fill:#cbccd2;}.cls-3{fill:#565f86;}.cls-4,.cls-5{fill:none;stroke-miterlimit:10;stroke-width:3px;}.cls-4{stroke:#565f86;}.cls-5{stroke:#cbccd2;}</style></defs><path d="M139.5 219.19H41.45v368.02h196.1V219.19H139.5z" class="cls-1"/><path d="M0 249.62l20.72-4.42h20.73v21.57H0v-17.15z" class="cls-2"/><path d="M0 266.77h41.45v222.72H0z" class="cls-2"/><path d="M20.8 264.01h10.6v18.5H20.8zM20.8 252.75h10.6v7.12H20.8z" class="cls-3"/><path d="M0 485.29h70.68v101.92H0zM19.15 280.88l17.15-4.42h17.16v21.57H19.15v-17.15z" class="cls-2"/><path d="M19.15 298.03h34.3v222.72h-34.3zM29.16 61.67l-6.4-2-6.4 2v52.88l6.18-2 6.62 2V61.67z" class="cls-2"/><path d="M33.19 117.81l-10.43-3.26-10.43 3.26v86.21l10.08-3.26 10.78 3.26v-86.21zM19.35 59.67l3.41-.99 3.41.99-3.41-51.1-3.41 51.1z" class="cls-2"/><path d="M22.76 133.37l-.26.13L4.01 143h37.44l-18.69-9.63z" class="cls-2"/><path d="M91.16 281.46h48.34v279.85H91.16z" class="cls-3"/><path d="M36.72 216.84l64.62 75.81" class="cls-4"/><path d="M4.01 143h37.44v106.6H4.01z" class="cls-2"/><path d="M121.51 301.71v250.36M103.72 301.71v250.36" class="cls-5"/><path d="M39.28 294.65h10.6v18.5h-10.6zM39.28 283.4h10.6v7.12h-10.6z" class="cls-3"/><path d="M32.23 312.45l19.23-4.95h19.22v24.18H32.23v-19.23zM32.23 331.68h38.45v249.64H32.23z" class="cls-2"/><path d="M54.29 313.16h13.63v7H54.29zM54.29 324.83h13.63v28.99H54.29zM54.29 358.85h13.63v28.99H54.29zM54.29 392.99h13.63v28.99H54.29zM54.29 428.37h13.63v28.99H54.29zM54.29 463.99h13.63v28.99H54.29zM54.29 497.89h13.63v28.99H54.29zM51.54 313.16v7l-12.26 3.17v-6.67l12.26-3.5zM51.54 324.83v29L39.28 357v-28.67l12.26-3.5zM32.23 283.4v7l-12.27 3.17v-6.67l12.27-3.5zM15.43 252.75v7.01l-12.27 3.17v-6.68l12.27-3.5zM32.23 295.07v29l-12.27 3.17v-28.67l12.27-3.5zM51.54 358.85v29l-12.26 3.17v-28.67l12.26-3.5zM51.54 392.99V422l-12.26 3.17v-28.68l12.26-3.5zM51.54 428.37v29l-12.26 3.17v-28.67l12.26-3.5zM51.54 463.99v29l-12.26 3.17v-28.67l12.26-3.5zM51.54 497.89v29l-12.26 3.17v-28.67l12.26-3.5zM32.23 330.04v29l-12.27 3.17v-28.67l12.27-3.5zM32.23 364.06v29l-12.27 3.18v-28.68l12.27-3.5zM32.23 398.21v29l-12.27 3.17v-28.67l12.27-3.5zM32.23 433.58v29l-12.27 3.18v-28.68l12.27-3.5zM32.23 469.2v29l-12.27 3.18V472.7l12.27-3.5zM32.23 503.1v29l-12.27 3.18V506.6l12.27-3.5zM15.43 334.68v29l-12.27 3.17v-28.67l12.27-3.5zM15.43 299.57v29l-12.27 3.18v-28.68l12.27-3.5zM15.43 264.7v29l-12.27 3.17V268.2l12.27-3.5zM15.43 368.7v29l-12.27 3.17V372.2l12.27-3.5zM15.43 402.85v29l-12.27 3.17v-28.67l12.27-3.5zM15.43 438.22v29l-12.27 3.17v-28.67l12.27-3.5zM15.43 473.84v29l-12.27 3.17v-28.67l12.27-3.5zM15.43 507.74v29l-12.27 3.17v-28.67l12.27-3.5z" class="cls-3"/><path d="M278.99 249.62l-20.72-4.42h-20.72v21.57h41.44v-17.15z" class="cls-2"/><path d="M237.55 266.77H279v222.72h-41.45z" class="cls-2"/><path d="M247.59 264.01h10.6v18.5h-10.6zM247.59 252.75h10.6v7.12h-10.6z" class="cls-3"/><path d="M208.31 485.29h70.68v101.92h-70.68zM259.84 280.88l-17.15-4.42h-17.15v21.57h34.3v-17.15z" class="cls-2"/><path d="M225.54 298.03h34.3v222.72h-34.3zM249.84 61.67l6.4-2 6.39 2v52.88l-6.18-2-6.61 2V61.67z" class="cls-2"/><path d="M245.81 117.81l10.43-3.26 10.43 3.26v86.21l-10.09-3.26-10.77 3.26v-86.21zM259.65 59.67l-3.41-.99-3.42.99 3.42-51.1 3.41 51.1z" class="cls-2"/><path d="M256.24 133.37l.25.13 18.5 9.5h-37.44l18.69-9.63z" class="cls-2"/><path d="M139.5 281.46h48.34v279.85H139.5z" class="cls-3"/><path d="M242.28 216.84l-64.62 75.81" class="cls-4"/><path d="M237.55 143h37.44v106.6h-37.44z" class="cls-2"/><path d="M157.48 301.71v250.36M175.27 301.71v250.36" class="cls-5"/><path d="M229.11 294.65h10.6v18.5h-10.6zM229.11 283.4h10.6v7.12h-10.6z" class="cls-3"/><path d="M246.76 312.45l-19.22-4.95h-19.23v24.18h38.45v-19.23zM208.31 331.68h38.45v249.64h-38.45zM139.5 159.28H17.15v59.91h244.69v-59.91H139.5z" class="cls-2"/><path d="M139.5 183.76c-23.4 0-48.34 8.55-48.34 8.55v24.53h96.68v-24.53s-24.94-8.55-48.34-8.55z" class="cls-1"/><path d="M211.07 313.16h13.63v7h-13.63zM211.07 324.83h13.63v28.99h-13.63zM211.07 358.85h13.63v28.99h-13.63zM211.07 392.99h13.63v28.99h-13.63zM211.07 428.37h13.63v28.99h-13.63zM211.07 463.99h13.63v28.99h-13.63zM211.07 497.89h13.63v28.99h-13.63zM227.45 313.16v7l12.27 3.17v-6.67l-12.27-3.5zM227.45 324.83v29l12.27 3.17v-28.67l-12.27-3.5zM246.76 283.4v7l12.27 3.17v-6.67l-12.27-3.5zM263.57 252.75v7.01l12.26 3.17v-6.68l-12.26-3.5zM246.76 295.07v29l12.27 3.17v-28.67l-12.27-3.5zM227.45 358.85v29l12.27 3.17v-28.67l-12.27-3.5zM227.45 392.99V422l12.27 3.17v-28.68l-12.27-3.5zM227.45 428.37v29l12.27 3.17v-28.67l-12.27-3.5zM227.45 463.99v29l12.27 3.17v-28.67l-12.27-3.5zM227.45 497.89v29l12.27 3.17v-28.67l-12.27-3.5zM246.76 330.04v29l12.27 3.17v-28.67l-12.27-3.5zM246.76 364.06v29l12.27 3.18v-28.68l-12.27-3.5zM246.76 398.21v29l12.27 3.17v-28.67l-12.27-3.5zM246.76 433.58v29l12.27 3.18v-28.68l-12.27-3.5zM246.76 469.2v29l12.27 3.18V472.7l-12.27-3.5zM246.76 503.1v29l12.27 3.18V506.6l-12.27-3.5zM263.57 334.68v29l12.26 3.17v-28.67l-12.26-3.5zM263.57 299.57v29l12.26 3.18v-28.68l-12.26-3.5zM263.57 264.7v29l12.26 3.17V268.2l-12.26-3.5zM263.57 368.7v29l12.26 3.17V372.2l-12.26-3.5zM263.57 402.85v29l12.26 3.17v-28.67l-12.26-3.5zM263.57 438.22v29l12.26 3.17v-28.67l-12.26-3.5zM263.57 473.84v29l12.26 3.17v-28.67l-12.26-3.5zM263.57 507.74v29l12.26 3.17v-28.67l-12.26-3.5z" class="cls-3"/><path d="M139.5 301.71v250.36" class="cls-5"/></svg>