<svg id="Layer_1" data-name="Layer 1" xmlns="http://www.w3.org/2000/svg" viewBox="0 0 75 75"><defs><style>.cls-1 { fill: #fff; }</style></defs><path class="cls-1" d="M37.5 27.712c3.557 0 3.98.013 5.384.078a7.372 7.372 0 0 1 2.473.458 4.412 4.412 0 0 1 2.53 2.53 7.372 7.372 0 0 1 .458 2.473c.064 1.406.077 1.827.077 5.384s-.013 3.98-.077 5.384a7.372 7.372 0 0 1-.46 2.474 4.412 4.412 0 0 1-2.528 2.528 7.372 7.372 0 0 1-2.473.46c-1.405.063-1.826.076-5.384.076s-3.98-.013-5.384-.077a7.372 7.372 0 0 1-2.473-.46 4.412 4.412 0 0 1-2.53-2.528 7.372 7.372 0 0 1-.458-2.474c-.064-1.405-.077-1.826-.077-5.384s.013-3.978.077-5.383a7.372 7.372 0 0 1 .46-2.473 4.412 4.412 0 0 1 2.528-2.53 7.372 7.372 0 0 1 2.473-.457c1.405-.064 1.827-.078 5.384-.078m0-2.4c-3.618 0-4.072.015-5.493.08a9.78 9.78 0 0 0-3.234.62 6.812 6.812 0 0 0-3.896 3.895 9.78 9.78 0 0 0-.62 3.234c-.065 1.422-.08 1.876-.08 5.494s.015 4.072.08 5.493a9.78 9.78 0 0 0 .62 3.234 6.812 6.812 0 0 0 3.896 3.898 9.78 9.78 0 0 0 3.234.62c1.42.064 1.875.08 5.493.08s4.072-.016 5.493-.08a9.78 9.78 0 0 0 3.234-.62 6.812 6.812 0 0 0 3.896-3.897 9.78 9.78 0 0 0 .62-3.233c.065-1.42.08-1.874.08-5.493s-.015-4.072-.08-5.493a9.78 9.78 0 0 0-.62-3.233 6.812 6.812 0 0 0-3.896-3.896 9.78 9.78 0 0 0-3.234-.618c-1.42-.065-1.875-.08-5.493-.08z"/><path class="cls-1" d="M37.5 31.793a6.84 6.84 0 1 0 6.84 6.84 6.84 6.84 0 0 0-6.84-6.84zm0 11.282a4.44 4.44 0 1 1 4.44-4.44 4.44 4.44 0 0 1-4.44 4.44z"/><circle class="cls-1" cx="44.612" cy="31.522" r="1.599"/></svg>