<?xml version="1.0" encoding="utf-8"?>
<!-- Generator: Adobe Illustrator 21.0.2, SVG Export Plug-In . SVG Version: 6.00 Build 0)  -->
<svg version="1.1" id="Layer_1" xmlns="http://www.w3.org/2000/svg" xmlns:xlink="http://www.w3.org/1999/xlink" x="0px" y="0px"
	 viewBox="0 0 1920 471" style="enable-background:new 0 0 1920 471;" xml:space="preserve">
<style type="text/css">
	.st0{clip-path:url(#SVGID_2_);}
	.st1{fill:#DAEAF2;}
</style>
<g>
	<defs>
		<rect id="SVGID_1_" width="1920" height="471"/>
	</defs>
	<clipPath id="SVGID_2_">
		<use xlink:href="#SVGID_1_"  style="overflow:visible;"/>
	</clipPath>
	<g class="st0">
		<g>
			<path class="st1" d="M1612.5,336.3v-4.6c-1.7-0.1-2.9-1.6-2.9-3.3c-0.1-1.8,1.3-3.3,3.1-3.4h0.1c1.8,0,3.3,1.5,3.4,3.4
				c0.1,1.7-1,3.2-2.7,3.3l0,0v4.6h1v6l7.6,7.8h-18.5l8.1-7.8v-6.1h0.8V336.3z M473.8,232.7h-1.9v1h1.9V232.7z M354.1,239.6
				c0,0-63.8-1.9-63.8,36.7c0,40.1,0,116.2,0,116.2h-6.7v81.9h-1.9v2H277v-33.5h-20.1v-22.7h-4.8v-30.6h-10.5v-76.9h-1.9v-7.9h-1.9
				v-4.9H234v-5.7L220.6,272v-2.8h-39.2v-2h-3.8v2h-2.9v-2h-3.8v2h-8.6v2.8L149,294.1v5.7h-3.8v4.9h-1.9v7.9h-1.9v129.2h-5.7v34.5
				h-3.8v-30.6h-11.5v-26.6h-1.9v-35.5h-21v35.5H85.9v-27.6H52.5v54.2h-4.8v30.6H42V646h1836V544.4v-68.1h-9.6v-14.8h-4.8v-11.8
				h-13.4v-63.1H1812v75h-1v14.8h-1.9v-61.2h-6.7v-6.9h-1V162.7h-20.1V139h-26.7V66h-1.9v73H1726v23.7h-20.1v234.7H1686v4.9h-16.2
				v12.8h-4.8v22.7h-6.7V420h3.4l-18.6-13.8h-13.5v-3h-1v-3.9h-1v-15.8h1v-3h-3.8v-2h-1.9v-25.6h1.9v-3H1600v3h1.9v25.6h-1.9v2h-3.8
				v3h1.9v15.8h-1v3.9h-1v3h-2.9v-5.9h-37.3v14.9l-11.2,4.8h1.6v34.5h-2.9v-13.8H1516v-2h-7.6V293.6l3.8-4.1v-20.2h-22.9v-5.9h2.3
				l2.1-6.9h-0.7l2.1-6.9h0.7l1.2-4.5v-2.8c-3.8-0.4-8.5-0.8-13-1l-4.5-14.4h-0.1c0-1-9.2-1.6-20.5-1.6s-20.5,0.7-20.5,1.6
				l-4.6,14.4c-4.5,0.3-9.4,0.6-13.2,1v2.8l1.5,4.5h0.7l2.1,6.9h-0.7l2.1,6.9h2.9v5.9h-23.9v20.2l3.8,4.1v104.9h-8.6v-2H1390v-16.8
				h-14.3v-59.2h-9.6v-6.9h-32.5v6.9h-25.8V428h-6.7v-67h-22v-6h-30.6v5.9H1194v79.9h-3.8V327.4H1151v-95.7h-4.8v-3h-3.8v-2h-5.7v2
				h-12.4v3h-6.7V211h-1v20.7h-2.9v-6.9h-15.3v4.9h-8.6v2h-37.3v144h-18.2V179.5h-98.5v-3h-63v3h-79.3v92.7h-15.3v120.3H768v15.8
				h-4.8v-76.9h-14.3v-63.1h1.2l1.7-3v-3.9h-1.9v-2h-5.7v2h-2.9v-16.8h1v-5.9h-2.9v-15.8h-2.9v3.9H735l-36.8-14.6v-3.1h-2.9v3.1
				L658,226.8h-0.8v-3.9h-2.9v15.8h-3.8v5.9h1v16.8h-1.9v-2h-6.7v2H641v3.9l2,3h0.9v109.5h-19.1V433h-7.6V289h-9.6v-6h-36.3v5.9
				h-24.8v105.5H535v62.1h-3V276.1h-6.7v-4.9h3.8v-2h-4.8v-3h-20.1v-3.9h-8.6v-2c1,0.7,1.3,1.1,2.2,1.1c1.5,0.1,2.7-1.1,2.8-2.6
				c0.1-1.5-1-2.8-2.5-2.9c-0.1,0-0.2,0-0.3,0c-0.9,0-1.2,0.5-2.2,1.1v-20.4h-1v-2H491v-8.9h-1.9v8.9h-2.9v-3h-2.9v-56.2h-2.9v53.3
				h-6.7v5.9h-3.8v2H468v15c-1.9,0.2-3.1,2-3.1,4.2c0,2.2,1.2,3.9,3.1,4.2v2.2h-2.9v3.9H445v3h-5.7v2h4.8v4.9h-6.7v168.7h-14.3v31.6
				h-3.8v-2h-1.9v-80.9h-3.8c0,0,0-92.1,0-117.7C413.6,238.8,354.1,239.6,354.1,239.6z M986-110.5h-5.2"/>
		</g>
	</g>
</g>
<rect x="120.3" y="445.8" class="st1" width="241.7" height="25.2"/>
<rect x="403" y="458.4" class="st1" width="33" height="12.6"/>
<rect x="1800" y="459.9" class="st1" width="19" height="11.1"/>
</svg>
