<?xml version="1.0" encoding="utf-8"?>
<!-- Generator: Adobe Illustrator 21.0.2, SVG Export Plug-In . SVG Version: 6.00 Build 0)  -->
<svg version="1.1" id="Layer_1" xmlns="http://www.w3.org/2000/svg" xmlns:xlink="http://www.w3.org/1999/xlink" x="0px" y="0px"
	 viewBox="0 0 1920 471" style="enable-background:new 0 0 1920 471;" xml:space="preserve">
<style type="text/css">
	.st0{clip-path:url(#SVGID_2_);}
	.st1{fill:none;}
	.st2{fill:none;stroke:#DAEAF2;stroke-width:0;stroke-linecap:round;stroke-linejoin:round;}
	.st3{fill:#DAEAF2;}
</style>
<g>
	<defs>
		<rect id="SVGID_1_" width="1920" height="471"/>
	</defs>
	<clipPath id="SVGID_2_">
		<use xlink:href="#SVGID_1_"  style="overflow:visible;"/>
	</clipPath>
	<g class="st0">
		<polygon class="st1" points="1622.1,350.1 1621.9,349.9 1603.8,349.9 1603.6,350.1 		"/>
		<polygon class="st1" points="277,471 277,476.4 281.7,476.4 281.7,474.4 283.6,474.4 283.6,471 		"/>
		<rect x="131.9" y="471" class="st1" width="3.8" height="5.3"/>
		<polygon class="st1" points="417.4,471 417.4,474.3 419.3,474.3 419.3,476.3 423.1,476.3 423.1,471 		"/>
		<rect x="1809.1" y="471" class="st1" width="1.9" height="5.4"/>
		<path class="st2" d="M980.8-110.5h5.2H980.8z"/>
		<path class="st3" d="M1614.5,342.3v-6h-1v-4.6c1.7-0.1,2.8-1.6,2.7-3.3c-0.1-1.9-1.6-3.4-3.4-3.4h-0.1c-1.8,0.1-3.2,1.6-3.1,3.4
			c0,1.7,1.2,3.2,2.9,3.3v4.5h-0.8v6.1l-7.9,7.6h18.1L1614.5,342.3z"/>
		<path class="st3" d="M1868.4,476.3v-14.8h-4.8v-11.8h-13.4v-63.1H1812v73.3h-2.9v-44.7h-6.7v-6.9h-1V162.7h-20.1V139h-26.7V66
			h-1.9v73H1726v23.7h-20.1v234.7H1686v4.9h-16.2v12.8h-4.8v22.7h-6.7V420h3.4l-18.6-13.8h-13.5v-3h-1v-3.9h-1v-15.8h1v-3h-3.8v-2
			h-1.9v-25.6h1.9v-3h-2.9l0.2,0.2h-18.5l0.2-0.2h-3.8v3h1.9v25.6h-1.9v2h-3.8v3h1.9v15.8h-1v3.9h-1v3h-2.9v-5.9h-37.3v14.9
			l-11.2,4.8h1.6v34.5h-2.9v-13.8H1516v-2h-7.6V293.6l3.8-4.1v-20.2h-22.9v-5.9h2.3l2.1-6.9h-0.7l2.1-6.9h0.7l1.2-4.5v-2.8
			c-3.8-0.4-8.5-0.8-13-1l-4.5-14.4h-0.1c0-1-9.2-1.6-20.5-1.6s-20.5,0.7-20.5,1.6l-4.6,14.4c-4.5,0.3-9.4,0.6-13.2,1v2.8l1.5,4.5
			h0.7l2.1,6.9h-0.7l2.1,6.9h2.9v5.9h-23.9v20.2l3.8,4.1v104.9h-8.6v-2H1390v-16.8h-14.3v-59.2h-9.6v-6.9h-32.5v6.9h-25.8V428h-6.7
			v-67h-22v-6h-30.6v5.9H1194v79.9h-3.8V327.4H1151v-95.7h-4.8v-3h-3.8v-2h-5.7v2h-12.4v3h-6.7V211h-1v20.7h-2.9v-6.9h-15.3v4.9
			h-8.6v2h-37.3v144h-18.2V179.5h-98.5v-3h-63v3h-79.3v92.7h-15.3v120.3H768v15.8h-4.8v-76.9h-14.3v-63.1h1.2l1.7-3v-3.9h-1.9v-2
			h-5.7v2h-2.9v-16.8h1v-5.9h-2.9v-15.8h-2.9v3.9H735l-36.8-14.6v-3.1h-2.9v3.1L658,226.8h-0.8v-3.9h-2.9v15.8h-3.8v5.9h1v16.8h-1.9
			v-2h-6.7v2H641v3.9l2,3h0.9v109.5h-19.1V433h-7.6V289h-9.6v-6h-36.3v5.9h-24.8v105.5H535v62.1h-3V276.1h-6.7v-4.9h3.8v-2h-4.8v-3
			h-20.1v-3.9h-8.6v-2c1,0.7,1.3,1.1,2.2,1.1c1.5,0.1,2.7-1.1,2.8-2.6c0.1-1.5-1-2.8-2.5-2.9c-0.1,0-0.2,0-0.3,0
			c-0.9,0-1.2,0.5-2.2,1.1v-20.4h-1v-2H491v-8.9h-1.9v8.9h-2.9v-3h-2.9v-56.2h-2.9v53.3h-6.7v4h-1.8v1h1.8v0.9h-3.8v2H468v15
			c-1.9,0.2-3.1,2-3.1,4.2c0,2.2,1.2,3.9,3.1,4.2v2.2h-2.9v3.9H445v3h-5.7v2h4.8v4.9h-6.7v168.7h-14.3v13.7h-5.7v-65h-3.8
			c0,0,0-92.1,0-117.7c0-36.9-59.5-36.1-59.5-36.1s-63.8-1.9-63.8,36.7c0,40.1,0,116.2,0,116.2h-6.7v53.3H277v-2.9h-20.1v-22.7h-4.8
			v-30.6h-10.5v-76.9h-1.9v-7.9h-1.9v-4.9H234v-5.7L220.6,272v-2.8h-39.2v-2h-3.8v2h-2.9v-2h-3.8v2h-8.6v2.8L149,294.1v5.7h-3.8v4.9
			h-1.9v7.9h-1.9v129.2h-5.7v4h-3.8v-0.1h-11.5v-26.6h-1.9v-35.5h-21v35.5H85.9v-27.6H52.5v54.2h-4.8v30.6H42V646h1836V544.4v-68.1
			H1868.4z M131.9,476.3V471h3.8v5.3H131.9z M281.7,474.4v2H277V471h6.6v3.4H281.7z M419.3,476.3v-2h-1.9V471h5.7v5.3H419.3z
			 M1809.1,476.4V471h1.9v5.4H1809.1z"/>
	</g>
</g>
</svg>
