<svg xmlns="http://www.w3.org/2000/svg" xmlns:xlink="http://www.w3.org/1999/xlink" viewBox="0 0 1920 471"><defs><style>.a{fill:none;}.b{clip-path:url(#a);}.c{fill:#e0e7f5;}</style><clipPath id="a"><rect class="a" width="1920" height="471"/></clipPath></defs><title>skyline-down</title><g class="b"><path class="a" d="M1622.1,350.1l-.2-.2h-18.1l-.2.2h18.5ZM277,471v5.4h4.7v-2h1.9V471Zm-145.1,0h3.8v5.3h-3.8Zm285.5,0v3.3h1.9v2h3.8V471h-5.7Zm1391.7,0h1.9v5.4h-1.9ZM980.8-110.5Z"/><path class="c" d="M1614.5,342.3v-6h-1v-4.6a2.969,2.969,0,0,0,2.709-3.208q0-.046-.009-.092a3.5,3.5,0,0,0-3.4-3.4h-.1a3.246,3.246,0,0,0-3.1,3.385v.015a3.194,3.194,0,0,0,2.9,3.3v4.5h-.8v6.1l-7.9,7.6h18.1l-7.4-7.6Z"/><path class="c" d="M571.3,298.9H546.5v95.5H535v62.1h-3V276.1h-6.7v-4.9h3.8v-2h-4.8v-3H504.2v-3.9h-8.6v-2c1,.7,1.3,1.1,2.2,1.1a2.756,2.756,0,0,0,.3-5.5h-.3c-.9,0-1.2.5-2.2,1.1V236.6h-1v-2H491v-8.9h-1.9v8.9h-2.9v-3h-2.9V175.4h-2.9v53.3h-6.7v4h-1.8v1h1.8v.9h-3.8v2H468v15c-1.9.2-3.1,2-3.1,4.2s1.2,3.9,3.1,4.2v2.2h-2.9v3.9H445v3h-5.7v2h4.8V276h-6.7V444.7H423.1v13.7h-5.7v-65h-3.8L413,186H355V154.9H306l-15.7,7.3V392.5h-6.7v53.3H277v-2.9H256.9V420.2h-4.8V389.6H241.6V312.7h-1.9v-7.9h-1.9v-4.9H234v-5.7L220.6,272v-2.8H181.4v-2h-3.8v2h-2.9v-2h-3.8v2h-8.6V272L149,294.1v5.7h-3.8v4.9h-1.9v7.9h-1.9V441.8h-5.7v4h-3.8v-.1H120.4V419.1h-1.9V383.6h-21v35.5H85.9V391.5H52.5v54.2H47.7v30.6H42V646H1878V476.3h-9.6V461.5h-4.8V449.7h-13.4V386.6H1812v73.3h-2.9V415.2h-6.7v-6.9h-1V162.7h-20.1V139h-26.7V66h-1.9v73H1726v23.7h-20.1V397.4H1686v4.9h-16.2v12.8H1665v22.7h-6.7V420h3.4l-18.6-13.8h-13.5v-3h-1v-3.9h-1V383.5h1v-3h-3.8v-2h-1.9V352.9h1.9v-3h-2.9l.2.2h-18.5l.2-.2H1600v3h1.9v25.6H1600v2h-3.8v3h1.9v15.8h-1v3.9h-1v3h-2.9v-5.9h-37.3v14.9l-11.2,4.8h1.6v34.5h-2.9V440.7H1516v-2h-7.6V293.6l3.8-4.1V269.3h-22.9v-5.9h2.3l2.1-6.9h-.7l2.1-6.9h.7l1.2-4.5v-2.8c-3.8-.4-8.5-.8-13-1l-4.5-14.4h-.1c0-1-9.2-1.6-20.5-1.6s-20.5.7-20.5,1.6l-4.6,14.4c-4.5.3-9.4.6-13.2,1v2.8l1.5,4.5h.7l2.1,6.9h-.7l2.1,6.9h2.9v5.9h-23.9v20.2l3.8,4.1V398.5h-8.6v-2H1390V379.7h-14.3V290.5h-9.6v-6.9h-32.5v6.9h-25.8V428h-6.7V361h-22v-6h-30.6v5.9H1194v79.9h-3.8V327.4H1151V310.7h-4.8v-3h-3.8v-2h-5.7v2h-12.4v3h-6.7V290h-1v20.7h-2.9v-6.9h-15.3v4.9h-8.6v2h-37.3v65h-18.2V319.5H935.8v-3h-63v3H793.5v20.7H778.2v52.3H768v15.8h-4.8V331.4H748.9V268.3h1.2l1.7-3v-3.9h-1.9v-2h-5.7v2h-2.9V244.6h1v-5.9h-2.9V222.9h-2.9v3.9H735l-36.8-14.6v-3.1h-2.9v3.1L658,226.8h-.8v-3.9h-2.9v15.8h-3.8v5.9h1v16.8h-1.9v-2h-6.7v2H641v3.9l2,3h.9V377.8H624.8V433h-7.6V299h-9.6l-36.3-.1ZM131.9,476.3V471h3.8v5.3Zm149.8-1.9v2H277V471h6.6v3.4Zm137.6,1.9v-2h-1.9V471h5.7v5.3h-3.8Zm1389.8.1V471h1.9v5.4Z"/></g></svg>