<?xml version="1.0" encoding="utf-8"?>
<!-- Generator: Adobe Illustrator 21.0.2, SVG Export Plug-In . SVG Version: 6.00 Build 0)  -->
<svg version="1.1" id="Layer_3" xmlns="http://www.w3.org/2000/svg" xmlns:xlink="http://www.w3.org/1999/xlink" x="0px" y="0px"
	 viewBox="0 0 968.4 183.9" style="enable-background:new 0 0 968.4 183.9;" xml:space="preserve">
<style type="text/css">
	.st0{fill:#374C5F;}
	.st1{enable-background:new    ;}
</style>
<path class="st0" d="M25.8,97.7h22.7l25.7-97H49.6L37.3,61.4L24.6,0.7H0L25.8,97.7z M93.6,97.7l6.3-22h22.6l6.4,22h24.5l-30.7-97
	h-23L69,97.7H93.6z M111.4,28.2l6,27.5h-12.2L111.4,28.2z M184.9,97.7V50.9l21.2,46.8h20.8v-97h-24v47.1L181.5,0.7h-20.7v97H184.9z
	 M279.1,97.7c7.6,0.2,15-2,21.3-6.3c6.1-4.3,10.8-10.2,13.6-17.2c3.2-7.8,4.7-16.2,4.6-24.6c0.1-8.5-1.4-16.9-4.6-24.7
	c-2.8-7-7.5-13.1-13.6-17.6c-6.2-4.4-13.7-6.7-21.3-6.6h-35.2v97H279.1z M267.9,22.7h11.2c4.8,0,8.6,2.4,11.4,7.6s4.2,11.6,4.2,19.4
	S293.3,64,290.5,69s-6.6,7.6-11.5,7.6h-11.2L267.9,22.7z M345.9,56.2v41.5h24V56.2l30-55.5h-28.2L358,31.1L344.5,0.7h-28.2
	L345.9,56.2z M412.3,5.8c-6.7,0.1-12,5.6-11.9,12.3s5.6,12,12.3,11.9c6.6-0.1,11.9-5.5,11.9-12.2C424.6,11.1,419.1,5.7,412.3,5.8
	L412.3,5.8z M412.3,8.2c5.3,0,9.2,4.3,9.2,9.7c0.2,5.1-3.8,9.3-8.9,9.5c-0.1,0-0.2,0-0.3,0c-5.1,0.1-9.4-4-9.4-9.2
	c0-0.1,0-0.3,0-0.4c-0.1-5.2,3.9-9.4,9.1-9.6C412.2,8.2,412.2,8.2,412.3,8.2L412.3,8.2z M410.9,19.7h0.9c1.5,0,2.3,0.2,2.5,1.5
	s0.6,2.5,1,2.5h3c-0.3,0-0.6-1-1-2.8c-0.2-1.3-1.1-2.3-2.3-2.7V18c2-0.4,2.6-1.5,2.6-2.8c0-1-0.4-2-1.1-2.6c-1.2-0.7-2.6-1-4-0.9
	c-1.5,0-3,0.1-4.5,0.4v11.6h3L410.9,19.7z M410.9,13.8c0.4-0.1,0.9-0.2,1.4-0.1c1.8,0,2.5,0.9,2.5,2c0,1.1-1.3,2-2.9,2h-1V13.8z
	 M459.9,97.7v-37h21v37h24v-97h-24v39h-21v-39h-23v97H459.9z M536.5,97.7l6.3-22h22.6l6.4,22h24.5l-30.7-97h-23l-30.7,97H536.5z
	 M554.3,28.2l6,27.5h-12.2L554.3,28.2z M609.1,85.7c7.7,8.9,17.7,13.3,30,13.3c6.6,0.1,13-1.6,18.7-5c5.3-3.3,9.9-8.7,13.6-16
	l-20.5-9.5c-1.3,2.8-3.1,5.2-5.5,7.1c-1.8,1.4-4,2.2-6.3,2.3c-5.3,0-9.6-2.5-12.9-7.6s-4.9-12-4.9-20.7s1.6-15.6,4.9-20.8
	s7.6-7.7,12.9-7.7c2.3,0.1,4.5,0.9,6.3,2.3c2.4,1.9,4.3,4.3,5.5,7.1l20.5-9.5c-3.7-7.3-8.2-12.7-13.6-16c-5.6-3.4-12.1-5.1-18.7-5
	c-5.7-0.1-11.4,1.1-16.7,3.5c-5,2.3-9.5,5.6-13.2,9.8c-3.9,4.6-6.8,9.9-8.6,15.7c-2.1,6.7-3.2,13.7-3.1,20.7
	C597.5,64.8,601.4,76.9,609.1,85.7L609.1,85.7z M705.9,97.7V67.3l20.6,30.4h29.4l-37.6-48.9L749,0.7h-27.8l-15.3,29.2V0.7h-24v97
	H705.9z M755.1,74.9c0.7,3.3,1.9,6.4,3.5,9.3c3.2,6.2,8.8,10.8,15.5,12.9c4.2,1.4,8.5,2,12.9,1.9c4.9,0.1,9.7-0.6,14.4-2.1
	c3.7-1.1,7.2-3.1,10-5.8c2.4-2.3,4.3-5.1,5.6-8.2s2.1-6.5,2.3-9.9c0.4-3.7,0.2-7.5-0.6-11.2c-0.6-3-1.7-5.9-3.3-8.5
	c-1.5-2.3-3.3-4.4-5.4-6.1c-1.9-1.6-4.1-3.1-6.3-4.3c-2.2-1.1-4.4-2-6.7-2.8l-9.5-3.8c-2.3-0.8-4.4-2.3-6-4.2
	c-1.1-1.4-1.8-3.1-1.8-4.9c-0.1-1.8,0.7-3.5,2.1-4.6c1.4-1,3.2-1.5,4.9-1.4c4.6,0,6.8,3.3,6.8,10.3h24c0.1-4.9-0.6-9.8-2.3-14.4
	c-1.3-3.8-3.5-7.2-6.3-9.9c-2.7-2.5-5.9-4.4-9.4-5.5c-3.8-1.3-7.9-1.9-11.9-1.8c-9.3,0-17,2.6-22.9,7.8s-8.9,12.2-8.9,21.1
	c0,2.6,0.4,5.3,1.1,7.8c0.9,2.9,2.1,5.6,3.6,8.2c1.9,3.1,4.4,5.8,7.3,7.9c3.4,2.6,7.3,4.5,11.4,5.8l10.1,4c4.5,1.8,6.5,4.7,5.9,8.7
	s-3.1,6.1-7.6,6.1c-1.4,0-2.8-0.2-4.1-0.8c-1.1-0.5-2-1.1-2.8-2c-0.7-0.9-1.3-2-1.7-3.1s-0.7-2.2-0.9-3.3c-0.2-1.1-0.3-2.7-0.4-3.7
	h-23.9C754.1,68.1,754.5,71.5,755.1,74.9L755.1,74.9z M884.9,97.7v-97h-24v97H884.9z M920,97.7h22.7l25.7-97h-24.6l-12.3,60.7
	L918.8,0.7h-24.6L920,97.7z"/>
<g class="st1">
	<path class="st0" d="M21.3,132.7c10.7,0,19.1,8.6,19.1,19.3c0,10.6-8.4,19.3-19.1,19.3c-10.6,0-19-8.7-19-19.3
		C2.2,141.3,10.6,132.7,21.3,132.7z M21.3,163.4c6.2,0,11.1-5.1,11.1-11.3s-4.9-11.4-11.1-11.4s-11.1,5.1-11.1,11.4
		S15.1,163.4,21.3,163.4z"/>
	<path class="st0" d="M58.2,144.7c4.5,0,8.6,2,11.1,5.4l-6.2,4.4c-1-1.6-2.9-2.6-4.9-2.6c-3.2,0-6.3,2.3-6.3,5.9s3.1,6.1,6.3,6.1
		c2,0,3.9-0.9,4.9-2.6l6.2,4.4c-2.4,3.4-6.5,5.5-11.1,5.5c-7.3,0-13.9-5.3-13.9-13.4S50.8,144.7,58.2,144.7z"/>
	<path class="st0" d="M89.7,145.2v6h-5.3v19.5h-7.5v-19.5h-4.6v-6h4.6v-9.8h7.5v9.8H89.7z"/>
	<path class="st0" d="M92.5,157.9c0-8,6-13.2,13.2-13.2s13.3,5.2,13.3,13.2s-6.1,13.3-13.3,13.3S92.5,165.9,92.5,157.9z
		 M111.5,157.9c0-3.4-2.6-5.8-5.8-5.8c-3.1,0-5.7,2.3-5.7,5.8c0,3.5,2.6,5.8,5.7,5.8C108.8,163.7,111.5,161.5,111.5,157.9z"/>
	<path class="st0" d="M124.4,170.7v-39.3h7.5v17c1.3-2.3,4.3-3.7,7.5-3.7c6.5,0,12.3,5.2,12.3,13.4c0,8-5.8,13.2-12.3,13.2
		c-3.2,0-6.2-1.4-7.5-3.7v3.2H124.4z M138,164.1c3.2,0,5.9-2.4,5.9-6.2c0-3.7-2.7-6.1-5.9-6.1c-3.1,0-5.9,2.2-5.9,6.1
		C132.1,161.6,134.8,164.1,138,164.1z"/>
	<path class="st0" d="M180.6,166.1c-2.6,3.8-7.3,5.2-11.6,5.2c-7.3,0-13.3-5.3-13.3-13.4s6-13.2,13.3-13.2c7.3,0,13,5.4,13,13.4
		c0,0.7-0.1,1.7-0.1,2.3h-18.7c0.4,2.9,3.6,4.3,6.3,4.3c2.1,0,4.3-0.8,5.6-2.4L180.6,166.1z M174.4,155.7c-0.4-3.1-3.2-4.4-5.3-4.4
		s-5,1.1-5.7,4.4H174.4z"/>
	<path class="st0" d="M194.8,170.7h-7.6v-25.5h7.6v6.2c1.3-4.7,4.6-6.7,7.2-6.7c1.8,0,3.2,0.3,4.4,0.9l-1.4,6.8
		c-1.4-0.7-2.7-0.8-3.9-0.8c-4.4,0-6.3,3.4-6.3,10.1V170.7z"/>
	<path class="st0" d="M221.7,170.7v-4.1l14.7-17.4c1.1-1.3,1.9-2.7,1.9-4c0-1.9-1.6-3.5-4.5-3.5c-2.7,0-4.6,2.1-5.1,5l-7-1.2
		c1.1-6.8,5.7-11.1,12.5-11.1c6.3,0,11.7,4.4,11.7,10.9c0,3.4-1.6,6.6-3.8,9.1l-8.2,9.3h11v7.2H221.7z"/>
	<path class="st0" d="M265.3,134.3c10.4,0,13.3,8.2,13.3,18.5c0,10.2-2.8,18.4-13.3,18.4c-10.4,0-13.4-8.2-13.4-18.4
		C251.9,142.5,254.9,134.3,265.3,134.3z M265.3,163.9c4.3,0,5.6-5,5.6-11c0-6.1-1.3-11.1-5.6-11.1c-4.4,0-5.7,5.1-5.7,11.1
		C259.6,158.8,260.9,163.9,265.3,163.9z"/>
	<path class="st0" d="M285.1,154.3h19.3v6h-19.3V154.3z"/>
	<path class="st0" d="M310.4,170.7v-4.1l14.7-17.4c1.1-1.3,1.9-2.7,1.9-4c0-1.9-1.6-3.5-4.5-3.5c-2.7,0-4.6,2.1-5.1,5l-7-1.2
		c1.1-6.8,5.7-11.1,12.5-11.1c6.3,0,11.7,4.4,11.7,10.9c0,3.4-1.6,6.6-3.8,9.1l-8.2,9.3h11v7.2H310.4z"/>
	<path class="st0" d="M340.3,170.7v-4.1l14.7-17.4c1.1-1.3,1.9-2.7,1.9-4c0-1.9-1.6-3.5-4.5-3.5c-2.7,0-4.6,2.1-5.1,5l-7-1.2
		c1.1-6.8,5.7-11.1,12.5-11.1c6.3,0,11.7,4.4,11.7,10.9c0,3.4-1.6,6.6-3.8,9.1l-8.2,9.3h11v7.2H340.3z"/>
	<path class="st0" d="M403.1,167.8c-1.6,2.5-5.5,3.4-7.4,3.4c-6.5,0-13-5.1-13-13.3s6.5-13.3,13-13.3c1.6,0,5.5,0.5,7.4,3.4v-2.8
		h7.5v25.5h-7.5V167.8z M396.9,164c3.1,0,6.2-2.2,6.2-6.1s-3.1-6.1-6.2-6.1c-3.2,0-6.4,2.4-6.4,6.1C390.6,161.6,393.8,164,396.9,164
		z"/>
	<path class="st0" d="M432.9,145.2v6h-5.3v19.5H420v-19.5h-4.6v-6h4.6v-9.8h7.5v9.8H432.9z"/>
	<path class="st0" d="M453.7,133.1l6.7,24.7l6.7-24.7h8.3L464,170.7h-7.1l-11.5-37.6H453.7z"/>
	<path class="st0" d="M496,167.8c-1.6,2.5-5.5,3.4-7.4,3.4c-6.5,0-13-5.1-13-13.3s6.5-13.3,13-13.3c1.6,0,5.5,0.5,7.4,3.4v-2.8h7.5
		v25.5H496V167.8z M489.9,164c3.1,0,6.2-2.2,6.2-6.1s-3.1-6.1-6.2-6.1c-3.2,0-6.4,2.4-6.4,6.1C483.5,161.6,486.7,164,489.9,164z"/>
	<path class="st0" d="M518.1,170.7h-7.6v-25.5h7.6v3.7c1.4-2.6,4.4-4.3,7.4-4.3c5.7,0,9.3,3.5,9.3,10.8v15.2c-1.3,0-6.4,0-7.6,0
		v-13.6c0-3.4-1.9-5.1-4.4-5.1c-2.7,0-4.7,1.3-4.7,5.2V170.7z"/>
	<path class="st0" d="M559.9,170.7v-3.2c-1.3,2.3-4.3,3.7-7.5,3.7c-6.5,0-12.3-5.2-12.3-13.2c0-8.2,5.8-13.4,12.3-13.4
		c3.2,0,6.2,1.3,7.5,3.7v-17h7.5v39.3H559.9z M553.8,151.8c-3.2,0-5.9,2.4-5.9,6.1c0,3.8,2.7,6.2,5.9,6.2c3.2,0,5.9-2.5,5.9-6.2
		C559.7,154.1,556.9,151.8,553.8,151.8z"/>
	<path class="st0" d="M597.8,166.1c-2.6,3.8-7.3,5.2-11.6,5.2c-7.3,0-13.3-5.3-13.3-13.4s6-13.2,13.3-13.2c7.3,0,13,5.4,13,13.4
		c0,0.7-0.1,1.7-0.1,2.3h-18.7c0.4,2.9,3.6,4.3,6.3,4.3c2.1,0,4.3-0.8,5.6-2.4L597.8,166.1z M591.6,155.7c-0.4-3.1-3.2-4.4-5.3-4.4
		c-2.1,0-5,1.1-5.7,4.4H591.6z"/>
	<path class="st0" d="M612,170.7h-7.6v-25.5h7.6v6.2c1.3-4.7,4.6-6.7,7.2-6.7c1.8,0,3.2,0.3,4.4,0.9l-1.4,6.8
		c-1.4-0.7-2.7-0.8-3.9-0.8c-4.4,0-6.3,3.4-6.3,10.1V170.7z"/>
	<path class="st0" d="M627.5,170.7v-39.3h7.5v17c1.3-2.3,4.3-3.7,7.5-3.7c6.5,0,12.3,5.2,12.3,13.4c0,8-5.8,13.2-12.3,13.2
		c-3.2,0-6.2-1.4-7.5-3.7v3.2H627.5z M641,164.1c3.2,0,5.9-2.4,5.9-6.2c0-3.7-2.7-6.1-5.9-6.1c-3.1,0-5.9,2.2-5.9,6.1
		C635.1,161.6,637.9,164.1,641,164.1z"/>
	<path class="st0" d="M664.1,131.4c2.6,0,4.6,1.9,4.6,4.4s-2.1,4.5-4.6,4.5c-2.6,0-4.7-2-4.7-4.5S661.5,131.4,664.1,131.4z
		 M667.8,170.7h-7.5v-25.5h7.5V170.7z"/>
	<path class="st0" d="M682.4,131.4v39.3h-7.6v-39.3H682.4z"/>
	<path class="st0" d="M704.6,145.2v6h-5.3v19.5h-7.5v-19.5h-4.6v-6h4.6v-9.8h7.5v9.8H704.6z"/>
	<path class="st0" d="M743.2,157.3v-24.2h8v24.2c0,8.5-6.8,14-14.5,14c-7.7,0-14.6-5.5-14.6-14v-24.2h8.1v24.2
		c0,3.9,3.1,6.4,6.5,6.4C740,163.7,743.2,161.2,743.2,157.3z"/>
	<path class="st0" d="M765.8,170.7h-7.6v-25.5h7.6v3.7c1.4-2.6,4.4-4.3,7.4-4.3c5.7,0,9.3,3.5,9.3,10.8v15.2c-1.3,0-6.4,0-7.6,0
		v-13.6c0-3.4-1.9-5.1-4.4-5.1c-2.7,0-4.7,1.3-4.7,5.2V170.7z"/>
	<path class="st0" d="M793,131.4c2.6,0,4.6,1.9,4.6,4.4s-2.1,4.5-4.6,4.5c-2.6,0-4.7-2-4.7-4.5S790.4,131.4,793,131.4z M796.7,170.7
		h-7.5v-25.5h7.5V170.7z"/>
	<path class="st0" d="M800.4,145.2h8.1l5.9,15.8l5.9-15.8h8.1l-10.8,25.5c0,0,0,0-6.5,0L800.4,145.2z"/>
	<path class="st0" d="M855,166.1c-2.6,3.8-7.3,5.2-11.6,5.2c-7.3,0-13.3-5.3-13.3-13.4s6-13.2,13.3-13.2c7.3,0,13,5.4,13,13.4
		c0,0.7-0.1,1.7-0.1,2.3h-18.7c0.4,2.9,3.6,4.3,6.3,4.3c2.1,0,4.3-0.8,5.6-2.4L855,166.1z M848.7,155.7c-0.4-3.1-3.2-4.4-5.3-4.4
		c-2.1,0-5,1.1-5.7,4.4H848.7z"/>
	<path class="st0" d="M869.1,170.7h-7.6v-25.5h7.6v6.2c1.3-4.7,4.6-6.7,7.2-6.7c1.8,0,3.2,0.3,4.4,0.9l-1.4,6.8
		c-1.4-0.7-2.7-0.8-3.9-0.8c-4.4,0-6.3,3.4-6.3,10.1V170.7z"/>
	<path class="st0" d="M891,160.3c-7.6-2.1-7.7-5.9-7.6-8.3c0.1-3.8,4.6-7.3,9.9-7.3c5.1,0,10.4,2.2,10.5,8.5h-7.1
		c-0.1-1.9-1.7-2.2-2.9-2.2c-1.6,0-2.7,0.8-2.7,1.9c0.1,0.8,0.7,1.5,2.2,1.9l4.3,1.1c6.2,1.7,6.9,5.8,6.9,7.4c0,5.4-5.7,8-11,8
		c-5.2,0-10.6-3.1-10.6-8.8h7.1c0.1,1.5,1.7,2.9,3.8,2.9c1.7-0.1,3.1-0.8,3.1-2.1c0-1.1-0.7-1.7-2.5-2.2L891,160.3z"/>
	<path class="st0" d="M913.7,131.4c2.6,0,4.6,1.9,4.6,4.4s-2.1,4.5-4.6,4.5c-2.6,0-4.7-2-4.7-4.5S911.1,131.4,913.7,131.4z
		 M917.4,170.7h-7.5v-25.5h7.5V170.7z"/>
	<path class="st0" d="M939.7,145.2v6h-5.3v19.5h-7.5v-19.5h-4.6v-6h4.6v-9.8h7.5v9.8H939.7z"/>
	<path class="st0" d="M952.7,183.2h-8l6.1-15.1l-9.8-22.9h8.1l5.6,14.5l5.7-14.5h8.1L952.7,183.2z"/>
</g>
</svg>
