<svg id="Layer_3" xmlns="http://www.w3.org/2000/svg" viewBox="0 0 968.4 183.9"><style>.st0{fill:#222a53;}</style><path class="st0" d="M25.8 97.7h22.7L74.2.7H49.6L37.3 61.4 24.6.7H0l25.8 97zm67.8 0l6.3-22h22.6l6.4 22h24.5L122.7.7h-23L69 97.7h24.6zm17.8-69.5l6 27.5h-12.2l6.2-27.5zm73.5 69.5V50.9l21.2 46.8h20.8V.7h-24v47.1L181.5.7h-20.7v97h24.1zm94.2 0c7.6.2 15-2 21.3-6.3 6.1-4.3 10.8-10.2 13.6-17.2 3.2-7.8 4.7-16.2 4.6-24.6.1-8.5-1.4-16.9-4.6-24.7-2.8-7-7.5-13.1-13.6-17.6-6.2-4.4-13.7-6.7-21.3-6.6h-35.2v97h35.2zm-11.2-75h11.2c4.8 0 8.6 2.4 11.4 7.6s4.2 11.6 4.2 19.4-1.4 14.3-4.2 19.3-6.6 7.6-11.5 7.6h-11.2l.1-53.9zm78 33.5v41.5h24V56.2l30-55.5h-28.2L358 31.1 344.5.7h-28.2l29.6 55.5zm66.4-50.4c-6.7.1-12 5.6-11.9 12.3s5.6 12 12.3 11.9c6.6-.1 11.9-5.5 11.9-12.2 0-6.7-5.5-12.1-12.3-12zm0 2.4c5.3 0 9.2 4.3 9.2 9.7.2 5.1-3.8 9.3-8.9 9.5h-.3c-5.1.1-9.4-4-9.4-9.2v-.4c-.1-5.2 3.9-9.4 9.1-9.6h.3zm-1.4 11.5h.9c1.5 0 2.3.2 2.5 1.5s.6 2.5 1 2.5h3c-.3 0-.6-1-1-2.8-.2-1.3-1.1-2.3-2.3-2.7V18c2-.4 2.6-1.5 2.6-2.8 0-1-.4-2-1.1-2.6-1.2-.7-2.6-1-4-.9-1.5 0-3 .1-4.5.4v11.6h3l-.1-4zm0-5.9c.4-.1.9-.2 1.4-.1 1.8 0 2.5.9 2.5 2s-1.3 2-2.9 2h-1v-3.9zm49 83.9v-37h21v37h24V.7h-24v39h-21V.7h-23v97h23zm76.6 0l6.3-22h22.6l6.4 22h24.5L565.6.7h-23l-30.7 97h24.6zm17.8-69.5l6 27.5h-12.2l6.2-27.5zm54.8 57.5c7.7 8.9 17.7 13.3 30 13.3 6.6.1 13-1.6 18.7-5 5.3-3.3 9.9-8.7 13.6-16l-20.5-9.5c-1.3 2.8-3.1 5.2-5.5 7.1-1.8 1.4-4 2.2-6.3 2.3-5.3 0-9.6-2.5-12.9-7.6s-4.9-12-4.9-20.7 1.6-15.6 4.9-20.8 7.6-7.7 12.9-7.7c2.3.1 4.5.9 6.3 2.3 2.4 1.9 4.3 4.3 5.5 7.1l20.5-9.5c-3.7-7.3-8.2-12.7-13.6-16-5.6-3.4-12.1-5.1-18.7-5-5.7-.1-11.4 1.1-16.7 3.5-5 2.3-9.5 5.6-13.2 9.8-3.9 4.6-6.8 9.9-8.6 15.7-2.1 6.7-3.2 13.7-3.1 20.7 0 15.1 3.9 27.2 11.6 36zm96.8 12V67.3l20.6 30.4h29.4l-37.6-48.9L749 .7h-27.8l-15.3 29.2V.7h-24v97h24zm49.2-22.8c.7 3.3 1.9 6.4 3.5 9.3 3.2 6.2 8.8 10.8 15.5 12.9 4.2 1.4 8.5 2 12.9 1.9 4.9.1 9.7-.6 14.4-2.1 3.7-1.1 7.2-3.1 10-5.8 2.4-2.3 4.3-5.1 5.6-8.2s2.1-6.5 2.3-9.9c.4-3.7.2-7.5-.6-11.2-.6-3-1.7-5.9-3.3-8.5-1.5-2.3-3.3-4.4-5.4-6.1-1.9-1.6-4.1-3.1-6.3-4.3-2.2-1.1-4.4-2-6.7-2.8l-9.5-3.8c-2.3-.8-4.4-2.3-6-4.2-1.1-1.4-1.8-3.1-1.8-4.9-.1-1.8.7-3.5 2.1-4.6 1.4-1 3.2-1.5 4.9-1.4 4.6 0 6.8 3.3 6.8 10.3h24c.1-4.9-.6-9.8-2.3-14.4-1.3-3.8-3.5-7.2-6.3-9.9-2.7-2.5-5.9-4.4-9.4-5.5-3.8-1.3-7.9-1.9-11.9-1.8-9.3 0-17 2.6-22.9 7.8s-8.9 12.2-8.9 21.1c0 2.6.4 5.3 1.1 7.8.9 2.9 2.1 5.6 3.6 8.2 1.9 3.1 4.4 5.8 7.3 7.9 3.4 2.6 7.3 4.5 11.4 5.8l10.1 4c4.5 1.8 6.5 4.7 5.9 8.7s-3.1 6.1-7.6 6.1c-1.4 0-2.8-.2-4.1-.8-1.1-.5-2-1.1-2.8-2-.7-.9-1.3-2-1.7-3.1s-.7-2.2-.9-3.3c-.2-1.1-.3-2.7-.4-3.7h-23.9c.3 3.7.7 7.1 1.3 10.5zm129.8 22.8V.7h-24v97h24zm35.1 0h22.7l25.7-97h-24.6l-12.3 60.7L918.8.7h-24.6l25.8 97zM1.8 152.4c0-5.4 1.8-10 5.5-13.8 3.7-3.8 8.2-5.7 13.6-5.7s9.9 1.9 13.6 5.7c3.7 3.8 5.6 8.4 5.6 13.8 0 5.3-1.9 9.9-5.6 13.7-3.7 3.8-8.3 5.7-13.6 5.7-5.3 0-9.9-1.9-13.6-5.7-3.6-3.8-5.5-8.4-5.5-13.7zm10.5-8.9c-2.4 2.4-3.5 5.4-3.5 8.9s1.2 6.4 3.5 8.8c2.4 2.4 5.2 3.6 8.7 3.6 3.4 0 6.3-1.2 8.7-3.6 2.4-2.4 3.5-5.4 3.5-8.8 0-3.5-1.2-6.4-3.5-8.9-2.4-2.4-5.2-3.7-8.7-3.7-3.4.1-6.3 1.3-8.7 3.7zM48.8 168c-2.7-2.5-4.1-5.7-4.1-9.7 0-3.9 1.4-7.1 4.1-9.6 2.7-2.5 6-3.7 9.8-3.7 2.2 0 4.2.4 6 1.3 1.9.9 3.4 2.1 4.6 3.7l-5.3 4c-1.2-1.7-3-2.5-5.3-2.5-1.9 0-3.6.6-5.1 1.9-1.4 1.3-2.1 2.9-2.1 4.9 0 2 .7 3.7 2.1 5 1.4 1.3 3.1 2 5.1 2 2.3 0 4.1-.9 5.3-2.6l5.4 4c-1.2 1.6-2.8 2.9-4.6 3.7-1.9.9-3.9 1.3-6.1 1.3-3.8.1-7.1-1.2-9.8-3.7zM83.8 135.8v9.8h5.4v5.4h-5.4v20.3h-6.6V151h-4.7v-5.4h4.7v-9.8h6.6zM115.2 168c-2.6 2.5-5.7 3.7-9.5 3.7s-6.9-1.2-9.5-3.7c-2.6-2.5-3.9-5.7-3.9-9.7s1.3-7.2 3.9-9.6c2.6-2.5 5.7-3.7 9.5-3.7s6.9 1.2 9.5 3.7c2.6 2.5 3.9 5.7 3.9 9.6s-1.4 7.2-3.9 9.7zm-14.3-4.7c1.3 1.3 2.9 1.9 4.8 1.9s3.5-.6 4.8-1.9c1.3-1.3 1.9-2.9 1.9-5 0-2-.6-3.6-1.9-4.8-1.3-1.2-2.9-1.9-4.8-1.9s-3.5.6-4.8 1.9c-1.3 1.2-1.9 2.9-1.9 4.8 0 2.1.6 3.7 1.9 5zM131.7 171.2H125v-39.6h6.7V149c.7-1.2 1.7-2.2 3.2-2.9 1.5-.7 3.1-1 4.8-1 3.5 0 6.4 1.2 8.9 3.7s3.7 5.7 3.7 9.7c0 4-1.2 7.2-3.7 9.6-2.5 2.5-5.4 3.7-8.9 3.7-1.7 0-3.3-.4-4.8-1.1-1.5-.7-2.6-1.7-3.2-2.9v3.4zm2.2-17.9c-1.4 1.3-2 2.9-2 5s.7 3.8 2 5.1c1.3 1.3 2.9 2 4.8 2s3.5-.7 4.8-2c1.3-1.3 2-3 2-5.1 0-2.1-.7-3.7-2-5-1.3-1.3-2.9-1.9-4.8-1.9s-3.5.6-4.8 1.9zM183 158.3c0 .7 0 1.5-.1 2.3h-19.6c.2 1.7 1 3 2.3 4 1.3 1 2.9 1.5 4.8 1.5 1.4 0 2.6-.3 3.8-.9 1.2-.6 2.1-1.4 2.6-2.4l5.1 2.7c-1.1 2.1-2.7 3.6-4.9 4.7-2.2 1-4.5 1.5-7.1 1.5-3.7 0-6.9-1.3-9.4-3.8-2.6-2.5-3.8-5.7-3.8-9.7s1.3-7.2 3.8-9.6c2.6-2.5 5.7-3.7 9.4-3.7s6.8 1.2 9.3 3.7c2.6 2.6 3.8 5.8 3.8 9.7zm-19.7-2.2h13.2c-.3-1.7-1-3.1-2.1-4-1.2-1-2.6-1.4-4.3-1.4-1.8 0-3.3.5-4.5 1.5-1.3.9-2 2.2-2.3 3.9zM195.4 162.2v9.1h-6.7v-25.7h6.7v6c.6-2.2 1.6-3.8 2.9-4.9s2.8-1.6 4.3-1.6c1.6 0 3.1.3 4.2.9l-1.2 6c-1.1-.5-2.4-.7-3.9-.7-4.2 0-6.3 3.6-6.3 10.9zM245.8 171.2h-23v-3.5l14.7-17.6c1.5-1.7 2.2-3.3 2.2-4.7 0-1.2-.5-2.2-1.5-3-1-.8-2.2-1.2-3.7-1.2s-2.7.5-3.7 1.5-1.6 2.2-1.9 3.8l-6.3-1.2c.5-3.3 1.9-5.8 4.1-7.7 2.2-1.9 4.9-2.9 8.1-2.9 3.2 0 6 1 8.2 3 2.3 2 3.4 4.6 3.4 7.8s-1.3 6.3-3.8 9.2l-8.9 10.2h12.1v6.3zM252.8 153.3c0-12.4 4.4-18.6 13.3-18.6 2.5 0 4.7.5 6.5 1.4 1.8 1 3.1 2.3 4.1 4.1 1 1.8 1.6 3.7 2 5.8.4 2.1.6 4.6.6 7.3 0 2.2-.1 4.1-.4 5.9-.2 1.8-.7 3.4-1.3 5.1-.6 1.6-1.4 3-2.4 4-1 1.1-2.2 1.9-3.8 2.6-1.6.6-3.3 1-5.4 1-8.7-.1-13.2-6.3-13.2-18.6zm6.8 0c0 7.9 2.2 11.9 6.6 11.9 4.3 0 6.5-4 6.5-11.9 0-8-2.2-12-6.5-12-4.4-.1-6.6 4-6.6 12zM286.1 160.7v-5.6h19.3v5.6h-19.3zM334.3 171.2h-23v-3.5l14.7-17.6c1.5-1.7 2.2-3.3 2.2-4.7 0-1.2-.5-2.2-1.5-3-1-.8-2.2-1.2-3.7-1.2s-2.7.5-3.7 1.5-1.6 2.2-1.9 3.8l-6.3-1.2c.5-3.3 1.9-5.8 4.1-7.7 2.2-1.9 4.9-2.9 8.1-2.9 3.2 0 6 1 8.2 3 2.3 2 3.4 4.6 3.4 7.8s-1.3 6.3-3.8 9.2l-8.9 10.2h12.1v6.3zM364 171.2h-23v-3.5l14.7-17.6c1.5-1.7 2.2-3.3 2.2-4.7 0-1.2-.5-2.2-1.5-3-1-.8-2.2-1.2-3.7-1.2s-2.7.5-3.7 1.5-1.6 2.2-1.9 3.8l-6.3-1.2c.5-3.3 1.9-5.8 4.1-7.7 2.2-1.9 4.9-2.9 8.1-2.9 3.2 0 6 1 8.2 3 2.3 2 3.4 4.6 3.4 7.8s-1.3 6.3-3.8 9.2l-8.9 10.2H364v6.3zM404.6 171.2v-3.3c-.8 1.2-1.9 2.1-3.5 2.8-1.6.7-3 1-4.5 1-3.5 0-6.6-1.2-9.2-3.7-2.6-2.5-3.9-5.7-3.9-9.6s1.3-7.2 3.9-9.6c2.6-2.5 5.6-3.7 9.2-3.7 1.4 0 2.9.3 4.4.9 1.5.6 2.7 1.5 3.5 2.8v-3.2h6.7v25.7h-6.6zm-12-17.8c-1.4 1.3-2.1 3-2.1 5s.7 3.7 2.1 5c1.4 1.3 3.1 2 5 2s3.6-.6 4.9-1.9c1.4-1.3 2.1-2.9 2.1-5s-.7-3.8-2.1-5.1c-1.4-1.2-3-1.9-4.9-1.9-1.9 0-3.6.6-5 1.9zM427.7 135.8v9.8h5.4v5.4h-5.4v20.3H421V151h-4.7v-5.4h4.7v-9.8h6.7zM446.3 133.4h7.3l7.4 26.4 7.4-26.4h7.3l-11.5 37.8h-6.3l-11.6-37.8zM497.4 171.2v-3.3c-.8 1.2-1.9 2.1-3.5 2.8s-3 1-4.5 1c-3.5 0-6.6-1.2-9.2-3.7-2.6-2.5-3.9-5.7-3.9-9.6s1.3-7.2 3.9-9.6c2.6-2.5 5.6-3.7 9.2-3.7 1.4 0 2.9.3 4.4.9s2.7 1.5 3.5 2.8v-3.2h6.7v25.7h-6.6zm-12-17.8c-1.4 1.3-2.1 3-2.1 5s.7 3.7 2.1 5c1.4 1.3 3.1 2 5 2s3.6-.6 4.9-1.9c1.4-1.3 2.1-2.9 2.1-5s-.7-3.8-2.1-5.1c-1.4-1.2-3-1.9-4.9-1.9-2 0-3.6.6-5 1.9zM518.4 157.6v13.7h-6.7v-25.7h6.7v3.8c.7-1.3 1.8-2.4 3.2-3.2 1.4-.8 2.9-1.2 4.4-1.2 3 0 5.4.9 7.1 2.8 1.7 1.9 2.5 4.6 2.5 8.2v15.2h-6.7v-14c0-1.8-.4-3.2-1.3-4.2s-2.1-1.5-3.6-1.5c-1.6 0-3 .5-4 1.4-1.1 1.1-1.6 2.6-1.6 4.7zM561.9 171.2v-3.5c-.7 1.2-1.8 2.2-3.3 2.9-1.5.7-3.1 1.1-4.8 1.1-3.5 0-6.4-1.2-8.9-3.7s-3.7-5.7-3.7-9.6c0-4 1.2-7.2 3.7-9.7 2.5-2.5 5.4-3.7 8.9-3.7 1.8 0 3.4.3 4.8 1s2.5 1.7 3.2 2.9v-17.4h6.6v39.6h-6.5zm-2.1-7.8c1.3-1.3 2-3 2-5.1 0-2.1-.7-3.8-2.1-5s-3-1.9-4.8-1.9c-1.9 0-3.5.6-4.8 1.9-1.3 1.3-2 2.9-2 5s.6 3.8 2 5.1c1.3 1.3 2.9 2 4.8 2s3.5-.7 4.9-2zM600.8 158.3c0 .7 0 1.5-.1 2.3h-19.6c.2 1.7 1 3 2.3 4 1.3 1 2.9 1.5 4.8 1.5 1.4 0 2.6-.3 3.8-.9 1.2-.6 2.1-1.4 2.6-2.4l5.1 2.7c-1.1 2.1-2.7 3.6-4.9 4.7-2.2 1-4.5 1.5-7.1 1.5-3.7 0-6.9-1.3-9.4-3.8-2.6-2.5-3.8-5.7-3.8-9.7s1.3-7.2 3.8-9.6c2.6-2.5 5.7-3.7 9.4-3.7s6.8 1.2 9.3 3.7c2.6 2.6 3.8 5.8 3.8 9.7zm-19.7-2.2h13.2c-.3-1.7-1-3.1-2.1-4s-2.6-1.4-4.3-1.4c-1.8 0-3.3.5-4.5 1.5-1.3.9-2.1 2.2-2.3 3.9zM613.2 162.2v9.1h-6.7v-25.7h6.7v6c.6-2.2 1.6-3.8 2.9-4.9s2.8-1.6 4.3-1.6c1.6 0 3.1.3 4.2.9l-1.2 6c-1.1-.5-2.4-.7-3.9-.7-4.2 0-6.3 3.6-6.3 10.9zM635.7 171.2H629v-39.6h6.7V149c.7-1.2 1.7-2.2 3.2-2.9 1.5-.7 3.1-1 4.8-1 3.5 0 6.4 1.2 8.9 3.7s3.7 5.7 3.7 9.7c0 4-1.2 7.2-3.7 9.6-2.5 2.5-5.4 3.7-8.9 3.7-1.7 0-3.3-.4-4.8-1.1-1.5-.7-2.6-1.7-3.2-2.9v3.4zm2.2-17.9c-1.4 1.3-2 2.9-2 5s.7 3.8 2 5.1c1.3 1.3 2.9 2 4.8 2s3.5-.7 4.8-2 2-3 2-5.1c0-2.1-.7-3.7-2-5-1.3-1.3-2.9-1.9-4.8-1.9s-3.5.6-4.8 1.9zM662.6 138.5c-.8-.8-1.3-1.7-1.3-2.9s.4-2.1 1.3-2.9c.9-.8 1.9-1.2 3-1.2s2.2.4 3 1.2c.8.8 1.2 1.7 1.2 2.9s-.4 2.1-1.2 2.9c-.8.8-1.8 1.2-3 1.2-1.1 0-2.2-.4-3-1.2zm6.4 7.1v25.7h-6.6v-25.7h6.6zM676.6 171.2v-39.6h6.7v39.6h-6.7zM699.6 135.8v9.8h5.4v5.4h-5.4v20.3H693V151h-4.7v-5.4h4.7v-9.8h6.6zM732.5 163.1c1.4 1.4 3.1 2 5.1 2 2 0 3.7-.7 5.1-2 1.4-1.4 2.2-3.1 2.2-5.2v-24.5h7v24.5c0 4.1-1.4 7.4-4.2 10s-6.2 3.9-10.1 3.9c-4 0-7.4-1.3-10.2-3.9-2.8-2.6-4.2-5.9-4.2-10v-24.5h7.1v24.5c0 2.1.7 3.9 2.2 5.2zM766.4 157.6v13.7h-6.7v-25.7h6.7v3.8c.7-1.3 1.8-2.4 3.2-3.2 1.4-.8 2.9-1.2 4.4-1.2 3 0 5.4.9 7.1 2.8 1.7 1.9 2.5 4.6 2.5 8.2v15.2h-6.7v-14c0-1.8-.4-3.2-1.3-4.2s-2.1-1.5-3.6-1.5c-1.6 0-3 .5-4 1.4-1.1 1.1-1.6 2.6-1.6 4.7zM791.1 138.5c-.8-.8-1.3-1.7-1.3-2.9s.4-2.1 1.3-2.9c.9-.8 1.9-1.2 3-1.2s2.2.4 3 1.2c.8.8 1.2 1.7 1.2 2.9s-.4 2.1-1.2 2.9c-.8.8-1.8 1.2-3 1.2-1.1 0-2.2-.4-3-1.2zm6.4 7.1v25.7h-6.6v-25.7h6.6zM812.5 171.2l-10.8-25.7h7.1l6.6 17.1 6.6-17.1h7.2l-10.8 25.7h-5.9zM857.7 158.3c0 .7 0 1.5-.1 2.3H838c.2 1.7 1 3 2.3 4 1.3 1 2.9 1.5 4.8 1.5 1.4 0 2.6-.3 3.8-.9 1.2-.6 2.1-1.4 2.6-2.4l5.1 2.7c-1.1 2.1-2.7 3.6-4.9 4.7-2.2 1-4.5 1.5-7.1 1.5-3.7 0-6.9-1.3-9.4-3.8-2.6-2.5-3.8-5.7-3.8-9.7s1.3-7.2 3.8-9.6c2.6-2.5 5.7-3.7 9.4-3.7s6.8 1.2 9.3 3.7c2.5 2.6 3.8 5.8 3.8 9.7zm-19.8-2.2h13.2c-.3-1.7-1-3.1-2.1-4s-2.6-1.4-4.3-1.4c-1.8 0-3.3.5-4.5 1.5-1.3.9-2 2.2-2.3 3.9zM870 162.2v9.1h-6.7v-25.7h6.7v6c.6-2.2 1.6-3.8 2.9-4.9s2.8-1.6 4.3-1.6c1.6 0 3.1.3 4.2.9l-1.2 6c-1.1-.5-2.4-.7-3.9-.7-4.1 0-6.3 3.6-6.3 10.9zM891.9 160.5c-1.6-.4-2.9-1-3.9-1.5s-1.8-1.2-2.2-2-.8-1.4-.9-2.1-.2-1.4-.2-2.3c0-2 .9-3.8 2.8-5.4 1.9-1.5 4.1-2.3 6.6-2.3 2.7 0 5 .7 6.9 2 1.9 1.3 2.9 3.4 3 6.1h-6.4c0-.9-.4-1.5-1.1-2s-1.5-.7-2.4-.7c-2.2 0-3.2.8-3.2 2.5 0 1 .9 1.7 2.7 2.1l4.3 1c1.4.4 2.6.9 3.5 1.5s1.6 1.4 2.1 2.2c.4.8.7 1.5.9 2.1.2.6.2 1.2.2 1.9 0 2.5-1 4.4-3.1 5.8-2.1 1.4-4.5 2.1-7.4 2.1-2.7 0-5.1-.8-7.2-2.3-2.1-1.6-3.1-3.7-3.2-6.3h6.3c.1.9.6 1.7 1.5 2.3.9.6 2 .9 3.2.9 1 0 1.7-.3 2.4-.8.6-.5 1-1.1 1-1.8 0-.6-.2-1.1-.6-1.5-.5-.4-1.2-.7-2.2-.9l-3.4-.6zM910.9 138.5c-.8-.8-1.3-1.7-1.3-2.9s.4-2.1 1.3-2.9c.9-.8 1.9-1.2 3-1.2s2.2.4 3 1.2c.8.8 1.2 1.7 1.2 2.9s-.4 2.1-1.2 2.9c-.8.8-1.8 1.2-3 1.2-1.1 0-2.2-.4-3-1.2zm6.4 7.1v25.7h-6.6v-25.7h6.6zM933.6 135.8v9.8h5.4v5.4h-5.4v20.3H927V151h-4.7v-5.4h4.7v-9.8h6.6zM967.9 145.6L952 183.8h-7.1l5.9-14.5-10-23.7h7.1l6.4 16 6.4-16h7.2z"/></svg>