<svg xmlns="http://www.w3.org/2000/svg" id="Layer_3" data-name="Layer 3" viewBox="0 0 968.43 99.07"><defs><style>.cls-1{fill:#374c5f;}</style></defs><path d="M25.81 97.68h22.72l25.68-97H49.63L37.31 61.4 24.58.68H0zm67.77 0l6.3-22h22.59l6.44 22h24.51l-30.68-97h-23l-30.67 97zm17.8-69.52l6 27.52h-12.16zm73.5 69.52V50.86l21.23 46.81h20.77V.68h-24v47.1L181.54.68h-20.67v97zm94.19 0a36.25 36.25 0 0 0 21.3-6.33A38.9 38.9 0 0 0 314 74.2a62.47 62.47 0 0 0 4.58-24.57A63.43 63.43 0 0 0 314 24.88a40.11 40.11 0 0 0-13.64-17.56 36 36 0 0 0-21.3-6.64h-35.19v97zm-11.19-75h11.22c4.79 0 8.6 2.4 11.43 7.62s4.24 11.63 4.24 19.44-1.4 14.26-4.21 19.32-6.63 7.62-11.47 7.62h-11.22zm78 33.52v41.48h24V56.2l30-55.52h-28.2L358 31.07 344.47.68h-28.2zm66.46-50.44a12.08 12.08 0 1 0 12.29 12 12.14 12.14 0 0 0-12.29-12zm0 2.42c5.34 0 9.22 4.32 9.22 9.66a9.19 9.19 0 0 1-9.15 9.51 9.3 9.3 0 0 1-9.41-9.59 9.33 9.33 0 0 1 9.34-9.59zm-1.47 11.51h.88c1.54 0 2.27.17 2.49 1.49s.59 2.51 1 2.51h3c-.29 0-.64-1-1-2.81a3.66 3.66 0 0 0-2.32-2.74V18c2-.44 2.61-1.46 2.61-2.78a3.3 3.3 0 0 0-1.11-2.63 6.93 6.93 0 0 0-4-.88 22 22 0 0 0-4.47.37v11.6h3zm0-5.87a3.49 3.49 0 0 1 1.35-.15c1.76 0 2.47.95 2.47 2s-1.33 2-2.87 2h-1zm49 83.87v-37h21v37h24V.68h-24v39h-21v-39h-23v97zm76.67 0l6.3-22h22.59l6.43 22h24.51L565.71.68h-23l-30.71 97zm17.8-69.52l6 27.52h-12.15zm54.8 57.58q11.6 13.31 30 13.31a34.44 34.44 0 0 0 18.65-5q8-5 13.59-16l-20.47-9.52a19.31 19.31 0 0 1-5.51 7.09 10.51 10.51 0 0 1-6.26 2.29q-7.94 0-12.87-7.6t-4.93-20.67q0-13.07 4.93-20.78t12.87-7.7a10.52 10.52 0 0 1 6.26 2.29 19.32 19.32 0 0 1 5.51 7.08l20.5-9.54q-5.54-11-13.59-16a34.44 34.44 0 0 0-18.65-5 40.11 40.11 0 0 0-16.69 3.46 38.35 38.35 0 0 0-13.19 9.75 44.77 44.77 0 0 0-8.63 15.68 65.68 65.68 0 0 0-3.11 20.74q-.01 22.8 11.6 36.11zm96.73 11.94v-30.4l20.64 30.39h29.44L718.37 48.8 749 .68h-27.83l-15.3 29.17V.68h-24v97zm49.25-22.79a34.27 34.27 0 0 0 3.48 9.33 26.31 26.31 0 0 0 15.52 12.92A39.22 39.22 0 0 0 787 99.07 46.15 46.15 0 0 0 801.4 97a25 25 0 0 0 10-5.76 26.22 26.22 0 0 0 5.6-8.18 29.27 29.27 0 0 0 2.29-9.9 36.57 36.57 0 0 0-.58-11.2 26.42 26.42 0 0 0-3.29-8.49 26.13 26.13 0 0 0-5.42-6.13 34.75 34.75 0 0 0-6.3-4.25 55.45 55.45 0 0 0-6.67-2.8l-9.51-3.75a13.76 13.76 0 0 1-6-4.23 8.31 8.31 0 0 1-1.85-4.92 5.5 5.5 0 0 1 2.12-4.58 7.58 7.58 0 0 1 4.93-1.43c4.56 0 6.84 3.29 6.84 10.29h24a39.66 39.66 0 0 0-2.26-14.4 24.84 24.84 0 0 0-6.33-9.9 26.27 26.27 0 0 0-9.41-5.53A37.28 37.28 0 0 0 787.64 0q-14 0-22.92 7.78T755.8 28.9a28.5 28.5 0 0 0 1.12 7.79 34.63 34.63 0 0 0 3.64 8.2 28.42 28.42 0 0 0 7.35 7.93 37.51 37.51 0 0 0 11.43 5.81l10.13 4q6.78 2.66 5.89 8.67t-7.6 6.14a9.91 9.91 0 0 1-4.07-.78 7.81 7.81 0 0 1-2.77-2 9.19 9.19 0 0 1-1.67-3.08 17.64 17.64 0 0 1-.89-3.32c-.16-1.11-.28-2.66-.37-3.66H754.1a53.65 53.65 0 0 0 1.03 10.28zm129.75 22.78v-97h-24v97zm35.16 0h22.73l25.67-97h-24.57L931.54 61.4 918.8.68h-24.57z" class="cls-1"/></svg>