<svg xmlns="http://www.w3.org/2000/svg" id="Layer_1" viewBox="0 0 566 393.6"><style>.st0{fill:#394574;} .st1{fill:#000001;} .st2{fill:#565F86;} .st3{fill:#3A4159;} .st4{fill:#CFD0D2;} .st5{fill:#A5A8AA;} .st6{fill:#E4E6E7;} .st7{fill:#59595B;} .st8{fill:#F1F1F1;} .st9{fill:#E6E6E6;} .st10{fill:#9DA7C4;} .st11{fill:#BABCBE;}</style><g id="_Group_"><g id="_Group_2"><path id="_Compound_Path_" d="M406.8 159.2h144.5V374H406.8V159.2zm5.4 18.4v191H546v-191H412.2z" class="st0"/><path id="_Path_" d="M406.8 164.2h144.5v4.2H406.8z" class="st0"/><g id="_Group_3"><path id="_Path_2" d="M409.3 307.9h139.5v6.8H409.3z" class="st0"/><path id="_Path_3" d="M408.9 368.1h139.5v6.8H408.9z" class="st0"/><path id="_Path_4" d="M409.3 230.6h139.5v6.8H409.3z" class="st0"/></g><path id="_Path_5" d="M406.8 168.3h10.7v225.3h-10.7z" class="st0"/><path id="_Path_6" d="M540.6 168.3h10.7v225.3h-10.7z" class="st0"/><path id="_Path_7" d="M406.8 389.8V393.6h10.7V389.8z" class="st1"/><path id="_Path_8" d="M540.6 389.8V393.6h10.7V389.8z" class="st1"/></g><g id="_Group_4"><g id="_Group_5"><g id="_Group_6"><path id="_Path_9" d="M16.9 370.8h10.6v22.6H16.9z" class="st0"/><path id="_Path_10" d="M142.3 370.8h10.6v22.6h-10.6z" class="st0"/></g><path id="_Path_11" d="M12.7 159.2h144.5V374H12.7z" class="st0"/><g id="_Group_7"><g id="_Group_8"><path id="_Path_12" d="M22.4 194.3h125.1v41.1H22.4z" class="st2"/><path id="_Path_13" d="M22.4 233.1h125.1v2.3H22.4z" class="st3"/><g id="_Group_9"><path id="_Path_14" d="M70.1 202.6h29.7c.6 0 1 .5 1 1v3.9c0 .6-.5 1-1 1H70.1c-.6 0-1-.5-1-1v-3.9c0-.6.4-1 1-1z" class="st4"/><path id="_Path_15" d="M99.9 207.7h-30c-.5-.1-.8-.5-.8-1v.9c0 .5.4.9.9 1h29.9c.5-.1.9-.5.9-1v-.9c0 .5-.3.9-.9 1z" class="st5"/></g><g id="_Group_10"><circle id="_Path_16" cx="84.9" cy="213.9" r="2.8" class="st6"/><path id="_Path_17" d="M84.8 212.3h.3c.2 0 .4.2.4.4v2.4c0 .2-.2.4-.4.4h-.3c-.2 0-.4-.2-.4-.4v-2.4c0-.2.2-.4.4-.4z" class="st7"/></g></g><g id="_Group_11"><path id="_Path_18" d="M22.4 248.5h125.1v41.1H22.4z" class="st2"/><path id="_Path_19" d="M22.4 287.2h125.1v2.3H22.4z" class="st3"/><g id="_Group_12"><path id="_Path_20" d="M70.1 256.7h29.7c.6 0 1 .5 1 1v3.9c0 .6-.5 1-1 1H70.1c-.6 0-1-.5-1-1v-3.9c0-.5.4-1 1-1z" class="st4"/><path id="_Path_21" d="M99.9 261.9h-30c-.5-.1-.8-.5-.8-1v.9c0 .5.4.9.9 1h29.9c.5-.1.9-.5.9-1v-.9c0 .5-.3.9-.9 1z" class="st5"/></g><g id="_Group_13"><circle id="_Path_22" cx="84.9" cy="268.1" r="2.8" class="st6"/><path id="_Path_23" d="M84.8 266.5h.3c.2 0 .4.2.4.4v2.4c0 .2-.2.4-.4.4h-.3c-.2 0-.4-.2-.4-.4v-2.4c0-.3.2-.4.4-.4z" class="st7"/></g></g><g id="_Group_14"><path id="_Path_24" d="M22.4 302.7h125.1v41.1H22.4z" class="st2"/><path id="_Path_25" d="M22.4 341.4h125.1v2.3H22.4z" class="st3"/><g id="_Group_15"><path id="_Path_26" d="M70.1 310.9h29.7c.6 0 1 .5 1 1v3.9c0 .6-.5 1-1 1H70.1c-.6 0-1-.5-1-1v-3.9c0-.5.4-1 1-1z" class="st4"/><path id="_Path_27" d="M99.9 316h-30c-.5-.1-.8-.5-.8-1v.9c0 .5.4.9.9 1h29.9c.5-.1.9-.5.9-1v-.9c0 .5-.3.9-.9 1z" class="st5"/></g><g id="_Group_16"><circle id="_Path_28" cx="84.9" cy="322.3" r="2.8" class="st6"/><path id="_Path_29" d="M84.8 320.6h.3c.2 0 .4.2.4.4v2.4c0 .2-.2.4-.4.4h-.3c-.2 0-.4-.2-.4-.4V321c0-.2.2-.4.4-.4z" class="st7"/></g></g></g><path id="_Path_30" d="M17 389.8h10.6v3.6H17z" class="st1"/><path id="_Path_31" d="M142.3 389.8h10.6v3.6h-10.6z" class="st1"/></g><path id="_Path_32" d="M12.7 164.2h144.5v4.2H12.7z" class="st0"/></g><g id="_Group_17"><path id="_Path_33" d="M0 152.4h566v6H0z" class="st8"/><path id="_Path_34" d="M0 158.4h566v6H0z" class="st9"/></g></g><path id="_Path_35" d="M191.9 113.2V4.2c0-2.3 1.9-4.2 4.2-4.2h178.5c2.3 0 4.2 1.9 4.2 4.2v109H191.9z" class="st3"/><path id="_Path_36" d="M263 148.9l5.1-19.5h37.8l5 19.5z" class="st9"/><path id="_Path_37" d="M374.7 130.1H196.2c-2.3 0-4.2-1.9-4.2-4.2v-12.6h186.9v12.6c0 2.3-1.9 4.2-4.2 4.2z" class="st8"/><path id="_Path_38" d="M255.7 152.1v-2.2l7.4-1h47.8l7.4 1v2.2z" class="st6"/><g id="_Group_18"><g id="_Group_19"><path id="_Path_39" d="M196.5 7.4h177.7v98.5H196.5z" class="st2"/></g></g><path id="_Path_40" d="M196.5 7.4h177.7v4.7H196.5z" class="st10"/><g id="_Group_20"><path id="_Path_41" d="M246.6 150.1h-3.5v-1.3c0-.2.2-.3.5-.3h2.5c.3 0 .5.1.5.3v1.3z" class="st3"/><path id="_Path_42" d="M250.4 150.1h-3.5v-1.3c0-.2.2-.3.5-.3h2.5c.3 0 .5.1.5.3v1.3z" class="st3"/><path id="_Path_43" d="M254.3 150.1h-3.5v-1.3c0-.2.2-.3.5-.3h2.5c.3 0 .5.1.5.3v1.3z" class="st3"/><path id="_Path_44" d="M287.9 150.1h-3.5v-1.3c0-.2.2-.3.5-.3h2.5c.3 0 .5.1.5.3v1.3z" class="st3"/><path id="_Path_45" d="M291.8 150.1h-3.5v-1.3c0-.2.2-.3.5-.3h2.5c.3 0 .5.1.5.3v1.3z" class="st3"/><path id="_Path_46" d="M295.6 150.1h-3.5v-1.3c0-.2.2-.3.5-.3h2.5c.3 0 .5.1.5.3v1.3z" class="st3"/><path id="_Path_47" d="M299.5 150.1H296v-1.3c0-.2.2-.3.5-.3h2.5c.3 0 .5.1.5.3v1.3z" class="st3"/><path id="_Path_48" d="M303.5 150.1H300v-1.3c0-.2.2-.3.5-.3h2.5c.3 0 .5.1.5.3v1.3z" class="st3"/><path id="_Path_49" d="M307.4 150.1h-3.5v-1.3c0-.2.2-.3.5-.3h2.5c.3 0 .5.1.5.3v1.3z" class="st3"/><path id="_Path_50" d="M311.3 150.1h-3.5v-1.3c0-.2.2-.3.5-.3h2.5c.3 0 .5.1.5.3v1.3z" class="st3"/><path id="_Path_51" d="M317.5 150.1H314v-1.3c0-.2.2-.3.5-.3h2.5c.3 0 .5.1.5.3v1.3z" class="st3"/><path id="_Path_52" d="M321.3 150.1h-3.5v-1.3c0-.2.2-.3.5-.3h2.5c.3 0 .5.1.5.3v1.3z" class="st3"/><path id="_Path_53" d="M325 150.1h-3.5v-1.3c0-.2.2-.3.5-.3h2.5c.3 0 .5.1.5.3v1.3z" class="st3"/><path id="_Path_54" d="M328.8 150.1h-3.5v-1.3c0-.2.2-.3.5-.3h2.5c.3 0 .5.1.5.3v1.3z" class="st3"/><path id="_Path_55" d="M283.9 150.1h-29.2v-1.3c0-.2.2-.3.5-.3h28.2c.1 0 .3 0 .4.1.1 0 .1.1.1.2v1.3z" class="st3"/><path id="_Path_56" d="M331.3 151.1c0 .5-.6.9-1.3.9h-88.2c-.7 0-1.3-.4-1.3-.9v-.9c0-.5.6-.9 1.3-.9H330c.7 0 1.3.4 1.3.9v.9z" class="st11"/><path id="_Path_57" d="M240.5 150.9v.2c0 .5.6.9 1.3.9H330c.7 0 1.3-.4 1.3-.9v-.2h-90.8z" class="st4"/></g><g id="_Group_21"><path id="_Path_58" d="M380.5 149.6c0 .7-.6 1.3-1.3 1.3h-18.5c-.7 0-1.3-.6-1.3-1.3-.1-7.6 21.1-7.8 21.1 0z" class="st11"/><path id="_Path_59" d="M359.6 148.2c2.1-5.9 18.5-6.3 20.7 0-6.7 2.8-14.1 2.8-20.7 0z" class="st6"/><path id="_Path_60" d="M370.9 144c0 .1-.1.1-.1.1H369c-.1 0-.1-.1-.1-.1v-.5c0-.2.4-.3.8-.3h.4c.5 0 .8.1.8.3v.5z" class="st3"/><path id="_Path_61" d="M352 150.9h35.8c.2 0 .4.2.4.4v.3c0 .2-.2.4-.4.4H352c-.2 0-.4-.2-.4-.4v-.3c0-.2.2-.4.4-.4z" class="st3"/></g><path d="M272.6 42.5c0-6.7 1.6-11.6 4.7-14.8 3.1-3.2 7.3-4.8 12.5-4.8 5.5 0 9.9 1.6 13.2 4.8 3.3 3.2 4.9 7.6 4.9 13.3.2 3.8-1 7.5-3.3 10.6-2.7 3.2-6.1 5.9-9.9 7.8-.4.2-.7.6-.9 1-.1.4-.3.8-.4 1.2-.1.5-.2 1-.2 1.4 0 .6-.1 1.1-.1 1.4v1.7c0 .7 0 1.2-.1 1.6h-14.3c-.3-2-.4-4.1-.5-6.2-.1-2.4.4-4.7 1.5-6.8 1-1.6 3.2-3.6 6.5-5.9 1.5-1 2.9-2.2 4.2-3.4.6-.5 1-1.1 1.3-1.8.2-.8.2-1.7.2-2.5v-1.6c0-.4-.1-.8-.2-1.2-.1-.4-.3-.7-.7-.9-.4-.2-.9-.3-1.3-.3-.8 0-1.5.6-1.5 1.4-.2 1.4-.3 2.7-.3 4.1l-15.3-.1zm4.7 39.2c-.1-2.3.8-4.4 2.5-6 1.6-1.6 3.8-2.4 6-2.4 2.1-.1 4.2.8 5.6 2.4 1.4 1.7 2.1 3.8 2 6 .1 2.2-.7 4.4-2.3 6-1.4 1.5-3.3 2.3-5.4 2.3-2.2 0-4.4-.8-6-2.4-1.5-1.5-2.4-3.7-2.4-5.9z" class="st10"/></svg>