<svg id="Layer_1" xmlns="http://www.w3.org/2000/svg" xmlns:xlink="http://www.w3.org/1999/xlink" x="0px" y="0px" viewBox="0 0 1920 471"><style>.st0{clip-path:url(#SVGID_2_);} .st1{fill:none;} .st2{fill:#e0e7f5;}</style><defs><path id="SVGID_1_" d="M0 0h1920v471H0z"/></defs><clipPath id="SVGID_2_"><use xlink:href="#SVGID_1_" overflow="visible"/></clipPath><g class="st0"><path class="st1" d="M1622.1 350.1l-.2-.2h-18.1l-.2.2h18.5zM277 471v5.4h4.7v-2h1.9V471H277zm-145.1 0h3.8v5.3h-3.8V471zm285.5 0v3.3h1.9v2h3.8V471h-5.7zm1391.7 0h1.9v5.4h-1.9V471zM980.8-110.5h5.2-5.2z"/><path class="st2" d="M1614.5 342.3v-6h-1v-4.6c1.7-.1 2.8-1.6 2.7-3.3-.1-1.9-1.6-3.4-3.4-3.4h-.1c-1.8.1-3.2 1.6-3.1 3.4 0 1.7 1.2 3.2 2.9 3.3v4.5h-.8v6.1l-7.9 7.6h18.1l-7.4-7.6z"/><path class="st2" d="M571.3 298.9h-24.8v95.5H535v62.1h-3V276.1h-6.7v-4.9h3.8v-2h-4.8v-3h-20.1v-3.9h-8.6v-2c1 .7 1.3 1.1 2.2 1.1 1.5.1 2.7-1.1 2.8-2.6.1-1.5-1-2.8-2.5-2.9h-.3c-.9 0-1.2.5-2.2 1.1v-20.4h-1v-2H491v-8.9h-1.9v8.9h-2.9v-3h-2.9v-56.2h-2.9v53.3h-6.7v4h-1.8v1h1.8v.9h-3.8v2H468v15c-1.9.2-3.1 2-3.1 4.2s1.2 3.9 3.1 4.2v2.2h-2.9v3.9H445v3h-5.7v2h4.8v4.9h-6.7v168.7h-14.3v13.7h-5.7v-65h-3.8L413 186h-58v-31.1h-49l-15.7 7.3v230.3h-6.7v53.3H277v-2.9h-20.1v-22.7h-4.8v-30.6h-10.5v-76.9h-1.9v-7.9h-1.9v-4.9H234v-5.7L220.6 272v-2.8h-39.2v-2h-3.8v2h-2.9v-2h-3.8v2h-8.6v2.8L149 294.1v5.7h-3.8v4.9h-1.9v7.9h-1.9v129.2h-5.7v4h-3.8v-.1h-11.5v-26.6h-1.9v-35.5h-21v35.5H85.9v-27.6H52.5v54.2h-4.8v30.6H42V646h1836V476.3h-9.6v-14.8h-4.8v-11.8h-13.4v-63.1H1812v73.3h-2.9v-44.7h-6.7v-6.9h-1V162.7h-20.1V139h-26.7V66h-1.9v73H1726v23.7h-20.1v234.7H1686v4.9h-16.2v12.8h-4.8v22.7h-6.7V420h3.4l-18.6-13.8h-13.5v-3h-1v-3.9h-1v-15.8h1v-3h-3.8v-2h-1.9v-25.6h1.9v-3h-2.9l.2.2h-18.5l.2-.2h-3.8v3h1.9v25.6h-1.9v2h-3.8v3h1.9v15.8h-1v3.9h-1v3h-2.9v-5.9h-37.3v14.9l-11.2 4.8h1.6v34.5h-2.9v-13.8H1516v-2h-7.6V293.6l3.8-4.1v-20.2h-22.9v-5.9h2.3l2.1-6.9h-.7l2.1-6.9h.7l1.2-4.5v-2.8c-3.8-.4-8.5-.8-13-1l-4.5-14.4h-.1c0-1-9.2-1.6-20.5-1.6s-20.5.7-20.5 1.6l-4.6 14.4c-4.5.3-9.4.6-13.2 1v2.8l1.5 4.5h.7l2.1 6.9h-.7l2.1 6.9h2.9v5.9h-23.9v20.2l3.8 4.1v104.9h-8.6v-2H1390v-16.8h-14.3v-89.2h-9.6v-6.9h-32.5v6.9h-25.8V428h-6.7v-67h-22v-6h-30.6v5.9H1194v79.9h-3.8V327.4H1151v-95.7h-4.8v-3h-3.8v-2h-5.7v2h-12.4v3h-6.7V211h-1v20.7h-2.9v-6.9h-15.3v4.9h-8.6v2h-37.3v144h-18.2V179.5h-98.5v-3h-63v3h-79.3v92.7h-15.3v120.3H768v15.8h-4.8v-76.9h-14.3v-63.1h1.2l1.7-3v-3.9h-1.9v-2h-5.7v2h-2.9v-16.8h1v-5.9h-2.9v-15.8h-2.9v3.9H735l-36.8-14.6v-3.1h-2.9v3.1L658 226.8h-.8v-3.9h-2.9v15.8h-3.8v5.9h1v16.8h-1.9v-2h-6.7v2H641v3.9l2 3h.9v109.5h-19.1V433h-7.6V299h-9.6l-36.3-.1zM131.9 476.3V471h3.8v5.3h-3.8zm149.8-1.9v2H277V471h6.6v3.4h-1.9zm137.6 1.9v-2h-1.9V471h5.7v5.3h-3.8zm1389.8.1V471h1.9v5.4h-1.9z"/></g></svg>